<?xml version="1.0" encoding="utf-8"?>
<!-- Generator: Adobe Illustrator 27.3.1, SVG Export Plug-In . SVG Version: 6.00 Build 0)  -->
<svg version="1.1" id="Laag_1" xmlns="http://www.w3.org/2000/svg" xmlns:xlink="http://www.w3.org/1999/xlink" x="0px" y="0px"
	 viewBox="0 0 1098.23 450" style="enable-background:new 0 0 1098.23 450;" xml:space="preserve">
<g>
	<circle cx="565.32" cy="12.5" r="2.5"/>
	<circle cx="581.42" cy="12.5" r="3"/>
	<circle cx="597.52" cy="12.5" r="3.5"/>
	<circle cx="613.62" cy="12.5" r="4"/>
	<circle cx="629.71" cy="12.5" r="4.5"/>
	<circle cx="645.81" cy="12.5" r="5"/>
	<circle cx="661.91" cy="12.5" r="5.5"/>
	<circle cx="678.01" cy="12.5" r="6"/>
	<circle cx="694.11" cy="12.5" r="6.5"/>
	<circle cx="710.21" cy="12.5" r="7"/>
	<circle cx="726.3" cy="12.5" r="7.5"/>
	<circle cx="742.4" cy="12.5" r="8"/>
	<circle cx="758.5" cy="12.5" r="8.5"/>
	<circle cx="774.6" cy="12.5" r="9"/>
	<circle cx="790.7" cy="12.5" r="9.5"/>
	<circle cx="806.2" cy="12.5" r="10"/>
	<circle cx="822.01" cy="12.5" r="10.5"/>
	<circle cx="837.83" cy="12.5" r="11"/>
	<circle cx="853.64" cy="12.5" r="11.5"/>
	<circle cx="869.45" cy="12.5" r="12"/>
	<circle cx="885.26" cy="12.5" r="12.5"/>
</g>
<g>
	<circle cx="565.32" cy="31" r="2.5"/>
	<circle cx="581.42" cy="31" r="3"/>
	<circle cx="597.52" cy="31" r="3.5"/>
	<circle cx="613.62" cy="31" r="4"/>
	<circle cx="629.71" cy="31" r="4.5"/>
	<circle cx="645.81" cy="31" r="5"/>
	<circle cx="661.91" cy="31" r="5.5"/>
	<circle cx="678.01" cy="31" r="6"/>
	<circle cx="694.11" cy="31" r="6.5"/>
	<circle cx="710.21" cy="31" r="7"/>
	<circle cx="726.3" cy="31" r="7.5"/>
	<circle cx="742.4" cy="31" r="8"/>
	<circle cx="758.5" cy="31" r="8.5"/>
	<circle cx="774.6" cy="31" r="9"/>
	<circle cx="790.7" cy="31" r="9.5"/>
	<circle cx="806.2" cy="31" r="10"/>
	<circle cx="822.01" cy="31" r="10.5"/>
	<circle cx="837.83" cy="31" r="11"/>
	<circle cx="853.64" cy="31" r="11.5"/>
	<circle cx="869.45" cy="31" r="12"/>
	<circle cx="885.26" cy="31" r="12.5"/>
</g>
<g>
	<circle cx="565.32" cy="49.5" r="2.5"/>
	<circle cx="581.42" cy="49.5" r="3"/>
	<circle cx="597.52" cy="49.5" r="3.5"/>
	<circle cx="613.62" cy="49.5" r="4"/>
	<circle cx="629.71" cy="49.5" r="4.5"/>
	<circle cx="645.81" cy="49.5" r="5"/>
	<circle cx="661.91" cy="49.5" r="5.5"/>
	<circle cx="678.01" cy="49.5" r="6"/>
	<circle cx="694.11" cy="49.5" r="6.5"/>
	<circle cx="710.21" cy="49.5" r="7"/>
	<circle cx="726.3" cy="49.5" r="7.5"/>
	<circle cx="742.4" cy="49.5" r="8"/>
	<circle cx="758.5" cy="49.5" r="8.5"/>
	<circle cx="774.6" cy="49.5" r="9"/>
	<circle cx="790.7" cy="49.5" r="9.5"/>
	<circle cx="806.2" cy="49.5" r="10"/>
	<circle cx="822.01" cy="49.5" r="10.5"/>
	<circle cx="837.83" cy="49.5" r="11"/>
	<circle cx="853.64" cy="49.5" r="11.5"/>
	<circle cx="869.45" cy="49.5" r="12"/>
	<circle cx="885.26" cy="49.5" r="12.5"/>
</g>
<g>
	<circle cx="565.32" cy="68" r="2.5"/>
	<circle cx="581.42" cy="68" r="3"/>
	<circle cx="597.52" cy="68" r="3.5"/>
	<circle cx="613.62" cy="68" r="4"/>
	<circle cx="629.71" cy="68" r="4.5"/>
	<circle cx="645.81" cy="68" r="5"/>
	<circle cx="661.91" cy="68" r="5.5"/>
	<circle cx="678.01" cy="68" r="6"/>
	<circle cx="694.11" cy="68" r="6.5"/>
	<circle cx="710.21" cy="68" r="7"/>
	<circle cx="726.3" cy="68" r="7.5"/>
	<circle cx="742.4" cy="68" r="8"/>
	<circle cx="758.5" cy="68" r="8.5"/>
	<circle cx="774.6" cy="68" r="9"/>
	<circle cx="790.7" cy="68" r="9.5"/>
	<circle cx="806.2" cy="68" r="10"/>
	<circle cx="822.01" cy="68" r="10.5"/>
	<circle cx="837.83" cy="68" r="11"/>
	<circle cx="853.64" cy="68" r="11.5"/>
	<circle cx="869.45" cy="68" r="12"/>
	<circle cx="885.26" cy="68" r="12.5"/>
</g>
<g>
	<circle cx="565.32" cy="86.5" r="2.5"/>
	<circle cx="581.42" cy="86.5" r="3"/>
	<circle cx="597.52" cy="86.5" r="3.5"/>
	<circle cx="613.62" cy="86.5" r="4"/>
	<circle cx="629.71" cy="86.5" r="4.5"/>
	<circle cx="645.81" cy="86.5" r="5"/>
	<circle cx="661.91" cy="86.5" r="5.5"/>
	<circle cx="678.01" cy="86.5" r="6"/>
	<circle cx="694.11" cy="86.5" r="6.5"/>
	<circle cx="710.21" cy="86.5" r="7"/>
	<circle cx="726.3" cy="86.5" r="7.5"/>
	<circle cx="742.4" cy="86.5" r="8"/>
	<circle cx="758.5" cy="86.5" r="8.5"/>
	<circle cx="774.6" cy="86.5" r="9"/>
	<circle cx="790.7" cy="86.5" r="9.5"/>
	<circle cx="806.2" cy="86.5" r="10"/>
	<circle cx="822.01" cy="86.5" r="10.5"/>
	<circle cx="837.83" cy="86.5" r="11"/>
	<circle cx="853.64" cy="86.5" r="11.5"/>
	<circle cx="869.45" cy="86.5" r="12"/>
	<circle cx="885.26" cy="86.5" r="12.5"/>
</g>
<g>
	<circle cx="565.32" cy="105" r="2.5"/>
	<circle cx="581.42" cy="105" r="3"/>
	<circle cx="597.52" cy="105" r="3.5"/>
	<circle cx="613.62" cy="105" r="4"/>
	<circle cx="629.71" cy="105" r="4.5"/>
	<circle cx="645.81" cy="105" r="5"/>
	<circle cx="661.91" cy="105" r="5.5"/>
	<circle cx="678.01" cy="105" r="6"/>
	<circle cx="694.11" cy="105" r="6.5"/>
	<circle cx="710.21" cy="105" r="7"/>
	<circle cx="726.3" cy="105" r="7.5"/>
	<circle cx="742.4" cy="105" r="8"/>
	<circle cx="758.5" cy="105" r="8.5"/>
	<circle cx="774.6" cy="105" r="9"/>
	<circle cx="790.7" cy="105" r="9.5"/>
	<circle cx="806.2" cy="105" r="10"/>
	<circle cx="822.01" cy="105" r="10.5"/>
	<circle cx="837.83" cy="105" r="11"/>
	<circle cx="853.64" cy="105" r="11.5"/>
	<circle cx="869.45" cy="105" r="12"/>
	<circle cx="885.26" cy="105" r="12.5"/>
</g>
<g>
	<circle cx="565.32" cy="123.5" r="2.5"/>
	<circle cx="581.42" cy="123.5" r="3"/>
	<circle cx="597.52" cy="123.5" r="3.5"/>
	<circle cx="613.62" cy="123.5" r="4"/>
	<circle cx="629.71" cy="123.5" r="4.5"/>
	<circle cx="645.81" cy="123.5" r="5"/>
	<circle cx="661.91" cy="123.5" r="5.5"/>
	<circle cx="678.01" cy="123.5" r="6"/>
	<circle cx="694.11" cy="123.5" r="6.5"/>
	<circle cx="710.21" cy="123.5" r="7"/>
	<circle cx="726.3" cy="123.5" r="7.5"/>
	<circle cx="742.4" cy="123.5" r="8"/>
	<circle cx="758.5" cy="123.5" r="8.5"/>
	<circle cx="774.6" cy="123.5" r="9"/>
	<circle cx="790.7" cy="123.5" r="9.5"/>
	<circle cx="806.2" cy="123.5" r="10"/>
	<circle cx="822.01" cy="123.5" r="10.5"/>
	<circle cx="837.83" cy="123.5" r="11"/>
	<circle cx="853.64" cy="123.5" r="11.5"/>
	<circle cx="869.45" cy="123.5" r="12"/>
	<circle cx="885.26" cy="123.5" r="12.5"/>
</g>
<g>
	<circle cx="565.32" cy="142" r="2.5"/>
	<circle cx="581.42" cy="142" r="3"/>
	<circle cx="597.52" cy="142" r="3.5"/>
	<circle cx="613.62" cy="142" r="4"/>
	<circle cx="629.71" cy="142" r="4.5"/>
	<circle cx="645.81" cy="142" r="5"/>
	<circle cx="661.91" cy="142" r="5.5"/>
	<circle cx="678.01" cy="142" r="6"/>
	<circle cx="694.11" cy="142" r="6.5"/>
	<circle cx="710.21" cy="142" r="7"/>
	<circle cx="726.3" cy="142" r="7.5"/>
	<circle cx="742.4" cy="142" r="8"/>
	<circle cx="758.5" cy="142" r="8.5"/>
	<circle cx="774.6" cy="142" r="9"/>
	<circle cx="790.7" cy="142" r="9.5"/>
	<circle cx="806.2" cy="142" r="10"/>
	<circle cx="822.01" cy="142" r="10.5"/>
	<circle cx="837.83" cy="142" r="11"/>
	<circle cx="853.64" cy="142" r="11.5"/>
	<circle cx="869.45" cy="142" r="12"/>
	<circle cx="885.26" cy="142" r="12.5"/>
</g>
<g>
	<circle cx="565.32" cy="160.5" r="2.5"/>
	<circle cx="581.42" cy="160.5" r="3"/>
	<circle cx="597.52" cy="160.5" r="3.5"/>
	<circle cx="613.62" cy="160.5" r="4"/>
	<circle cx="629.71" cy="160.5" r="4.5"/>
	<circle cx="645.81" cy="160.5" r="5"/>
	<circle cx="661.91" cy="160.5" r="5.5"/>
	<circle cx="678.01" cy="160.5" r="6"/>
	<circle cx="694.11" cy="160.5" r="6.5"/>
	<circle cx="710.21" cy="160.5" r="7"/>
	<circle cx="726.3" cy="160.5" r="7.5"/>
	<circle cx="742.4" cy="160.5" r="8"/>
	<circle cx="758.5" cy="160.5" r="8.5"/>
	<circle cx="774.6" cy="160.5" r="9"/>
	<circle cx="790.7" cy="160.5" r="9.5"/>
	<circle cx="806.2" cy="160.5" r="10"/>
	<circle cx="822.01" cy="160.5" r="10.5"/>
	<circle cx="837.83" cy="160.5" r="11"/>
	<circle cx="853.64" cy="160.5" r="11.5"/>
	<circle cx="869.45" cy="160.5" r="12"/>
	<circle cx="885.26" cy="160.5" r="12.5"/>
</g>
<g>
	<circle cx="565.32" cy="179" r="2.5"/>
	<circle cx="581.42" cy="179" r="3"/>
	<circle cx="597.52" cy="179" r="3.5"/>
	<circle cx="613.62" cy="179" r="4"/>
	<circle cx="629.71" cy="179" r="4.5"/>
	<circle cx="645.81" cy="179" r="5"/>
	<circle cx="661.91" cy="179" r="5.5"/>
	<circle cx="678.01" cy="179" r="6"/>
	<circle cx="694.11" cy="179" r="6.5"/>
	<circle cx="710.21" cy="179" r="7"/>
	<circle cx="726.3" cy="179" r="7.5"/>
	<circle cx="742.4" cy="179" r="8"/>
	<circle cx="758.5" cy="179" r="8.5"/>
	<circle cx="774.6" cy="179" r="9"/>
	<circle cx="790.7" cy="179" r="9.5"/>
	<circle cx="806.2" cy="179" r="10"/>
	<circle cx="822.01" cy="179" r="10.5"/>
	<circle cx="837.83" cy="179" r="11"/>
	<circle cx="853.64" cy="179" r="11.5"/>
	<circle cx="869.45" cy="179" r="12"/>
	<circle cx="885.26" cy="179" r="12.5"/>
</g>
<g>
	<circle cx="565.32" cy="197.5" r="2.5"/>
	<circle cx="581.42" cy="197.5" r="3"/>
	<circle cx="597.52" cy="197.5" r="3.5"/>
	<circle cx="613.62" cy="197.5" r="4"/>
	<circle cx="629.71" cy="197.5" r="4.5"/>
	<circle cx="645.81" cy="197.5" r="5"/>
	<circle cx="661.91" cy="197.5" r="5.5"/>
	<circle cx="678.01" cy="197.5" r="6"/>
	<circle cx="694.11" cy="197.5" r="6.5"/>
	<circle cx="710.21" cy="197.5" r="7"/>
	<circle cx="726.3" cy="197.5" r="7.5"/>
	<circle cx="742.4" cy="197.5" r="8"/>
	<circle cx="758.5" cy="197.5" r="8.5"/>
	<circle cx="774.6" cy="197.5" r="9"/>
	<circle cx="790.7" cy="197.5" r="9.5"/>
	<circle cx="806.2" cy="197.5" r="10"/>
	<circle cx="822.01" cy="197.5" r="10.5"/>
	<circle cx="837.83" cy="197.5" r="11"/>
	<circle cx="853.64" cy="197.5" r="11.5"/>
	<circle cx="869.45" cy="197.5" r="12"/>
	<circle cx="885.26" cy="197.5" r="12.5"/>
</g>
<g>
	<circle cx="565.32" cy="216" r="2.5"/>
	<circle cx="581.42" cy="216" r="3"/>
	<circle cx="597.52" cy="216" r="3.5"/>
	<circle cx="613.62" cy="216" r="4"/>
	<circle cx="629.71" cy="216" r="4.5"/>
	<circle cx="645.81" cy="216" r="5"/>
	<circle cx="661.91" cy="216" r="5.5"/>
	<circle cx="678.01" cy="216" r="6"/>
	<circle cx="694.11" cy="216" r="6.5"/>
	<circle cx="710.21" cy="216" r="7"/>
	<circle cx="726.3" cy="216" r="7.5"/>
	<circle cx="742.4" cy="216" r="8"/>
	<circle cx="758.5" cy="216" r="8.5"/>
	<circle cx="774.6" cy="216" r="9"/>
	<circle cx="790.7" cy="216" r="9.5"/>
	<circle cx="806.2" cy="216" r="10"/>
	<circle cx="822.01" cy="216" r="10.5"/>
	<circle cx="837.83" cy="216" r="11"/>
	<circle cx="853.64" cy="216" r="11.5"/>
	<circle cx="869.45" cy="216" r="12"/>
	<circle cx="885.26" cy="216" r="12.5"/>
</g>
<g>
	<circle cx="565.32" cy="234.5" r="2.5"/>
	<circle cx="581.42" cy="234.5" r="3"/>
	<circle cx="597.52" cy="234.5" r="3.5"/>
	<circle cx="613.62" cy="234.5" r="4"/>
	<circle cx="629.71" cy="234.5" r="4.5"/>
	<circle cx="645.81" cy="234.5" r="5"/>
	<circle cx="661.91" cy="234.5" r="5.5"/>
	<circle cx="678.01" cy="234.5" r="6"/>
	<circle cx="694.11" cy="234.5" r="6.5"/>
	<circle cx="710.21" cy="234.5" r="7"/>
	<circle cx="726.3" cy="234.5" r="7.5"/>
	<circle cx="742.4" cy="234.5" r="8"/>
	<circle cx="758.5" cy="234.5" r="8.5"/>
	<circle cx="774.6" cy="234.5" r="9"/>
	<circle cx="790.7" cy="234.5" r="9.5"/>
	<circle cx="806.2" cy="234.5" r="10"/>
	<circle cx="822.01" cy="234.5" r="10.5"/>
	<circle cx="837.83" cy="234.5" r="11"/>
	<circle cx="853.64" cy="234.5" r="11.5"/>
	<circle cx="869.45" cy="234.5" r="12"/>
	<circle cx="885.26" cy="234.5" r="12.5"/>
</g>
<g>
	<circle cx="565.32" cy="253" r="2.5"/>
	<circle cx="581.42" cy="253" r="3"/>
	<circle cx="597.52" cy="253" r="3.5"/>
	<circle cx="613.62" cy="253" r="4"/>
	<circle cx="629.71" cy="253" r="4.5"/>
	<circle cx="645.81" cy="253" r="5"/>
	<circle cx="661.91" cy="253" r="5.5"/>
	<circle cx="678.01" cy="253" r="6"/>
	<circle cx="694.11" cy="253" r="6.5"/>
	<circle cx="710.21" cy="253" r="7"/>
	<circle cx="726.3" cy="253" r="7.5"/>
	<circle cx="742.4" cy="253" r="8"/>
	<circle cx="758.5" cy="253" r="8.5"/>
	<circle cx="774.6" cy="253" r="9"/>
	<circle cx="790.7" cy="253" r="9.5"/>
	<circle cx="806.2" cy="253" r="10"/>
	<circle cx="822.01" cy="253" r="10.5"/>
	<circle cx="837.83" cy="253" r="11"/>
	<circle cx="853.64" cy="253" r="11.5"/>
	<circle cx="869.45" cy="253" r="12"/>
	<circle cx="885.26" cy="253" r="12.5"/>
</g>
<g>
	<circle cx="565.32" cy="271.5" r="2.5"/>
	<circle cx="581.42" cy="271.5" r="3"/>
	<circle cx="597.52" cy="271.5" r="3.5"/>
	<circle cx="613.62" cy="271.5" r="4"/>
	<circle cx="629.71" cy="271.5" r="4.5"/>
	<circle cx="645.81" cy="271.5" r="5"/>
	<circle cx="661.91" cy="271.5" r="5.5"/>
	<circle cx="678.01" cy="271.5" r="6"/>
	<circle cx="694.11" cy="271.5" r="6.5"/>
	<circle cx="710.21" cy="271.5" r="7"/>
	<circle cx="726.3" cy="271.5" r="7.5"/>
	<circle cx="742.4" cy="271.5" r="8"/>
	<circle cx="758.5" cy="271.5" r="8.5"/>
	<circle cx="774.6" cy="271.5" r="9"/>
	<circle cx="790.7" cy="271.5" r="9.5"/>
	<circle cx="806.2" cy="271.5" r="10"/>
	<circle cx="822.01" cy="271.5" r="10.5"/>
	<circle cx="837.83" cy="271.5" r="11"/>
	<circle cx="853.64" cy="271.5" r="11.5"/>
	<circle cx="869.45" cy="271.5" r="12"/>
	<circle cx="885.26" cy="271.5" r="12.5"/>
</g>
<g>
	<circle cx="565.32" cy="290" r="2.5"/>
	<circle cx="581.42" cy="290" r="3"/>
	<circle cx="597.52" cy="290" r="3.5"/>
	<circle cx="613.62" cy="290" r="4"/>
	<circle cx="629.71" cy="290" r="4.5"/>
	<circle cx="645.81" cy="290" r="5"/>
	<circle cx="661.91" cy="290" r="5.5"/>
	<circle cx="678.01" cy="290" r="6"/>
	<circle cx="694.11" cy="290" r="6.5"/>
	<circle cx="710.21" cy="290" r="7"/>
	<circle cx="726.3" cy="290" r="7.5"/>
	<circle cx="742.4" cy="290" r="8"/>
	<circle cx="758.5" cy="290" r="8.5"/>
	<circle cx="774.6" cy="290" r="9"/>
	<circle cx="790.7" cy="290" r="9.5"/>
	<circle cx="806.2" cy="290" r="10"/>
	<circle cx="822.01" cy="290" r="10.5"/>
	<circle cx="837.83" cy="290" r="11"/>
	<circle cx="853.64" cy="290" r="11.5"/>
	<circle cx="869.45" cy="290" r="12"/>
	<circle cx="885.26" cy="290" r="12.5"/>
</g>
<g>
	<circle cx="565.32" cy="308.5" r="2.5"/>
	<circle cx="581.42" cy="308.5" r="3"/>
	<circle cx="597.52" cy="308.5" r="3.5"/>
	<circle cx="613.62" cy="308.5" r="4"/>
	<circle cx="629.71" cy="308.5" r="4.5"/>
	<circle cx="645.81" cy="308.5" r="5"/>
	<circle cx="661.91" cy="308.5" r="5.5"/>
	<circle cx="678.01" cy="308.5" r="6"/>
	<circle cx="694.11" cy="308.5" r="6.5"/>
	<circle cx="710.21" cy="308.5" r="7"/>
	<circle cx="726.3" cy="308.5" r="7.5"/>
	<circle cx="742.4" cy="308.5" r="8"/>
	<circle cx="758.5" cy="308.5" r="8.5"/>
	<circle cx="774.6" cy="308.5" r="9"/>
	<circle cx="790.7" cy="308.5" r="9.5"/>
	<circle cx="806.2" cy="308.5" r="10"/>
	<circle cx="822.01" cy="308.5" r="10.5"/>
	<circle cx="837.83" cy="308.5" r="11"/>
	<circle cx="853.64" cy="308.5" r="11.5"/>
	<circle cx="869.45" cy="308.5" r="12"/>
	<circle cx="885.26" cy="308.5" r="12.5"/>
</g>
<g>
	<circle cx="565.32" cy="327" r="2.5"/>
	<circle cx="581.42" cy="327" r="3"/>
	<circle cx="597.52" cy="327" r="3.5"/>
	<circle cx="613.62" cy="327" r="4"/>
	<circle cx="629.71" cy="327" r="4.5"/>
	<circle cx="645.81" cy="327" r="5"/>
	<circle cx="661.91" cy="327" r="5.5"/>
	<circle cx="678.01" cy="327" r="6"/>
	<circle cx="694.11" cy="327" r="6.5"/>
	<circle cx="710.21" cy="327" r="7"/>
	<circle cx="726.3" cy="327" r="7.5"/>
	<circle cx="742.4" cy="327" r="8"/>
	<circle cx="758.5" cy="327" r="8.5"/>
	<circle cx="774.6" cy="327" r="9"/>
	<circle cx="790.7" cy="327" r="9.5"/>
	<circle cx="806.2" cy="327" r="10"/>
	<circle cx="822.01" cy="327" r="10.5"/>
	<circle cx="837.83" cy="327" r="11"/>
	<circle cx="853.64" cy="327" r="11.5"/>
	<circle cx="869.45" cy="327" r="12"/>
	<circle cx="885.26" cy="327" r="12.5"/>
</g>
<g>
	<circle cx="565.32" cy="345.5" r="2.5"/>
	<circle cx="581.42" cy="345.5" r="3"/>
	<circle cx="597.52" cy="345.5" r="3.5"/>
	<circle cx="613.62" cy="345.5" r="4"/>
	<circle cx="629.71" cy="345.5" r="4.5"/>
	<circle cx="645.81" cy="345.5" r="5"/>
	<circle cx="661.91" cy="345.5" r="5.5"/>
	<circle cx="678.01" cy="345.5" r="6"/>
	<circle cx="694.11" cy="345.5" r="6.5"/>
	<circle cx="710.21" cy="345.5" r="7"/>
	<circle cx="726.3" cy="345.5" r="7.5"/>
	<circle cx="742.4" cy="345.5" r="8"/>
	<circle cx="758.5" cy="345.5" r="8.5"/>
	<circle cx="774.6" cy="345.5" r="9"/>
	<circle cx="790.7" cy="345.5" r="9.5"/>
	<circle cx="806.2" cy="345.5" r="10"/>
	<circle cx="822.01" cy="345.5" r="10.5"/>
	<circle cx="837.83" cy="345.5" r="11"/>
	<circle cx="853.64" cy="345.5" r="11.5"/>
	<circle cx="869.45" cy="345.5" r="12"/>
	<circle cx="885.26" cy="345.5" r="12.5"/>
</g>
<g>
	<circle cx="565.32" cy="364" r="2.5"/>
	<circle cx="581.42" cy="364" r="3"/>
	<circle cx="597.52" cy="364" r="3.5"/>
	<circle cx="613.62" cy="364" r="4"/>
	<circle cx="629.71" cy="364" r="4.5"/>
	<circle cx="645.81" cy="364" r="5"/>
	<circle cx="661.91" cy="364" r="5.5"/>
	<circle cx="678.01" cy="364" r="6"/>
	<circle cx="694.11" cy="364" r="6.5"/>
	<circle cx="710.21" cy="364" r="7"/>
	<circle cx="726.3" cy="364" r="7.5"/>
	<circle cx="742.4" cy="364" r="8"/>
	<circle cx="758.5" cy="364" r="8.5"/>
	<circle cx="774.6" cy="364" r="9"/>
	<circle cx="790.7" cy="364" r="9.5"/>
	<circle cx="806.2" cy="364" r="10"/>
	<circle cx="822.01" cy="364" r="10.5"/>
	<circle cx="837.83" cy="364" r="11"/>
	<circle cx="853.64" cy="364" r="11.5"/>
	<circle cx="869.45" cy="364" r="12"/>
	<circle cx="885.26" cy="364" r="12.5"/>
</g>
<g>
	<circle cx="565.32" cy="382.5" r="2.5"/>
	<circle cx="581.42" cy="382.5" r="3"/>
	<circle cx="597.52" cy="382.5" r="3.5"/>
	<circle cx="613.62" cy="382.5" r="4"/>
	<circle cx="629.71" cy="382.5" r="4.5"/>
	<circle cx="645.81" cy="382.5" r="5"/>
	<circle cx="661.91" cy="382.5" r="5.5"/>
	<circle cx="678.01" cy="382.5" r="6"/>
	<circle cx="694.11" cy="382.5" r="6.5"/>
	<circle cx="710.21" cy="382.5" r="7"/>
	<circle cx="726.3" cy="382.5" r="7.5"/>
	<circle cx="742.4" cy="382.5" r="8"/>
	<circle cx="758.5" cy="382.5" r="8.5"/>
	<circle cx="774.6" cy="382.5" r="9"/>
	<circle cx="790.7" cy="382.5" r="9.5"/>
	<circle cx="806.2" cy="382.5" r="10"/>
	<circle cx="822.01" cy="382.5" r="10.5"/>
	<circle cx="837.83" cy="382.5" r="11"/>
	<circle cx="853.64" cy="382.5" r="11.5"/>
	<circle cx="869.45" cy="382.5" r="12"/>
	<circle cx="885.26" cy="382.5" r="12.5"/>
</g>
<g>
	<circle cx="565.32" cy="401" r="2.5"/>
	<circle cx="581.42" cy="401" r="3"/>
	<circle cx="597.52" cy="401" r="3.5"/>
	<circle cx="613.62" cy="401" r="4"/>
	<circle cx="629.71" cy="401" r="4.5"/>
	<circle cx="645.81" cy="401" r="5"/>
	<circle cx="661.91" cy="401" r="5.5"/>
	<circle cx="678.01" cy="401" r="6"/>
	<circle cx="694.11" cy="401" r="6.5"/>
	<circle cx="710.21" cy="401" r="7"/>
	<circle cx="726.3" cy="401" r="7.5"/>
	<circle cx="742.4" cy="401" r="8"/>
	<circle cx="758.5" cy="401" r="8.5"/>
	<circle cx="774.6" cy="401" r="9"/>
	<circle cx="790.7" cy="401" r="9.5"/>
	<circle cx="806.2" cy="401" r="10"/>
	<circle cx="822.01" cy="401" r="10.5"/>
	<circle cx="837.83" cy="401" r="11"/>
	<circle cx="853.64" cy="401" r="11.5"/>
	<circle cx="869.45" cy="401" r="12"/>
	<circle cx="885.26" cy="401" r="12.5"/>
</g>
<g>
	<circle cx="565.32" cy="419.5" r="2.5"/>
	<circle cx="581.42" cy="419.5" r="3"/>
	<circle cx="597.52" cy="419.5" r="3.5"/>
	<circle cx="613.62" cy="419.5" r="4"/>
	<circle cx="629.71" cy="419.5" r="4.5"/>
	<circle cx="645.81" cy="419.5" r="5"/>
	<circle cx="661.91" cy="419.5" r="5.5"/>
	<circle cx="678.01" cy="419.5" r="6"/>
	<circle cx="694.11" cy="419.5" r="6.5"/>
	<circle cx="710.21" cy="419.5" r="7"/>
	<circle cx="726.3" cy="419.5" r="7.5"/>
	<circle cx="742.4" cy="419.5" r="8"/>
	<circle cx="758.5" cy="419.5" r="8.5"/>
	<circle cx="774.6" cy="419.5" r="9"/>
	<circle cx="790.7" cy="419.5" r="9.5"/>
	<circle cx="806.2" cy="419.5" r="10"/>
	<circle cx="822.01" cy="419.5" r="10.5"/>
	<circle cx="837.83" cy="419.5" r="11"/>
	<circle cx="853.64" cy="419.5" r="11.5"/>
	<circle cx="869.45" cy="419.5" r="12"/>
	<circle cx="885.26" cy="419.5" r="12.5"/>
</g>
<g>
	<circle cx="565.32" cy="438" r="2.5"/>
	<circle cx="581.42" cy="438" r="3"/>
	<circle cx="597.52" cy="438" r="3.5"/>
	<circle cx="613.62" cy="438" r="4"/>
	<circle cx="629.71" cy="438" r="4.5"/>
	<circle cx="645.81" cy="438" r="5"/>
	<circle cx="661.91" cy="438" r="5.5"/>
	<circle cx="678.01" cy="438" r="6"/>
	<circle cx="694.11" cy="438" r="6.5"/>
	<circle cx="710.21" cy="438" r="7"/>
	<circle cx="726.3" cy="438" r="7.5"/>
	<circle cx="742.4" cy="438" r="8"/>
	<circle cx="758.5" cy="438" r="8.5"/>
	<circle cx="774.6" cy="438" r="9"/>
	<circle cx="790.7" cy="438" r="9.5"/>
	<circle cx="806.2" cy="438" r="10"/>
	<circle cx="822.01" cy="438" r="10.5"/>
	<circle cx="837.83" cy="438" r="11"/>
	<circle cx="853.64" cy="438" r="11.5"/>
	<circle cx="869.45" cy="438" r="12"/>
	<circle cx="885.26" cy="438" r="12.5"/>
</g>
<rect x="885.26" width="1245.36" height="450.5"/>
<g>
	<path d="M565.39,453.75c-1.38,0-2.5,1.12-2.5,2.5h5C567.89,454.87,566.77,453.75,565.39,453.75z"/>
	<path d="M581.49,453.25c-1.66,0-3,1.34-3,3h6C584.49,454.59,583.14,453.25,581.49,453.25z"/>
	<path d="M597.59,452.75c-1.93,0-3.5,1.57-3.5,3.5h7C601.09,454.32,599.52,452.75,597.59,452.75z"/>
	<path d="M613.68,452.25c-2.21,0-4,1.79-4,4h8C617.68,454.04,615.89,452.25,613.68,452.25z"/>
	<path d="M629.78,451.75c-2.49,0-4.5,2.01-4.5,4.5h9C634.28,453.76,632.27,451.75,629.78,451.75z"/>
	<path d="M645.88,451.25c-2.76,0-5,2.24-5,5h10C650.88,453.49,648.64,451.25,645.88,451.25z"/>
	<path d="M661.98,450.75c-3.04,0-5.5,2.46-5.5,5.5h11C667.48,453.21,665.02,450.75,661.98,450.75z"/>
	<path d="M678.08,450.25c-3.31,0-6,2.69-6,6h12C684.08,452.94,681.39,450.25,678.08,450.25z"/>
	<path d="M694.18,449.75c-3.59,0-6.5,2.91-6.5,6.5h13C700.68,452.66,697.77,449.75,694.18,449.75z"/>
	<path d="M710.27,449.25c-3.87,0-7,3.13-7,7h14C717.27,452.38,714.14,449.25,710.27,449.25z"/>
	<path d="M726.37,448.75c-4.14,0-7.5,3.36-7.5,7.5h15C733.87,452.11,730.52,448.75,726.37,448.75z"/>
	<path d="M885.33,443.75c-3.18,0-6.08,1.2-8.29,3.16c-2.06-1.66-4.67-2.66-7.53-2.66c-3.21,0-6.12,1.27-8.28,3.33
		c-2.02-1.76-4.65-2.83-7.53-2.83c-3.25,0-6.17,1.35-8.26,3.51c-1.97-1.86-4.62-3.01-7.55-3.01c-3.29,0-6.23,1.45-8.24,3.73
		c-1.91-1.99-4.59-3.23-7.57-3.23c-3.34,0-6.31,1.56-8.23,3.99c-1.83-2.13-4.55-3.49-7.58-3.49c-3.31,0-6.24,1.62-8.06,4.1
		c-1.74-2.19-4.42-3.6-7.44-3.6c-3.6,0-6.73,2-8.34,4.95c-1.56-2.66-4.45-4.45-7.76-4.45c-3.76,0-6.97,2.3-8.32,5.58
		c-1.32-2.99-4.3-5.08-7.78-5.08c-4.08,0-7.48,2.87-8.31,6.71c-0.81-3.55-3.99-6.21-7.79-6.21c-4.42,0-8,3.58-8,8h163.36
		C897.83,449.35,892.23,443.75,885.33,443.75z"/>
</g>
<g>
	<path d="M565.39-3.75c-1.38,0-2.5-1.12-2.5-2.5h5C567.89-4.87,566.77-3.75,565.39-3.75z"/>
	<path d="M581.49-3.25c-1.66,0-3-1.34-3-3h6C584.49-4.59,583.14-3.25,581.49-3.25z"/>
	<path d="M597.59-2.75c-1.93,0-3.5-1.57-3.5-3.5h7C601.09-4.32,599.52-2.75,597.59-2.75z"/>
	<path d="M613.68-2.25c-2.21,0-4-1.79-4-4h8C617.68-4.04,615.89-2.25,613.68-2.25z"/>
	<path d="M629.78-1.75c-2.49,0-4.5-2.01-4.5-4.5h9C634.28-3.76,632.27-1.75,629.78-1.75z"/>
	<path d="M645.88-1.25c-2.76,0-5-2.24-5-5h10C650.88-3.49,648.64-1.25,645.88-1.25z"/>
	<path d="M661.98-0.75c-3.04,0-5.5-2.46-5.5-5.5h11C667.48-3.21,665.02-0.75,661.98-0.75z"/>
	<path d="M678.08-0.25c-3.31,0-6-2.69-6-6h12C684.08-2.94,681.39-0.25,678.08-0.25z"/>
	<path d="M694.18,0.25c-3.59,0-6.5-2.91-6.5-6.5h13C700.68-2.66,697.77,0.25,694.18,0.25z"/>
	<path d="M710.27,0.75c-3.87,0-7-3.13-7-7h14C717.27-2.38,714.14,0.75,710.27,0.75z"/>
	<path d="M726.37,1.25c-4.14,0-7.5-3.36-7.5-7.5h15C733.87-2.11,730.52,1.25,726.37,1.25z"/>
	<path d="M885.33,6.25c-3.18,0-6.08-1.2-8.29-3.16c-2.06,1.66-4.67,2.66-7.53,2.66c-3.21,0-6.12-1.27-8.28-3.33
		c-2.02,1.76-4.65,2.83-7.53,2.83c-3.25,0-6.17-1.35-8.26-3.51c-1.97,1.86-4.62,3.01-7.55,3.01c-3.29,0-6.23-1.45-8.24-3.73
		c-1.91,1.99-4.59,3.23-7.57,3.23c-3.34,0-6.31-1.56-8.23-3.99c-1.83,2.13-4.55,3.49-7.58,3.49c-3.31,0-6.24-1.62-8.06-4.1
		c-1.74,2.19-4.42,3.6-7.44,3.6c-3.6,0-6.73-2-8.34-4.95c-1.56,2.66-4.45,4.45-7.76,4.45c-3.76,0-6.97-2.3-8.32-5.58
		c-1.32,2.99-4.3,5.08-7.78,5.08c-4.08,0-7.48-2.87-8.31-6.71c-0.81,3.55-3.99,6.21-7.79,6.21c-4.42,0-8-3.58-8-8h163.36
		C897.83,0.65,892.23,6.25,885.33,6.25z"/>
</g>
</svg>
