<?xml version="1.0" encoding="utf-8"?>
<!-- Generator: Adobe Illustrator 27.3.1, SVG Export Plug-In . SVG Version: 6.00 Build 0)  -->
<svg version="1.1" xmlns="http://www.w3.org/2000/svg" xmlns:xlink="http://www.w3.org/1999/xlink" x="0px" y="0px"
	 viewBox="0 0 1000 1000" style="enable-background:new 0 0 1000 1000;" xml:space="preserve">
<style type="text/css">
	.st0{fill:#3E4546;}
	.st1{fill:#90A6B4;}
	.st2{fill:#BC3E30;}
	.st3{fill:#EDF5F7;}
	.st4{fill:#DC544F;}
	.st5{fill:none;}
</style>
<g id="BG">
</g>
<g id="Object">
	<g>
		<g>
			<path class="st0" d="M477.3,53l7.2,0.1c0.4,0,0.7,0.3,0.7,0.7c0,0.4-0.3,0.7-0.7,0.7l-7.2-0.1c-0.4,0-0.7-0.3-0.7-0.7
				C476.6,53.3,476.9,53,477.3,53z"/>
		</g>
		<g>
			<path class="st0" d="M441.9,46.8l34.5,0.4c0.5,0,0.9,0.4,0.9,1l-0.1,11.1c0,0.5-0.4,0.9-1,0.9l-34.5-0.4c-0.5,0-0.9-0.4-0.9-1
				l0.1-11.1C440.9,47.2,441.4,46.8,441.9,46.8z"/>
		</g>
		<path class="st1" d="M442.1,54l4.7,0.1l-0.1,5.8l0,0l1.4,0v0l0.1-5.8l5,0.1l-0.1,5.8v0l1.4,0v0l0.1-5.8l5,0.1l-0.1,5.8v0l1.4,0v0
			l0.1-5.8l5,0.1l-0.1,5.8v0l1.4,0v0l0.1-5.8l5,0.1l-0.1,5.8l0,0l1.4,0l0,0l0.1-5.8l3.5,0l0,0l0-1.4l0,0l-3.5,0l0.1-5.8v0l-1.4,0v0
			l-0.1,5.8l-5-0.1l0.1-5.8v0l-1.4,0v0l-0.1,5.8l-5-0.1l0.1-5.8v0l-1.4,0v0l-0.1,5.8l-5-0.1l0.1-5.8v0l-1.4,0v0l-0.1,5.8l-5-0.1
			l0.1-5.8v0l-1.4,0l0,0l-0.1,5.8l-4.7-0.1c-0.4,0-0.7,0.3-0.7,0.7C441.4,53.7,441.7,54,442.1,54z"/>
		<g>
			<path class="st2" d="M441.7,59.8l1.5,0l0.2-13l-1.5,0c-0.5,0-1,0.4-1,0.9l-0.1,11.1C440.8,59.3,441.2,59.8,441.7,59.8z"/>
		</g>
		<g>
			<path class="st0" d="M504.7,53.3l7.2,0.1c0.4,0,0.7,0.3,0.7,0.7c0,0.4-0.3,0.7-0.7,0.7l-7.2-0.1c-0.4,0-0.7-0.3-0.7-0.7
				C504,53.6,504.3,53.3,504.7,53.3z"/>
		</g>
		<g>
			<path class="st0" d="M547.2,61l-34.5-0.4c-0.5,0-0.9-0.4-0.9-1l0.1-11.1c0-0.5,0.4-0.9,1-0.9l34.5,0.4c0.5,0,0.9,0.4,0.9,1
				l-0.1,11.1C548.2,60.6,547.8,61,547.2,61z"/>
		</g>
		<path class="st1" d="M511.9,54.8l3.5,0l-0.1,5.8v0l1.4,0v0l0.1-5.8l5,0.1l-0.1,5.8l0,0l1.4,0v0l0.1-5.8l5,0.1l-0.1,5.8v0l1.4,0v0
			l0.1-5.8l5,0.1l-0.1,5.8v0l1.4,0v0l0.1-5.8l5,0.1l-0.1,5.8v0l1.4,0v0l0.1-5.8l4.7,0.1c0.4,0,0.7-0.3,0.7-0.7
			c0-0.4-0.3-0.7-0.7-0.7l-4.7-0.1l0.1-5.8v0l-1.4,0v0l-0.1,5.8l-5-0.1l0.1-5.8v0l-1.4,0v0l-0.1,5.8l-5-0.1l0.1-5.8v0l-1.4,0v0
			l-0.1,5.8l-5-0.1l0.1-5.8v0l-1.4,0v0l-0.1,5.8l-5-0.1l0.1-5.8v0l-1.4,0v0l-0.1,5.8l-3.5,0L511.9,54.8z"/>
		<g>
			<path class="st2" d="M547.4,48l-1.5,0l-0.2,13l1.5,0c0.5,0,1-0.4,1-0.9l0.1-11.1C548.4,48.5,547.9,48,547.4,48z"/>
		</g>
		<g>
			<path class="st3" d="M485,35.1l19.5,0.2c1.7,0,3.1,1.4,3.1,3.2l-0.3,25.3c0,1.7-1.4,3.1-3.2,3.1l-19.5-0.2
				c-1.7,0-3.1-1.4-3.1-3.2l0.3-25.3C481.9,36.4,483.3,35,485,35.1z"/>
		</g>
		<g>
			
				<rect x="478.8" y="50.2" transform="matrix(1.189445e-02 -0.9999 0.9999 1.189445e-02 437.7847 544.9138)" class="st1" width="31.6" height="1.4"/>
		</g>
		<g>
			
				<rect x="481.7" y="48.5" transform="matrix(-0.9999 -1.190152e-02 1.190152e-02 -0.9999 988.472 113.6886)" class="st2" width="25.8" height="10.8"/>
		</g>
		<g>
			<path class="st0" d="M490.8,32.1l8.1,0.1c1.6,0,3,1.4,2.9,3v0l-14-0.2v0C487.8,33.4,489.2,32.1,490.8,32.1z"/>
		</g>
		<g>
			<path class="st1" d="M488.5,62l12,0.1c0.4,0,0.7,0.3,0.7,0.7c0,0.4-0.3,0.7-0.7,0.7l-12-0.1c-0.4,0-0.7-0.3-0.7-0.7
				C487.8,62.3,488.1,62,488.5,62z"/>
		</g>
		<g>
			<path class="st0" d="M498.4,69.7l-8.1-0.1c-1.6,0-3-1.4-2.9-3l0,0l14,0.2l0,0C501.4,68.4,500.1,69.8,498.4,69.7z"/>
		</g>
		<g>
			<g>
				<g>
					<g>
						
							<ellipse transform="matrix(1.190152e-02 -0.9999 0.9999 1.190152e-02 411.7384 570.006)" class="st3" cx="494.3" cy="76.7" rx="4.2" ry="17.3"/>
					</g>
				</g>
			</g>
			<g>
				<g>
					<path class="st0" d="M494.3,72.4c9.5,0.1,17.3,2.1,17.2,4.5c0-3.9-7.6-8-17.2-8.1S477,72.5,477,76.5
						C477,74.1,484.8,72.3,494.3,72.4z"/>
				</g>
			</g>
		</g>
		<g>
			<path class="st1" d="M494.3,74.8c0.4,0,0.7,0.3,0.7,0.7l-0.1,8.8c0,0.4-0.3,0.7-0.7,0.7c-0.4,0-0.7-0.3-0.7-0.7l0.1-8.8
				C493.6,75.1,493.9,74.7,494.3,74.8z"/>
		</g>
		<g>
			
				<ellipse transform="matrix(0.7155 -0.6986 0.6986 0.7155 81.5084 369.3316)" class="st4" cx="494.2" cy="84.6" rx="2.1" ry="2.1"/>
		</g>
	</g>
	<g>
		<g>
			<path class="st0" d="M800,169.7l5,5.2c0.3,0.3,0.3,0.7,0,1c-0.3,0.3-0.7,0.3-1,0l-5-5.2c-0.3-0.3-0.3-0.7,0-1
				C799.3,169.4,799.7,169.4,800,169.7z"/>
		</g>
		<g>
			<path class="st0" d="M779.7,140.1l23.8,25c0.4,0.4,0.3,1,0,1.3l-8,7.7c-0.4,0.4-1,0.3-1.3,0l-23.8-25c-0.4-0.4-0.3-1,0-1.3l8-7.7
				C778.8,139.7,779.4,139.7,779.7,140.1z"/>
		</g>
		<path class="st1" d="M774.7,145.3l3.3,3.4l-4.2,4l0,0l1,1l0,0l4.2-4l3.4,3.6l-4.2,4l0,0l1,1v0l4.2-4l3.4,3.6l-4.2,4l0,0l1,1l0,0
			l4.2-4l3.4,3.6l-4.2,4l0,0l1,1v0l4.2-4l3.4,3.6l-4.2,4v0l1,1l0,0l4.2-4l2.4,2.5l0,0l1-1l0,0l-2.4-2.5l4.2-4l0,0l-1-1v0l-4.2,4
			l-3.4-3.6l4.2-4l0,0l-1-1l0,0l-4.2,4l-3.4-3.6l4.2-4l0,0l-1-1l0,0l-4.2,4l-3.4-3.6l4.2-4v0l-1-1l0,0l-4.2,4l-3.4-3.6l4.2-4l0,0
			l-1-1l0,0l-4.2,4l-3.3-3.4c-0.3-0.3-0.7-0.3-1,0C774.5,144.5,774.5,145,774.7,145.3z"/>
		<g>
			<path class="st2" d="M770.3,149l1.1,1.1l9.4-9l-1.1-1.1c-0.4-0.4-1-0.4-1.3,0l-8,7.7C770,148.1,769.9,148.7,770.3,149z"/>
		</g>
		<g>
			<path class="st0" d="M818.9,189.6l5,5.2c0.3,0.3,0.3,0.7,0,1c-0.3,0.3-0.7,0.3-1,0l-5-5.2c-0.3-0.3-0.3-0.7,0-1
				C818.2,189.3,818.6,189.3,818.9,189.6z"/>
		</g>
		<g>
			<path class="st0" d="M843.1,225.4l-23.8-25c-0.4-0.4-0.3-1,0-1.3l8-7.7c0.4-0.4,1-0.3,1.3,0l23.8,25c0.4,0.4,0.3,1,0,1.3l-8,7.7
				C844.1,225.8,843.5,225.8,843.1,225.4z"/>
		</g>
		<path class="st1" d="M822.9,195.7l2.4,2.5l-4.2,4l0,0l1,1v0l4.2-4l3.4,3.6l-4.2,4l0,0l1,1l0,0l4.2-4l3.4,3.6l-4.2,4l0,0l1,1l0,0
			l4.2-4l3.4,3.6l-4.2,4l0,0l1,1l0,0l4.2-4l3.4,3.6l-4.2,4l0,0l1,1l0,0l4.2-4l3.3,3.4c0.3,0.3,0.7,0.3,1,0c0.3-0.3,0.3-0.7,0-1
			l-3.3-3.4l4.2-4l0,0l-1-1l0,0l-4.2,4l-3.4-3.6l4.2-4l0,0l-1-1v0l-4.2,4l-3.4-3.6l4.2-4l0,0l-1-1l0,0l-4.2,4l-3.4-3.6l4.2-4l0,0
			l-1-1l0,0l-4.2,4l-3.4-3.6l4.2-4v0l-1-1l0,0l-4.2,4l-2.4-2.5L822.9,195.7z"/>
		<g>
			<path class="st2" d="M852.5,216.4l-1.1-1.1l-9.4,9l1.1,1.1c0.4,0.4,1,0.4,1.3,0l8-7.7C852.9,217.4,852.9,216.8,852.5,216.4z"/>
		</g>
		<g>
			<path class="st3" d="M818.3,162.7l13.5,14.1c1.2,1.3,1.1,3.2-0.1,4.4l-18.3,17.5c-1.3,1.2-3.2,1.1-4.4-0.1l-13.5-14.1
				c-1.2-1.3-1.1-3.2,0.1-4.4l18.3-17.5C815.1,161.4,817.1,161.5,818.3,162.7z"/>
		</g>
		<g>
			
				<rect x="797.8" y="180" transform="matrix(0.7237 -0.6901 0.6901 0.7237 100.0694 611.3505)" class="st1" width="31.6" height="1.4"/>
		</g>
		<g>
			
				<rect x="798.5" y="177.4" transform="matrix(-0.6901 -0.7237 0.7237 -0.6901 1239.1255 896.1004)" class="st2" width="25.8" height="10.8"/>
		</g>
		<g>
			<path class="st0" d="M824.4,164.8l5.6,5.8c1.1,1.2,1.1,3.1-0.1,4.2l0,0l-9.7-10.1l0,0C821.3,163.6,823.2,163.6,824.4,164.8z"/>
		</g>
		<g>
			<path class="st1" d="M801.4,184l8.3,8.7c0.3,0.3,0.3,0.7,0,1c-0.3,0.3-0.7,0.3-1,0l-8.3-8.7c-0.3-0.3-0.3-0.7,0-1
				S801.1,183.8,801.4,184z"/>
		</g>
		<g>
			<path class="st0" d="M802.8,196.6l-5.6-5.8c-1.1-1.2-1.1-3.1,0.1-4.2l0,0l9.7,10.1l0,0C805.8,197.8,803.9,197.7,802.8,196.6z"/>
		</g>
		<g>
			<g>
				<g>
					<g>
						
							<ellipse transform="matrix(0.7237 -0.6901 0.6901 0.7237 82.6778 603.389)" class="st3" cx="794.9" cy="198.4" rx="4.2" ry="17.3"/>
					</g>
				</g>
			</g>
			<g>
				<g>
					<path class="st0" d="M798,195.5c6.6,6.9,10.6,13.8,8.9,15.4c2.9-2.7,0.4-11-6.2-18c-6.6-6.9-14.8-9.8-17.6-7.1
						C784.7,184.3,791.4,188.6,798,195.5z"/>
				</g>
			</g>
		</g>
		<g>
			<path class="st1" d="M796.3,197.1c0.3,0.3,0.3,0.7,0,1l-6.4,6.1c-0.3,0.3-0.7,0.3-1,0s-0.3-0.7,0-1l6.4-6.1
				C795.6,196.8,796.1,196.8,796.3,197.1z"/>
		</g>
		<g>
			
				<ellipse transform="matrix(2.380148e-02 -0.9997 0.9997 2.380148e-02 566.5699 988.0302)" class="st4" cx="789.2" cy="203.9" rx="2.1" ry="2.1"/>
		</g>
	</g>
	<g>
		<g>
			<path class="st0" d="M853.7,766.1l-4.6,5.5c-0.2,0.3-0.7,0.3-1,0.1c-0.3-0.2-0.3-0.7-0.1-1l4.6-5.5c0.2-0.3,0.7-0.3,1-0.1
				C853.9,765.3,853.9,765.8,853.7,766.1z"/>
		</g>
		<g>
			<path class="st0" d="M880.9,742.6l-22.1,26.5c-0.3,0.4-0.9,0.5-1.3,0.1l-8.5-7.1c-0.4-0.3-0.5-0.9-0.1-1.3l22.1-26.5
				c0.3-0.4,0.9-0.5,1.3-0.1l8.5,7.1C881.2,741.6,881.2,742.2,880.9,742.6z"/>
		</g>
		<path class="st1" d="M875.2,738.2l-3,3.6l-4.5-3.7v0l-0.9,1.1l0,0l4.5,3.7l-3.2,3.8l-4.5-3.7l0,0l-0.9,1.1l0,0l4.5,3.7l-3.2,3.8
			l-4.5-3.7l0,0l-0.9,1.1l0,0l4.5,3.7l-3.2,3.8l-4.5-3.7h0l-0.9,1.1h0l4.5,3.7l-3.2,3.8l-4.5-3.7l0,0l-0.9,1.1l0,0l4.5,3.7l-2.2,2.7
			l0,0l1.1,0.9l0,0l2.2-2.7l4.5,3.7l0,0l0.9-1.1l0,0l-4.5-3.7l3.2-3.8l4.5,3.7l0,0l0.9-1.1l0,0l-4.5-3.7l3.2-3.8l4.5,3.7h0l0.9-1.1
			h0l-4.5-3.7l3.2-3.8l4.5,3.7h0l0.9-1.1l0,0l-4.5-3.7l3.2-3.8l4.5,3.7l0,0l0.9-1.1l0,0l-4.5-3.7l3-3.6c0.2-0.3,0.2-0.7-0.1-1
			S875.4,737.9,875.2,738.2z"/>
		<g>
			<path class="st2" d="M870.9,734.2l-1,1.2l10,8.4l1-1.2c0.3-0.4,0.3-1-0.1-1.3l-8.5-7.1C871.8,733.8,871.2,733.8,870.9,734.2z"/>
		</g>
		<g>
			<path class="st0" d="M836.1,787.1l-4.6,5.5c-0.2,0.3-0.7,0.3-1,0.1c-0.3-0.2-0.3-0.7-0.1-1l4.6-5.5c0.2-0.3,0.7-0.3,1-0.1
				S836.4,786.8,836.1,787.1z"/>
		</g>
		<g>
			<path class="st0" d="M803.2,815.2l22.1-26.5c0.3-0.4,0.9-0.5,1.3-0.1l8.5,7.1c0.4,0.3,0.5,0.9,0.1,1.3l-22.1,26.5
				c-0.3,0.4-0.9,0.5-1.3,0.1l-8.5-7.1C802.9,816.2,802.9,815.6,803.2,815.2z"/>
		</g>
		<path class="st1" d="M830.4,791.7l-2.2,2.7l-4.5-3.7l0,0l-0.9,1.1l0,0l4.5,3.7l-3.2,3.8l-4.5-3.7h0l-0.9,1.1l0,0l4.5,3.7l-3.2,3.8
			l-4.5-3.7h0l-0.9,1.1l0,0l4.5,3.7l-3.2,3.8l-4.5-3.7l0,0l-0.9,1.1l0,0l4.5,3.7l-3.2,3.8l-4.5-3.7l0,0l-0.9,1.1v0l4.5,3.7l-3,3.6
			c-0.2,0.3-0.2,0.7,0.1,1c0.3,0.2,0.7,0.2,1-0.1l3-3.6l4.5,3.7l0,0l0.9-1.1l0,0l-4.5-3.7l3.2-3.8l4.5,3.7l0,0l0.9-1.1l0,0L817,810
			l3.2-3.8l4.5,3.7v0l0.9-1.1l0,0l-4.5-3.7l3.2-3.8l4.5,3.7h0l0.9-1.1l0,0l-4.5-3.7l3.2-3.8l4.5,3.7l0,0l0.9-1.1h0l-4.5-3.7l2.2-2.7
			L830.4,791.7z"/>
		<g>
			<path class="st2" d="M813.2,823.5l1-1.2l-10-8.4l-1,1.2c-0.3,0.4-0.3,1,0.1,1.3l8.5,7.1C812.3,824,812.9,823.9,813.2,823.5z"/>
		</g>
		<g>
			<path class="st3" d="M862.7,783.4l-12.5,15c-1.1,1.3-3.1,1.5-4.4,0.4l-19.4-16.2c-1.3-1.1-1.5-3.1-0.4-4.4l12.5-15
				c1.1-1.3,3.1-1.5,4.4-0.4l19.4,16.2C863.6,780.1,863.8,782.1,862.7,783.4z"/>
		</g>
		<g>
			
				<rect x="843.6" y="765" transform="matrix(0.6412 -0.7673 0.7673 0.6412 -296.2188 927.9888)" class="st1" width="1.4" height="31.6"/>
		</g>
		<g>
			
				<rect x="829.2" y="773.5" transform="matrix(0.6413 -0.7673 0.7673 0.6413 -295.5786 925.5585)" class="st2" width="25.8" height="10.8"/>
		</g>
		<g>
			<path class="st0" d="M861.3,789.7l-5.2,6.2c-1.1,1.3-2.9,1.4-4.2,0.4l0,0l9-10.7l0,0C862.2,786.6,862.4,788.5,861.3,789.7z"/>
		</g>
		<g>
			<path class="st1" d="M839.6,769l-7.7,9.2c-0.2,0.3-0.7,0.3-1,0.1c-0.3-0.2-0.3-0.7-0.1-1l7.7-9.2c0.2-0.3,0.7-0.3,1-0.1
				C839.8,768.3,839.9,768.7,839.6,769z"/>
		</g>
		<g>
			<path class="st0" d="M827.4,771.8l5.2-6.2c1.1-1.3,2.9-1.4,4.2-0.4l0,0l-9,10.7l0,0C826.5,775,826.3,773.1,827.4,771.8z"/>
		</g>
		<g>
			<g>
				<g>
					<g>
						
							<ellipse transform="matrix(0.6413 -0.7673 0.7673 0.6413 -290.6278 906.9196)" class="st3" cx="824.6" cy="764.3" rx="17.3" ry="4.2"/>
					</g>
				</g>
			</g>
			<g>
				<g>
					<path class="st0" d="M827.9,767c-6.1,7.3-12.5,12-14.3,10.5c3,2.5,11-0.9,17.1-8.2s8.1-15.8,5-18.3
						C837.5,752.5,834,759.7,827.9,767z"/>
				</g>
			</g>
		</g>
		<g>
			<path class="st1" d="M826.1,765.5c-0.2,0.3-0.7,0.3-1,0.1l-6.8-5.6c-0.3-0.2-0.3-0.7-0.1-1c0.2-0.3,0.7-0.3,1-0.1l6.8,5.6
				C826.3,764.8,826.3,765.2,826.1,765.5z"/>
		</g>
		<g>
			
				<ellipse transform="matrix(0.996 -8.914715e-02 8.914715e-02 0.996 -64.4208 75.9913)" class="st4" cx="818.5" cy="759.2" rx="2.1" ry="2.1"/>
		</g>
	</g>
	<g>
		<g>
			<path class="st0" d="M968,422.3l1.2,7.1c0.1,0.4-0.2,0.7-0.6,0.8s-0.7-0.2-0.8-0.6l-1.2-7.1c-0.1-0.4,0.2-0.7,0.6-0.8
				C967.6,421.7,968,422,968,422.3z"/>
		</g>
		<g>
			<path class="st0" d="M967.9,386.4l5.7,34c0.1,0.5-0.3,1-0.8,1.1l-11,1.8c-0.5,0.1-1-0.3-1.1-0.8l-5.7-34c-0.1-0.5,0.3-1,0.8-1.1
				l11-1.8C967.3,385.6,967.8,385.9,967.9,386.4z"/>
		</g>
		<path class="st1" d="M960.8,387.9l0.8,4.7l-5.7,1h0l0.2,1.4l0,0l5.7-1l0.8,4.9l-5.7,1h0l0.2,1.4l0,0l5.7-1l0.8,4.9l-5.7,1h0
			l0.2,1.4l0,0l5.7-1l0.8,4.9l-5.7,1h0l0.2,1.4l0,0l5.7-1l0.8,4.9l-5.7,1l0,0l0.2,1.4l0,0l5.7-1l0.6,3.5l0,0l1.4-0.2l0,0l-0.6-3.5
			l5.7-1h0l-0.2-1.4l0,0l-5.7,1l-0.8-4.9l5.7-1l0,0l-0.2-1.4l0,0l-5.7,1l-0.8-4.9l5.7-1l0,0l-0.2-1.4h0l-5.7,1l-0.8-4.9l5.7-1h0
			l-0.2-1.4h0l-5.7,1l-0.8-4.9l5.7-1l0,0l-0.2-1.4l0,0l-5.7,1l-0.8-4.7c-0.1-0.4-0.4-0.6-0.8-0.6C961,387.2,960.7,387.5,960.8,387.9
			z"/>
		<g>
			<path class="st2" d="M955,388.6l0.3,1.5l12.8-2.2l-0.3-1.5c-0.1-0.5-0.6-0.9-1.1-0.8l-11,1.8C955.3,387.6,954.9,388.1,955,388.6z
				"/>
		</g>
		<g>
			<path class="st0" d="M972.6,449.4l1.2,7.1c0.1,0.4-0.2,0.7-0.6,0.8s-0.7-0.2-0.8-0.6l-1.2-7.1c-0.1-0.4,0.2-0.7,0.6-0.8
				C972.2,448.7,972.5,449,972.6,449.4z"/>
		</g>
		<g>
			<path class="st0" d="M972.6,492.6l-5.7-34c-0.1-0.5,0.3-1,0.8-1.1l11-1.8c0.5-0.1,1,0.3,1.1,0.8l5.7,34c0.1,0.5-0.3,1-0.8,1.1
				l-11,1.8C973.1,493.5,972.7,493.2,972.6,492.6z"/>
		</g>
		<path class="st1" d="M972.4,456.7l0.6,3.5l-5.7,1l0,0l0.2,1.4h0l5.7-1l0.8,4.9l-5.7,1l0,0l0.2,1.4h0l5.7-1l0.8,4.9l-5.7,1h0
			l0.2,1.4h0l5.7-1l0.8,4.9l-5.7,1h0l0.2,1.4l0,0l5.7-1l0.8,4.9l-5.7,1h0l0.2,1.4h0l5.7-1l0.8,4.7c0.1,0.4,0.4,0.6,0.8,0.6
			s0.6-0.4,0.6-0.8l-0.8-4.7l5.7-1h0l-0.2-1.4l0,0l-5.7,1l-0.8-4.9l5.7-1h0l-0.2-1.4h0l-5.7,1l-0.8-4.9l5.7-1h0l-0.2-1.4l0,0l-5.7,1
			l-0.8-4.9l5.7-1h0l-0.2-1.4l0,0l-5.7,1l-0.8-4.9l5.7-1h0l-0.2-1.4l0,0l-5.7,1l-0.6-3.5L972.4,456.7z"/>
		<g>
			<path class="st2" d="M985.4,490.5l-0.3-1.5l-12.8,2.2l0.3,1.5c0.1,0.5,0.6,0.9,1.1,0.8l11-1.8C985.1,491.5,985.5,491,985.4,490.5
				z"/>
		</g>
		<g>
			<path class="st3" d="M987.1,426.8l3.2,19.2c0.3,1.7-0.9,3.3-2.6,3.6l-24.9,4.2c-1.7,0.3-3.3-0.9-3.6-2.6l-3.2-19.2
				c-0.3-1.7,0.9-3.3,2.6-3.6l24.9-4.2C985.2,423.9,986.8,425.1,987.1,426.8z"/>
		</g>
		<g>
			
				<rect x="957.3" y="438.3" transform="matrix(0.9861 -0.1663 0.1663 0.9861 -59.468 167.9682)" class="st1" width="31.6" height="1.4"/>
		</g>
		<g>
			
				<rect x="957.3" y="434.2" transform="matrix(-0.1663 -0.9861 0.9861 -0.1663 698.1606 1469.3317)" class="st2" width="25.8" height="10.8"/>
		</g>
		<g>
			<path class="st0" d="M991,432l1.3,7.9c0.3,1.6-0.8,3.2-2.4,3.4l0,0l-2.3-13.8l0,0C989.1,429.2,990.7,430.3,991,432z"/>
		</g>
		<g>
			<path class="st1" d="M961.1,435l2,11.8c0.1,0.4-0.2,0.7-0.6,0.8s-0.7-0.2-0.8-0.6l-2-11.8c-0.1-0.4,0.2-0.7,0.6-0.8
				C960.7,434.3,961.1,434.6,961.1,435z"/>
		</g>
		<g>
			<path class="st0" d="M955.3,446.1l-1.3-7.9c-0.3-1.6,0.8-3.2,2.4-3.4l0,0l2.3,13.8l0,0C957.1,448.8,955.6,447.8,955.3,446.1z"/>
		</g>
		<g>
			<g>
				<g>
					<g>
						
							<ellipse transform="matrix(0.9861 -0.1663 0.1663 0.9861 -60.528 163.8007)" class="st3" cx="947.8" cy="443.3" rx="4.2" ry="17.3"/>
					</g>
				</g>
			</g>
			<g>
				<g>
					<path class="st0" d="M951.9,442.6c1.6,9.4,1,17.4-1.3,17.8c3.9-0.7,6.5-8.9,4.9-18.4c-1.6-9.4-6.8-16.4-10.7-15.7
						C947.2,425.9,950.4,433.2,951.9,442.6z"/>
				</g>
			</g>
		</g>
		<g>
			<path class="st1" d="M949.6,443c0.1,0.4-0.2,0.7-0.6,0.8l-8.7,1.5c-0.4,0.1-0.7-0.2-0.8-0.6c-0.1-0.4,0.2-0.7,0.6-0.8l8.7-1.5
				C949.2,442.3,949.6,442.6,949.6,443z"/>
		</g>
		<g>
			
				<ellipse transform="matrix(0.5797 -0.8149 0.8149 0.5797 32.795 952.8135)" class="st4" cx="939.9" cy="444.6" rx="2.1" ry="2.1"/>
		</g>
	</g>
	<g>
		<g>
			<path class="st0" d="M770.8,35.2l3.2,2.4c0.2,0.1,0.2,0.4,0.1,0.5c-0.1,0.2-0.4,0.2-0.5,0.1l-3.2-2.4c-0.2-0.1-0.2-0.4-0.1-0.5
				S770.6,35,770.8,35.2z"/>
		</g>
		<g>
			<path class="st0" d="M756.8,20.6l15.5,11.6c0.2,0.2,0.3,0.5,0.1,0.7l-3.7,5c-0.2,0.2-0.5,0.3-0.7,0.1l-15.5-11.6
				c-0.2-0.2-0.3-0.5-0.1-0.7l3.7-5C756.3,20.5,756.6,20.5,756.8,20.6z"/>
		</g>
		<path class="st1" d="M754.5,24l2.1,1.6l-2,2.6v0l0.6,0.5l0,0l2-2.6l2.2,1.7l-2,2.6v0l0.6,0.5l0,0l2-2.6l2.2,1.7l-2,2.6v0l0.6,0.5
			v0l2-2.6l2.2,1.7l-2,2.6v0l0.6,0.5v0l2-2.6l2.2,1.7l-2,2.6v0l0.6,0.5v0l2-2.6l1.6,1.2l0,0l0.5-0.6l0,0l-1.6-1.2l2-2.6v0l-0.6-0.5
			v0l-2,2.6l-2.2-1.7l2-2.6v0l-0.6-0.5v0l-2,2.6l-2.2-1.7l2-2.6v0l-0.6-0.5v0l-2,2.6l-2.2-1.7l2-2.6v0l-0.6-0.5v0l-2,2.6l-2.2-1.7
			l2-2.6l0,0l-0.6-0.5v0l-2,2.6l-2.1-1.6c-0.2-0.1-0.4-0.1-0.5,0.1S754.4,23.9,754.5,24z"/>
		<g>
			<path class="st2" d="M752.5,26.5l0.7,0.5l4.4-5.8l-0.7-0.5c-0.2-0.2-0.6-0.1-0.7,0.1l-3.7,5C752.2,26,752.2,26.3,752.5,26.5z"/>
		</g>
		<g>
			<path class="st0" d="M783.1,44.3l3.2,2.4c0.2,0.1,0.2,0.4,0.1,0.5c-0.1,0.2-0.4,0.2-0.5,0.1l-3.2-2.4c-0.2-0.1-0.2-0.4-0.1-0.5
				C782.7,44.3,782.9,44.2,783.1,44.3z"/>
		</g>
		<g>
			<path class="st0" d="M799.8,61.9l-15.5-11.6c-0.2-0.2-0.3-0.5-0.1-0.7l3.7-5c0.2-0.2,0.5-0.3,0.7-0.1l15.5,11.6
				c0.2,0.2,0.3,0.5,0.1,0.7l-3.7,5C800.4,62,800.1,62.1,799.8,61.9z"/>
		</g>
		<path class="st1" d="M785.9,47.4l1.6,1.2l-2,2.6l0,0l0.6,0.5v0l2-2.6l2.2,1.7l-2,2.6l0,0l0.6,0.5v0l2-2.6l2.2,1.7l-2,2.6l0,0
			l0.6,0.5v0l2-2.6L796,55l-2,2.6l0,0l0.6,0.5v0l2-2.6l2.2,1.7l-2,2.6l0,0l0.6,0.5v0l2-2.6l2.1,1.6c0.2,0.1,0.4,0.1,0.5-0.1
			c0.1-0.2,0.1-0.4-0.1-0.5L800,57l2-2.6l0,0l-0.6-0.5l0,0l-2,2.6l-2.2-1.7l2-2.6v0l-0.6-0.5l0,0l-2,2.6l-2.2-1.7l2-2.6v0l-0.6-0.5
			l0,0l-2,2.6l-2.2-1.7l2-2.6v0l-0.6-0.5l0,0l-2,2.6l-2.2-1.7l2-2.6v0l-0.6-0.5l0,0l-2,2.6l-1.6-1.2L785.9,47.4z"/>
		<g>
			<path class="st2" d="M804.2,56.1l-0.7-0.5l-4.4,5.8l0.7,0.5c0.2,0.2,0.6,0.1,0.7-0.1l3.7-5C804.5,56.6,804.4,56.2,804.2,56.1z"/>
		</g>
		<g>
			<path class="st3" d="M780.2,29.6l8.8,6.5c0.8,0.6,0.9,1.7,0.4,2.5L780.9,50c-0.6,0.8-1.7,0.9-2.5,0.4l-8.8-6.5
				c-0.8-0.6-0.9-1.7-0.4-2.5l8.5-11.4C778.4,29.2,779.5,29,780.2,29.6z"/>
		</g>
		<g>
			
				<rect x="770.5" y="39.6" transform="matrix(0.5989 -0.8008 0.8008 0.5989 280.607 640.1369)" class="st1" width="17.7" height="0.8"/>
		</g>
		<g>
			
				<rect x="771.1" y="38.3" transform="matrix(-0.8008 -0.5989 0.5989 -0.8008 1376.9221 540.4678)" class="st2" width="14.4" height="6"/>
		</g>
		<g>
			<path class="st0" d="M783.8,30.2l3.6,2.7c0.7,0.6,0.9,1.6,0.3,2.3l0,0l-6.3-4.7v0C782,29.8,783.1,29.6,783.8,30.2z"/>
		</g>
		<g>
			<path class="st1" d="M772.9,42.9l5.4,4c0.2,0.1,0.2,0.4,0.1,0.5c-0.1,0.2-0.4,0.2-0.5,0.1l-5.4-4c-0.2-0.1-0.2-0.4-0.1-0.5
				C772.5,42.8,772.7,42.8,772.9,42.9z"/>
		</g>
		<g>
			<path class="st0" d="M774.8,49.7l-3.6-2.7c-0.7-0.6-0.9-1.6-0.3-2.3l0,0l6.3,4.7l0,0C776.6,50.1,775.6,50.3,774.8,49.7z"/>
		</g>
		<g>
			<g>
				<g>
					<g>
						
							<ellipse transform="matrix(0.5989 -0.8008 0.8008 0.5989 267.8944 637.8406)" class="st3" cx="770.7" cy="51.5" rx="2.4" ry="9.7"/>
					</g>
				</g>
			</g>
			<g>
				<g>
					<path class="st0" d="M772.1,49.6c4.3,3.2,7.1,6.7,6.3,7.7c1.3-1.8-0.8-6.1-5.1-9.3s-9.1-4-10.4-2.3
						C763.7,44.6,767.8,46.4,772.1,49.6z"/>
				</g>
			</g>
		</g>
		<g>
			<path class="st1" d="M771.3,50.6c0.2,0.1,0.2,0.4,0.1,0.5l-3,3.9c-0.1,0.2-0.4,0.2-0.5,0.1c-0.2-0.1-0.2-0.4-0.1-0.5l3-3.9
				C770.9,50.5,771.1,50.5,771.3,50.6z"/>
		</g>
		<g>
			<circle class="st4" cx="768" cy="55" r="1.2"/>
		</g>
	</g>
	<g>
		<g>
			<path class="st0" d="M942.8,234.8l2.5,3.2c0.1,0.2,0.1,0.4-0.1,0.6c-0.2,0.1-0.4,0.1-0.6-0.1l-2.5-3.2c-0.1-0.2-0.1-0.4,0.1-0.6
				C942.5,234.6,942.7,234.7,942.8,234.8z"/>
		</g>
		<g>
			<path class="st0" d="M933.1,217.2l11.9,15.2c0.2,0.2,0.1,0.6-0.1,0.8l-4.9,3.8c-0.2,0.2-0.6,0.1-0.8-0.1l-11.9-15.2
				c-0.2-0.2-0.1-0.6,0.1-0.8l4.9-3.8C932.6,216.9,933,217,933.1,217.2z"/>
		</g>
		<path class="st1" d="M930.1,219.8l1.6,2.1l-2.6,2l0,0l0.5,0.6l0,0l2.6-2l1.7,2.2l-2.6,2l0,0l0.5,0.6l0,0l2.6-2l1.7,2.2l-2.6,2v0
			l0.5,0.6v0l2.6-2l1.7,2.2l-2.6,2v0l0.5,0.6v0l2.6-2l1.7,2.2l-2.6,2l0,0l0.5,0.6v0l2.6-2l1.2,1.5l0,0l0.6-0.5l0,0l-1.2-1.5l2.6-2v0
			l-0.5-0.6v0l-2.6,2l-1.7-2.2l2.6-2l0,0l-0.5-0.6v0l-2.6,2l-1.7-2.2l2.6-2l0,0l-0.5-0.6l0,0l-2.6,2l-1.7-2.2l2.6-2v0l-0.5-0.6l0,0
			l-2.6,2l-1.7-2.2l2.6-2v0l-0.5-0.6l0,0l-2.6,2l-1.6-2.1c-0.1-0.2-0.4-0.2-0.6-0.1C930,219.4,929.9,219.6,930.1,219.8z"/>
		<g>
			<path class="st2" d="M927.4,221.7l0.5,0.7l5.7-4.5l-0.5-0.7c-0.2-0.2-0.5-0.3-0.8-0.1l-4.9,3.8
				C927.2,221.1,927.2,221.5,927.4,221.7z"/>
		</g>
		<g>
			<path class="st0" d="M952.3,246.9l2.5,3.2c0.1,0.2,0.1,0.4-0.1,0.6c-0.2,0.1-0.4,0.1-0.6-0.1l-2.5-3.2c-0.1-0.2-0.1-0.4,0.1-0.6
				C951.9,246.7,952.2,246.7,952.3,246.9z"/>
		</g>
		<g>
			<path class="st0" d="M963.9,268.2L952,253c-0.2-0.2-0.1-0.6,0.1-0.8l4.9-3.8c0.2-0.2,0.6-0.1,0.8,0.1l11.9,15.2
				c0.2,0.2,0.1,0.6-0.1,0.8l-4.9,3.8C964.4,268.5,964.1,268.4,963.9,268.2z"/>
		</g>
		<path class="st1" d="M954.2,250.6l1.2,1.5l-2.6,2l0,0l0.5,0.6l0,0l2.6-2l1.7,2.2l-2.6,2l0,0l0.5,0.6l0,0l2.6-2l1.7,2.2l-2.6,2v0
			l0.5,0.6l0,0l2.6-2l1.7,2.2l-2.6,2v0l0.5,0.6l0,0l2.6-2l1.7,2.2l-2.6,2v0l0.5,0.6v0l2.6-2l1.6,2.1c0.1,0.2,0.4,0.2,0.6,0.1
			c0.2-0.1,0.2-0.4,0.1-0.6l-1.6-2.1l2.6-2l0,0l-0.5-0.6l0,0l-2.6,2l-1.7-2.2l2.6-2h0l-0.5-0.6l0,0l-2.6,2l-1.7-2.2l2.6-2l0,0
			l-0.5-0.6l0,0l-2.6,2l-1.7-2.2l2.6-2v0l-0.5-0.6v0l-2.6,2l-1.7-2.2l2.6-2v0l-0.5-0.6v0l-2.6,2l-1.2-1.5L954.2,250.6z"/>
		<g>
			<path class="st2" d="M969.6,263.7l-0.5-0.7l-5.7,4.5l0.5,0.7c0.2,0.2,0.5,0.3,0.8,0.1l4.9-3.8
				C969.8,264.3,969.8,263.9,969.6,263.7z"/>
		</g>
		<g>
			<path class="st3" d="M953.4,231.9l6.7,8.6c0.6,0.8,0.5,1.9-0.3,2.5l-11.2,8.8c-0.8,0.6-1.9,0.5-2.5-0.3l-6.7-8.6
				c-0.6-0.8-0.5-1.9,0.3-2.5l11.2-8.8C951.7,231,952.8,231.2,953.4,231.9z"/>
		</g>
		<g>
			
				<rect x="941" y="241.3" transform="matrix(0.7867 -0.6173 0.6173 0.7867 53.3774 637.8582)" class="st1" width="17.7" height="0.8"/>
		</g>
		<g>
			
				<rect x="941.3" y="239.7" transform="matrix(-0.6173 -0.7867 0.7867 -0.6173 1343.0754 1138.7517)" class="st2" width="14.4" height="6"/>
		</g>
		<g>
			<path class="st0" d="M956.7,233.4l2.8,3.6c0.6,0.7,0.4,1.8-0.3,2.3l0,0l-4.8-6.2l0,0C955.1,232.6,956.1,232.7,956.7,233.4z"/>
		</g>
		<g>
			<path class="st1" d="M942.8,242.9l4.2,5.3c0.1,0.2,0.1,0.4-0.1,0.6c-0.2,0.1-0.4,0.1-0.6-0.1l-4.2-5.3c-0.1-0.2-0.1-0.4,0.1-0.6
				C942.4,242.7,942.7,242.7,942.8,242.9z"/>
		</g>
		<g>
			<path class="st0" d="M942.9,249.9l-2.8-3.6c-0.6-0.7-0.4-1.8,0.3-2.3l0,0l4.8,6.2l0,0C944.6,250.8,943.5,250.7,942.9,249.9z"/>
		</g>
		<g>
			<g>
				<g>
					<g>
						
							<ellipse transform="matrix(0.7867 -0.6173 0.6173 0.7867 45.4655 632.7423)" class="st3" cx="938.5" cy="250.6" rx="2.4" ry="9.7"/>
					</g>
				</g>
			</g>
			<g>
				<g>
					<path class="st0" d="M940.3,249.1c3.3,4.2,5.1,8.3,4.1,9.1c1.7-1.4,0.8-6.1-2.5-10.4c-3.3-4.2-7.7-6.3-9.5-4.9
						C933.5,242.1,937,244.9,940.3,249.1z"/>
				</g>
			</g>
		</g>
		<g>
			<path class="st1" d="M939.3,249.9c0.1,0.2,0.1,0.4-0.1,0.6l-3.9,3c-0.2,0.1-0.4,0.1-0.6-0.1c-0.1-0.2-0.1-0.4,0.1-0.6l3.9-3
				C938.9,249.7,939.2,249.7,939.3,249.9z"/>
		</g>
		<g>
			<circle class="st4" cx="935" cy="253.3" r="1.2"/>
		</g>
	</g>
	<g>
		<g>
			<path class="st0" d="M963.2,745l-2.4,3.2c-0.1,0.2-0.4,0.2-0.5,0.1s-0.2-0.4-0.1-0.5l2.4-3.2c0.1-0.2,0.4-0.2,0.5-0.1
				C963.3,744.6,963.3,744.8,963.2,745z"/>
		</g>
		<g>
			<path class="st0" d="M977.7,731l-11.6,15.5c-0.2,0.2-0.5,0.3-0.7,0.1l-5-3.7c-0.2-0.2-0.3-0.5-0.1-0.7l11.6-15.5
				c0.2-0.2,0.5-0.3,0.7-0.1l5,3.7C977.8,730.4,977.9,730.8,977.7,731z"/>
		</g>
		<path class="st1" d="M974.4,728.7l-1.6,2.1l-2.6-2h0l-0.5,0.6l0,0l2.6,2l-1.7,2.2l-2.6-2l0,0l-0.5,0.6h0l2.6,2l-1.7,2.2l-2.6-2h0
			l-0.5,0.6l0,0l2.6,2l-1.7,2.2l-2.6-2h0l-0.5,0.6l0,0l2.6,2l-1.7,2.2l-2.6-2l0,0l-0.5,0.6h0l2.6,2l-1.2,1.6l0,0l0.6,0.5l0,0
			l1.2-1.6l2.6,2h0l0.5-0.6l0,0l-2.6-2l1.7-2.2l2.6,2l0,0l0.5-0.6h0l-2.6-2l1.7-2.2l2.6,2l0,0l0.5-0.6h0l-2.6-2l1.7-2.2l2.6,2h0
			l0.5-0.6l0,0l-2.6-2l1.7-2.2l2.6,2l0,0l0.5-0.6h0l-2.6-2l1.6-2.1c0.1-0.2,0.1-0.4-0.1-0.5C974.7,728.5,974.5,728.6,974.4,728.7z"
			/>
		<g>
			<path class="st2" d="M971.8,726.6l-0.5,0.7l5.8,4.4l0.5-0.7c0.2-0.2,0.1-0.6-0.1-0.7l-5-3.7C972.4,726.4,972,726.4,971.8,726.6z"
				/>
		</g>
		<g>
			<path class="st0" d="M954,757.3l-2.4,3.2c-0.1,0.2-0.4,0.2-0.5,0.1c-0.2-0.1-0.2-0.4-0.1-0.5l2.4-3.2c0.1-0.2,0.4-0.2,0.5-0.1
				C954.1,756.9,954.1,757.1,954,757.3z"/>
		</g>
		<g>
			<path class="st0" d="M936.4,774l11.6-15.5c0.2-0.2,0.5-0.3,0.7-0.1l5,3.7c0.2,0.2,0.3,0.5,0.1,0.7l-11.6,15.5
				c-0.2,0.2-0.5,0.3-0.7,0.1l-5-3.7C936.3,774.6,936.3,774.2,936.4,774z"/>
		</g>
		<path class="st1" d="M950.9,760l-1.2,1.6l-2.6-2l0,0l-0.5,0.6v0l2.6,2l-1.7,2.2l-2.6-2h0l-0.5,0.6v0l2.6,2l-1.7,2.2l-2.6-2l0,0
			l-0.5,0.6l0,0l2.6,2l-1.7,2.2l-2.6-2l0,0l-0.5,0.6v0l2.6,2l-1.7,2.2l-2.6-2h0l-0.5,0.6v0l2.6,2l-1.6,2.1c-0.1,0.2-0.1,0.4,0.1,0.5
			c0.2,0.1,0.4,0.1,0.5-0.1l1.6-2.1l2.6,2v0l0.5-0.6l0,0l-2.6-2l1.7-2.2l2.6,2v0l0.5-0.6h0l-2.6-2l1.7-2.2l2.6,2l0,0l0.5-0.6l0,0
			l-2.6-2l1.7-2.2l2.6,2v0l0.5-0.6h0l-2.6-2l1.7-2.2l2.6,2v0l0.5-0.6h0l-2.6-2l1.2-1.6L950.9,760z"/>
		<g>
			<path class="st2" d="M942.3,778.4l0.5-0.7l-5.8-4.4l-0.5,0.7c-0.2,0.2-0.1,0.6,0.1,0.7l5,3.7
				C941.8,778.7,942.1,778.6,942.3,778.4z"/>
		</g>
		<g>
			<path class="st3" d="M968.7,754.4l-6.5,8.8c-0.6,0.8-1.7,0.9-2.5,0.4l-11.4-8.5c-0.8-0.6-0.9-1.7-0.4-2.5l6.5-8.8
				c0.6-0.8,1.7-0.9,2.5-0.4l11.4,8.5C969.2,752.5,969.3,753.6,968.7,754.4z"/>
		</g>
		<g>
			
				<rect x="958" y="744.7" transform="matrix(0.5989 -0.8008 0.8008 0.5989 -219.0053 1069.7596)" class="st1" width="0.8" height="17.7"/>
		</g>
		<g>
			
				<rect x="949.8" y="749.5" transform="matrix(0.5989 -0.8008 0.8008 0.5989 -218.745 1068.2899)" class="st2" width="14.4" height="6"/>
		</g>
		<g>
			<path class="st0" d="M968.2,758l-2.7,3.6c-0.6,0.7-1.6,0.9-2.3,0.3l0,0l4.7-6.3l0,0C968.6,756.2,968.7,757.3,968.2,758z"/>
		</g>
		<g>
			<path class="st1" d="M955.4,747.1l-4,5.4c-0.1,0.2-0.4,0.2-0.5,0.1c-0.2-0.1-0.2-0.4-0.1-0.5l4-5.4c0.1-0.2,0.4-0.2,0.5-0.1
				S955.5,746.9,955.4,747.1z"/>
		</g>
		<g>
			<path class="st0" d="M948.6,749l2.7-3.6c0.6-0.7,1.6-0.9,2.3-0.3l0,0l-4.7,6.3l0,0C948.2,750.8,948.1,749.8,948.6,749z"/>
		</g>
		<g>
			<g>
				<g>
					<g>
						
							<ellipse transform="matrix(0.5989 -0.8008 0.8008 0.5989 -216.7148 1057.043)" class="st3" cx="946.8" cy="744.9" rx="9.7" ry="2.4"/>
					</g>
				</g>
			</g>
			<g>
				<g>
					<path class="st0" d="M948.8,746.3c-3.2,4.3-6.7,7.1-7.7,6.3c1.8,1.3,6.1-0.8,9.3-5.1c3.2-4.3,4-9.1,2.3-10.4
						C953.7,737.9,952,742,948.8,746.3z"/>
				</g>
			</g>
		</g>
		<g>
			<path class="st1" d="M947.7,745.5c-0.1,0.2-0.4,0.2-0.5,0.1l-3.9-3c-0.2-0.1-0.2-0.4-0.1-0.5c0.1-0.2,0.4-0.2,0.5-0.1l3.9,3
				C947.8,745.1,947.8,745.3,947.7,745.5z"/>
		</g>
		<g>
			<circle class="st4" cx="943.3" cy="742.2" r="1.2"/>
		</g>
	</g>
	<g>
		<g>
			<path class="st0" d="M763.5,917l-3.2,2.5c-0.2,0.1-0.4,0.1-0.6-0.1c-0.1-0.2-0.1-0.4,0.1-0.6l3.2-2.5c0.2-0.1,0.4-0.1,0.6,0.1
				C763.7,916.6,763.7,916.9,763.5,917z"/>
		</g>
		<g>
			<path class="st0" d="M781.2,907.3l-15.2,11.9c-0.2,0.2-0.6,0.1-0.8-0.1l-3.8-4.9c-0.2-0.2-0.1-0.6,0.1-0.8l15.2-11.9
				c0.2-0.2,0.6-0.1,0.8,0.1l3.8,4.9C781.4,906.8,781.4,907.1,781.2,907.3z"/>
		</g>
		<path class="st1" d="M778.5,904.2l-2.1,1.6l-2-2.6l0,0l-0.6,0.5l0,0l2,2.6l-2.2,1.7l-2-2.6v0L771,906h0l2,2.6l-2.2,1.7l-2-2.6l0,0
			l-0.6,0.5l0,0l2,2.6l-2.2,1.7l-2-2.6l0,0l-0.6,0.5l0,0l2,2.6l-2.2,1.7l-2-2.6l0,0l-0.6,0.5h0l2,2.6l-1.5,1.2l0,0l0.5,0.6l0,0
			l1.5-1.2l2,2.6v0l0.6-0.5h0l-2-2.6l2.2-1.7l2,2.6v0l0.6-0.5l0,0l-2-2.6l2.2-1.7l2,2.6v0l0.6-0.5l0,0l-2-2.6l2.2-1.7l2,2.6l0,0
			l0.6-0.5l0,0l-2-2.6l2.2-1.7l2,2.6l0,0l0.6-0.5l0,0l-2-2.6l2.1-1.6c0.2-0.1,0.2-0.4,0.1-0.6C778.9,904.1,778.7,904.1,778.5,904.2z
			"/>
		<g>
			<path class="st2" d="M776.6,901.6l-0.7,0.5l4.5,5.7l0.7-0.5c0.2-0.2,0.3-0.5,0.1-0.8l-3.8-4.9
				C777.2,901.4,776.9,901.4,776.6,901.6z"/>
		</g>
		<g>
			<path class="st0" d="M751.4,926.5l-3.2,2.5c-0.2,0.1-0.4,0.1-0.6-0.1c-0.1-0.2-0.1-0.4,0.1-0.6l3.2-2.5c0.2-0.1,0.4-0.1,0.6,0.1
				C751.6,926.1,751.6,926.4,751.4,926.5z"/>
		</g>
		<g>
			<path class="st0" d="M730.1,938.1l15.2-11.9c0.2-0.2,0.6-0.1,0.8,0.1l3.8,4.9c0.2,0.2,0.1,0.6-0.1,0.8l-15.2,11.9
				c-0.2,0.2-0.6,0.1-0.8-0.1l-3.8-4.9C729.9,938.6,729.9,938.3,730.1,938.1z"/>
		</g>
		<path class="st1" d="M747.8,928.4l-1.5,1.2l-2-2.6h0l-0.6,0.5l0,0l2,2.6l-2.2,1.7l-2-2.6l0,0l-0.6,0.5l0,0l2,2.6l-2.2,1.7l-2-2.6
			l0,0l-0.6,0.5v0l2,2.6l-2.2,1.7l-2-2.6l0,0l-0.6,0.5l0,0l2,2.6l-2.2,1.7l-2-2.6l0,0l-0.6,0.5l0,0l2,2.6l-2.1,1.6
			c-0.2,0.1-0.2,0.4-0.1,0.6c0.1,0.2,0.4,0.2,0.6,0.1l2.1-1.6l2,2.6v0l0.6-0.5l0,0l-2-2.6l2.2-1.7l2,2.6v0l0.6-0.5l0,0l-2-2.6
			l2.2-1.7l2,2.6l0,0l0.6-0.5v0l-2-2.6l2.2-1.7l2,2.6l0,0l0.6-0.5l0,0l-2-2.6l2.2-1.7l2,2.6l0,0l0.6-0.5l0,0l-2-2.6l1.5-1.2
			L747.8,928.4z"/>
		<g>
			<path class="st2" d="M734.6,943.8l0.7-0.5l-4.5-5.7l-0.7,0.5c-0.2,0.2-0.3,0.5-0.1,0.8l3.8,4.9C734.1,944,734.4,944,734.6,943.8z
				"/>
		</g>
		<g>
			<path class="st3" d="M766.4,927.6l-8.6,6.7c-0.8,0.6-1.9,0.5-2.5-0.3l-8.8-11.2c-0.6-0.8-0.5-1.9,0.3-2.5l8.6-6.7
				c0.8-0.6,1.9-0.5,2.5,0.3l8.8,11.2C767.3,925.9,767.2,927,766.4,927.6z"/>
		</g>
		<g>
			
				<rect x="756.3" y="915.2" transform="matrix(0.7867 -0.6173 0.6173 0.7867 -409.0066 664.14)" class="st1" width="0.8" height="17.7"/>
		</g>
		<g>
			
				<rect x="748.4" y="919.7" transform="matrix(0.7867 -0.6173 0.6173 0.7867 -408.4179 663.2218)" class="st2" width="14.4" height="6"/>
		</g>
		<g>
			<path class="st0" d="M764.9,930.9l-3.6,2.8c-0.7,0.6-1.8,0.4-2.3-0.3l0,0l6.2-4.8l0,0C765.8,929.3,765.6,930.3,764.9,930.9z"/>
		</g>
		<g>
			<path class="st1" d="M755.5,917l-5.3,4.2c-0.2,0.1-0.4,0.1-0.6-0.1c-0.1-0.2-0.1-0.4,0.1-0.6l5.3-4.2c0.2-0.1,0.4-0.1,0.6,0.1
				C755.7,916.6,755.6,916.9,755.5,917z"/>
		</g>
		<g>
			<path class="st0" d="M748.4,917.1l3.6-2.8c0.7-0.6,1.8-0.4,2.3,0.3l0,0l-6.2,4.8l0,0C747.5,918.7,747.7,917.7,748.4,917.1z"/>
		</g>
		<g>
			<g>
				<g>
					<g>
						
							<ellipse transform="matrix(0.7867 -0.6173 0.6173 0.7867 -403.8952 656.2226)" class="st3" cx="747.8" cy="912.6" rx="9.7" ry="2.4"/>
					</g>
				</g>
			</g>
			<g>
				<g>
					<path class="st0" d="M749.2,914.5c-4.2,3.3-8.3,5.1-9.1,4.1c1.4,1.7,6.1,0.8,10.4-2.5c4.2-3.3,6.3-7.7,4.9-9.5
						C756.2,907.7,753.4,911.2,749.2,914.5z"/>
				</g>
			</g>
		</g>
		<g>
			<path class="st1" d="M748.4,913.5c-0.2,0.1-0.4,0.1-0.6-0.1l-3-3.9c-0.1-0.2-0.1-0.4,0.1-0.6c0.2-0.1,0.4-0.1,0.6,0.1l3,3.9
				C748.6,913.1,748.6,913.4,748.4,913.5z"/>
		</g>
		<g>
			<circle class="st4" cx="745" cy="909.2" r="1.2"/>
		</g>
	</g>
	<g>
		<g>
			<path class="st0" d="M516.4,940.4l-7.2-0.2c-0.4,0-0.7-0.3-0.7-0.7c0-0.4,0.3-0.7,0.7-0.7l7.2,0.2c0.4,0,0.7,0.3,0.7,0.7
				S516.8,940.4,516.4,940.4z"/>
		</g>
		<g>
			<path class="st0" d="M551.7,947.1l-34.5-0.8c-0.5,0-0.9-0.4-0.9-1l0.3-11.1c0-0.5,0.4-0.9,1-0.9L552,934c0.5,0,0.9,0.4,0.9,1
				l-0.3,11.1C552.7,946.6,552.2,947.1,551.7,947.1z"/>
		</g>
		<path class="st1" d="M551.6,939.8l-4.7-0.1l0.1-5.8v0l-1.4,0v0l-0.1,5.8l-5-0.1l0.1-5.8v0l-1.4,0l0,0l-0.1,5.8l-5-0.1l0.1-5.8v0
			l-1.4,0l0,0l-0.1,5.8l-5-0.1l0.1-5.8v0l-1.4,0v0l-0.1,5.8l-5-0.1l0.1-5.8v0l-1.4,0v0l-0.1,5.8l-3.5-0.1l0,0l0,1.4l0,0l3.5,0.1
			l-0.1,5.8v0l1.4,0v0l0.1-5.8l5,0.1l-0.1,5.8v0l1.4,0v0l0.1-5.8l5,0.1l-0.1,5.8v0l1.4,0v0l0.1-5.8l5,0.1l-0.1,5.8v0l1.4,0v0
			l0.1-5.8l5,0.1l-0.1,5.8v0l1.4,0l0,0l0.1-5.8l4.7,0.1c0.4,0,0.7-0.3,0.7-0.7C552.3,940.2,552,939.8,551.6,939.8z"/>
		<g>
			<path class="st2" d="M552,934l-1.5,0l-0.3,13l1.5,0c0.5,0,1-0.4,1-0.9l0.3-11.1C552.9,934.5,552.5,934,552,934z"/>
		</g>
		<g>
			<path class="st0" d="M489,939.7l-7.2-0.2c-0.4,0-0.7-0.3-0.7-0.7c0-0.4,0.3-0.7,0.7-0.7l7.2,0.2c0.4,0,0.7,0.3,0.7,0.7
				C489.7,939.5,489.4,939.8,489,939.7z"/>
		</g>
		<g>
			<path class="st0" d="M446.5,931.5l34.5,0.8c0.5,0,0.9,0.4,0.9,1l-0.3,11.1c0,0.5-0.4,0.9-1,0.9l-34.5-0.8c-0.5,0-0.9-0.4-0.9-1
				l0.3-11.1C445.6,931.9,446,931.5,446.5,931.5z"/>
		</g>
		<path class="st1" d="M481.8,938.2l-3.5-0.1l0.1-5.8v0l-1.4,0l0,0l-0.1,5.8l-5-0.1l0.1-5.8v0l-1.4,0v0l-0.1,5.8l-5-0.1l0.1-5.8v0
			l-1.4,0v0l-0.1,5.8l-5-0.1l0.1-5.8v0l-1.4,0v0l-0.1,5.8l-5-0.1l0.1-5.8v0l-1.4,0l0,0l-0.1,5.8l-4.7-0.1c-0.4,0-0.7,0.3-0.7,0.7
			c0,0.4,0.3,0.7,0.7,0.7l4.7,0.1l-0.1,5.8l0,0l1.4,0l0,0l0.1-5.8l5,0.1l-0.1,5.8v0l1.4,0v0l0.1-5.8l5,0.1L464,945l0,0l1.4,0v0
			l0.1-5.8l5,0.1l-0.1,5.8v0l1.4,0v0l0.1-5.8l5,0.1l-0.1,5.8v0l1.4,0v0l0.1-5.8l3.5,0.1L481.8,938.2z"/>
		<g>
			<path class="st2" d="M446.2,944.5l1.5,0l0.3-13l-1.5,0c-0.5,0-1,0.4-1,0.9l-0.3,11.1C445.3,944.1,445.7,944.5,446.2,944.5z"/>
		</g>
		<g>
			<path class="st3" d="M508.4,958.3l-19.5-0.5c-1.7,0-3.1-1.5-3.1-3.2l0.6-25.3c0-1.7,1.5-3.1,3.2-3.1l19.5,0.5
				c1.7,0,3.1,1.5,3.1,3.2l-0.6,25.3C511.6,956.9,510.1,958.3,508.4,958.3z"/>
		</g>
		<g>
			
				<rect x="483.3" y="941.5" transform="matrix(2.379337e-02 -0.9997 0.9997 2.379337e-02 -454.8149 1418.7216)" class="st1" width="31.6" height="1.4"/>
		</g>
		<g>
			
				<rect x="486.2" y="933.9" transform="matrix(0.9997 2.380044e-02 -2.380044e-02 0.9997 22.4968 -11.6129)" class="st2" width="25.8" height="10.8"/>
		</g>
		<g>
			<path class="st0" d="M502.6,961.1l-8.1-0.2c-1.6,0-2.9-1.4-2.9-3l0,0l14,0.3l0,0C505.6,959.8,504.3,961.1,502.6,961.1z"/>
		</g>
		<g>
			<path class="st1" d="M505.3,931.2l-12-0.3c-0.4,0-0.7-0.3-0.7-0.7c0-0.4,0.3-0.7,0.7-0.7l12,0.3c0.4,0,0.7,0.3,0.7,0.7
				C506,931,505.7,931.3,505.3,931.2z"/>
		</g>
		<g>
			<path class="st0" d="M495.5,923.4l8.1,0.2c1.6,0,2.9,1.4,2.9,3l0,0l-14-0.3l0,0C492.5,924.7,493.8,923.4,495.5,923.4z"/>
		</g>
		<g>
			<g>
				<g>
					<g>
						
							<ellipse transform="matrix(2.380044e-02 -0.9997 0.9997 2.380044e-02 -428.4917 1394.2399)" class="st3" cx="499.7" cy="916.5" rx="4.2" ry="17.3"/>
					</g>
				</g>
			</g>
			<g>
				<g>
					<path class="st0" d="M499.6,920.8c-9.5-0.2-17.2-2.3-17.2-4.7c-0.1,3.9,7.6,8.1,17.1,8.3c9.5,0.2,17.4-3.5,17.5-7.5
						C516.9,919.3,509.1,921,499.6,920.8z"/>
				</g>
			</g>
		</g>
		<g>
			<path class="st1" d="M499.6,918.4c-0.4,0-0.7-0.3-0.7-0.7l0.2-8.8c0-0.4,0.3-0.7,0.7-0.7s0.7,0.3,0.7,0.7l-0.2,8.8
				C500.3,918.1,500,918.5,499.6,918.4z"/>
		</g>
		<g>
			
				<ellipse transform="matrix(0.7237 -0.6901 0.6901 0.7237 -488.9125 595.9536)" class="st4" cx="499.9" cy="908.6" rx="2.1" ry="2.1"/>
		</g>
	</g>
	<g>
		<g>
			<path class="st0" d="M195.1,819.8l-4.9-5.3c-0.3-0.3-0.2-0.7,0-1c0.3-0.3,0.7-0.2,1,0l4.9,5.3c0.3,0.3,0.2,0.7,0,1
				C195.8,820.1,195.4,820.1,195.1,819.8z"/>
		</g>
		<g>
			<path class="st0" d="M215,849.7l-23.5-25.2c-0.4-0.4-0.3-1,0-1.3l8.1-7.6c0.4-0.4,1-0.3,1.3,0l23.5,25.2c0.4,0.4,0.3,1,0,1.3
				l-8.1,7.6C216,850.1,215.3,850.1,215,849.7z"/>
		</g>
		<path class="st1" d="M220.1,844.6l-3.2-3.5l4.3-4l0,0l-1-1l0,0l-4.3,4l-3.4-3.6l4.3-4l0,0l-1-1l0,0l-4.3,4l-3.4-3.6l4.3-4l0,0
			l-1-1h0l-4.3,4l-3.4-3.6l4.3-4l0,0l-1-1l0,0l-4.3,4l-3.4-3.6l4.3-4l0,0l-1-1l0,0l-4.3,4l-2.4-2.6l0,0l-1,1l0,0l2.4,2.6l-4.3,4h0
			l1,1l0,0l4.3-4l3.4,3.6l-4.3,4l0,0l1,1l0,0l4.3-4l3.4,3.6l-4.3,4l0,0l1,1l0,0l4.3-4l3.4,3.6l-4.3,4l0,0l1,1h0l4.3-4l3.4,3.6
			l-4.3,4l0,0l1,1h0l4.3-4l3.2,3.5c0.3,0.3,0.7,0.3,1,0S220.3,844.9,220.1,844.6z"/>
		<g>
			<path class="st2" d="M224.5,840.9l-1-1.1l-9.5,8.9l1,1.1c0.4,0.4,1,0.4,1.3,0l8.1-7.6C224.9,841.9,224.9,841.3,224.5,840.9z"/>
		</g>
		<g>
			<path class="st0" d="M176.4,799.8l-4.9-5.3c-0.3-0.3-0.2-0.7,0-1c0.3-0.3,0.7-0.2,1,0l4.9,5.3c0.3,0.3,0.2,0.7,0,1
				C177.1,800.1,176.7,800.1,176.4,799.8z"/>
		</g>
		<g>
			<path class="st0" d="M152.6,763.6l23.5,25.2c0.4,0.4,0.3,1,0,1.3l-8.1,7.6c-0.4,0.4-1,0.3-1.3,0l-23.5-25.2c-0.4-0.4-0.3-1,0-1.3
				l8.1-7.6C151.7,763.2,152.3,763.3,152.6,763.6z"/>
		</g>
		<path class="st1" d="M172.5,793.5l-2.4-2.6l4.3-4l0,0l-1-1l0,0l-4.3,4l-3.4-3.6l4.3-4l0,0l-1-1h0l-4.3,4l-3.4-3.6l4.3-4l0,0l-1-1
			l0,0l-4.3,4l-3.4-3.6l4.3-4l0,0l-1-1h0l-4.3,4l-3.4-3.6l4.3-4l0,0l-1-1l0,0l-4.3,4l-3.2-3.5c-0.3-0.3-0.7-0.3-1,0
			c-0.3,0.3-0.3,0.7,0,1l3.2,3.5l-4.3,4l0,0l1,1h0l4.3-4l3.4,3.6l-4.3,4l0,0l1,1l0,0l4.3-4l3.4,3.6l-4.3,4h0l1,1l0,0l4.3-4l3.4,3.6
			l-4.3,4l0,0l1,1l0,0l4.3-4l3.4,3.6l-4.3,4h0l1,1l0,0l4.3-4l2.4,2.6L172.5,793.5z"/>
		<g>
			<path class="st2" d="M143.1,772.5l1,1.1l9.5-8.9l-1-1.1c-0.4-0.4-1-0.4-1.3,0l-8.1,7.6C142.8,771.5,142.7,772.1,143.1,772.5z"/>
		</g>
		<g>
			<path class="st3" d="M176.7,826.6l-13.3-14.3c-1.2-1.3-1.1-3.2,0.2-4.4l18.5-17.2c1.3-1.2,3.2-1.1,4.4,0.2l13.3,14.3
				c1.2,1.3,1.1,3.2-0.2,4.4l-18.5,17.2C179.9,827.9,177.9,827.9,176.7,826.6z"/>
		</g>
		<g>
			
				<rect x="165.9" y="808" transform="matrix(0.7319 -0.6814 0.6814 0.7319 -502.3702 340.5952)" class="st1" width="31.6" height="1.4"/>
		</g>
		<g>
			
				<rect x="170.9" y="801.3" transform="matrix(0.6814 0.7319 -0.7319 0.6814 648.9748 122.4724)" class="st2" width="25.8" height="10.8"/>
		</g>
		<g>
			<path class="st0" d="M170.7,824.4l-5.5-5.9c-1.1-1.2-1.1-3.1,0.2-4.2l0,0l9.5,10.3l0,0C173.7,825.7,171.8,825.6,170.7,824.4z"/>
		</g>
		<g>
			<path class="st1" d="M193.9,805.5l-8.2-8.8c-0.3-0.3-0.2-0.7,0-1c0.3-0.3,0.7-0.2,1,0l8.2,8.8c0.3,0.3,0.2,0.7,0,1
				C194.6,805.8,194.2,805.8,193.9,805.5z"/>
		</g>
		<g>
			<path class="st0" d="M192.6,793l5.5,5.9c1.1,1.2,1.1,3.1-0.2,4.2l0,0l-9.5-10.3l0,0C189.6,791.7,191.5,791.8,192.6,793z"/>
		</g>
		<g>
			<g>
				<g>
					<g>
						
							<ellipse transform="matrix(0.7319 -0.6814 0.6814 0.7319 -485.3797 348.7329)" class="st3" cx="200.5" cy="791.2" rx="4.2" ry="17.3"/>
					</g>
				</g>
			</g>
			<g>
				<g>
					<path class="st0" d="M197.4,794.1c-6.5-7-10.4-14-8.7-15.5c-2.9,2.7-0.5,11,6,18c6.5,7,14.7,10,17.6,7.3
						C210.5,805.4,203.9,801.1,197.4,794.1z"/>
				</g>
			</g>
		</g>
		<g>
			<path class="st1" d="M199.1,792.5c-0.3-0.3-0.2-0.7,0-1l6.4-6c0.3-0.3,0.7-0.2,1,0c0.3,0.3,0.2,0.7,0,1l-6.4,6
				C199.8,792.8,199.3,792.8,199.1,792.5z"/>
		</g>
		<g>
			
				<ellipse transform="matrix(3.569703e-02 -0.9994 0.9994 3.569703e-02 -586.3669 963.8942)" class="st4" cx="206.3" cy="785.8" rx="2.1" ry="2.1"/>
		</g>
	</g>
	<g>
		<g>
			<path class="st0" d="M148.5,222.9l4.7-5.5c0.3-0.3,0.7-0.3,1-0.1c0.3,0.3,0.3,0.7,0.1,1l-4.7,5.5c-0.3,0.3-0.7,0.3-1,0.1
				C148.3,223.6,148.2,223.2,148.5,222.9z"/>
		</g>
		<g>
			<path class="st0" d="M121,246.1l22.4-26.2c0.3-0.4,0.9-0.4,1.3-0.1l8.4,7.2c0.4,0.3,0.4,0.9,0.1,1.3l-22.4,26.2
				c-0.3,0.4-0.9,0.4-1.3,0.1l-8.4-7.2C120.7,247.1,120.7,246.5,121,246.1z"/>
		</g>
		<path class="st1" d="M126.7,250.5l3.1-3.6l4.4,3.8l0,0l0.9-1.1l0,0l-4.4-3.8l3.2-3.8l4.4,3.8l0,0l0.9-1.1l0,0l-4.4-3.8l3.2-3.8
			l4.4,3.8l0,0l0.9-1.1l0,0l-4.4-3.8l3.2-3.8l4.4,3.8l0,0l0.9-1.1l0,0l-4.4-3.8l3.2-3.8l4.4,3.8l0,0l0.9-1.1l0,0l-4.4-3.8l2.3-2.7
			l0,0l-1.1-0.9l0,0l-2.3,2.7l-4.4-3.8l0,0l-0.9,1.1l0,0l4.4,3.8l-3.2,3.8l-4.4-3.8l0,0l-0.9,1.1l0,0l4.4,3.8l-3.2,3.8l-4.4-3.8l0,0
			l-0.9,1.1l0,0l4.4,3.8l-3.2,3.8l-4.4-3.8l0,0l-0.9,1.1l0,0l4.4,3.8l-3.2,3.8l-4.4-3.8l0,0l-0.9,1.1l0,0l4.4,3.8l-3.1,3.6
			c-0.3,0.3-0.2,0.7,0.1,1C126,250.9,126.4,250.8,126.7,250.5z"/>
		<g>
			<path class="st2" d="M130.9,254.5l1-1.2l-9.9-8.5l-1,1.2c-0.3,0.4-0.3,1,0.1,1.3l8.4,7.2C130,255,130.6,254.9,130.9,254.5z"/>
		</g>
		<g>
			<path class="st0" d="M166.3,202.1l4.7-5.5c0.3-0.3,0.7-0.3,1-0.1c0.3,0.3,0.3,0.7,0.1,1l-4.7,5.5c-0.3,0.3-0.7,0.3-1,0.1
				C166.1,202.8,166,202.4,166.3,202.1z"/>
		</g>
		<g>
			<path class="st0" d="M199.5,174.4l-22.4,26.2c-0.3,0.4-0.9,0.4-1.3,0.1l-8.4-7.2c-0.4-0.3-0.4-0.9-0.1-1.3l22.4-26.2
				c0.3-0.4,0.9-0.4,1.3-0.1l8.4,7.2C199.8,173.4,199.9,174,199.5,174.4z"/>
		</g>
		<path class="st1" d="M172.1,197.5l2.3-2.7l4.4,3.8l0,0l0.9-1.1l0,0l-4.4-3.8l3.2-3.8l4.4,3.8l0,0l0.9-1.1l0,0l-4.4-3.8l3.2-3.8
			l4.4,3.8l0,0l0.9-1.1l0,0l-4.4-3.8l3.2-3.8l4.4,3.8l0,0l0.9-1.1l0,0l-4.4-3.8l3.2-3.8l4.4,3.8l0,0l0.9-1.1l0,0l-4.4-3.8l3.1-3.6
			c0.3-0.3,0.2-0.7-0.1-1c-0.3-0.3-0.7-0.2-1,0.1l-3.1,3.6l-4.4-3.8l0,0l-0.9,1.1l0,0l4.4,3.8l-3.2,3.8l-4.4-3.8l0,0l-0.9,1.1l0,0
			l4.4,3.8l-3.2,3.8l-4.4-3.8l0,0l-0.9,1.1l0,0l4.4,3.8l-3.2,3.8l-4.4-3.8l0,0l-0.9,1.1l0,0l4.4,3.8l-3.2,3.8l-4.4-3.8l0,0l-0.9,1.1
			l0,0l4.4,3.8l-2.3,2.7L172.1,197.5z"/>
		<g>
			<path class="st2" d="M189.6,165.9l-1,1.2l9.9,8.5l1-1.2c0.3-0.4,0.3-1-0.1-1.3l-8.4-7.2C190.6,165.5,190,165.5,189.6,165.9z"/>
		</g>
		<g>
			<path class="st3" d="M139.7,205.4l12.7-14.8c1.1-1.3,3.1-1.5,4.4-0.3l19.2,16.4c1.3,1.1,1.5,3.1,0.3,4.4L163.7,226
				c-1.1,1.3-3.1,1.5-4.4,0.3L140,209.9C138.7,208.7,138.6,206.8,139.7,205.4z"/>
		</g>
		<g>
			
				<rect x="157.3" y="192.5" transform="matrix(0.6503 -0.7596 0.7596 0.6503 -102.9734 192.8781)" class="st1" width="1.4" height="31.6"/>
		</g>
		<g>
			
				<rect x="147.4" y="204.8" transform="matrix(-0.6503 0.7596 -0.7596 -0.6503 424.1981 225.1798)" class="st2" width="25.8" height="10.8"/>
		</g>
		<g>
			<path class="st0" d="M141.2,199.2l5.2-6.1c1.1-1.2,2.9-1.4,4.2-0.3h0l-9.1,10.6l0,0C140.2,202.3,140.1,200.4,141.2,199.2z"/>
		</g>
		<g>
			<path class="st1" d="M162.6,220.1l7.8-9.1c0.3-0.3,0.7-0.3,1-0.1c0.3,0.3,0.3,0.7,0.1,1l-7.8,9.1c-0.3,0.3-0.7,0.3-1,0.1
				C162.4,220.8,162.3,220.4,162.6,220.1z"/>
		</g>
		<g>
			<path class="st0" d="M174.9,217.4l-5.2,6.1c-1.1,1.2-2.9,1.4-4.2,0.3l0,0l9.1-10.6l0,0C175.8,214.3,176,216.2,174.9,217.4z"/>
		</g>
		<g>
			<g>
				<g>
					<g>
						
							<ellipse transform="matrix(0.6503 -0.7596 0.7596 0.6503 -108.8644 213.5671)" class="st3" cx="177.6" cy="225" rx="17.3" ry="4.2"/>
					</g>
				</g>
			</g>
			<g>
				<g>
					<path class="st0" d="M174.3,222.3c6.2-7.3,12.7-11.9,14.5-10.4c-3-2.6-11,0.7-17.2,8s-8.2,15.7-5.2,18.3
						C164.5,236.6,168.1,229.5,174.3,222.3z"/>
				</g>
			</g>
		</g>
		<g>
			<path class="st1" d="M176.1,223.8c0.3-0.3,0.7-0.3,1-0.1l6.7,5.7c0.3,0.3,0.3,0.7,0.1,1c-0.3,0.3-0.7,0.3-1,0.1l-6.7-5.7
				C175.9,224.5,175.9,224.1,176.1,223.8z"/>
		</g>
		<g>
			
				<ellipse transform="matrix(0.997 -7.728755e-02 7.728755e-02 0.997 -17.2421 14.877)" class="st4" cx="183.6" cy="230.2" rx="2.1" ry="2.1"/>
		</g>
	</g>
	<g>
		<g>
			<path class="st0" d="M30.1,565.2l-1.1-7.1c-0.1-0.4,0.2-0.7,0.6-0.8c0.4-0.1,0.7,0.2,0.8,0.6l1.1,7.1c0.1,0.4-0.2,0.7-0.6,0.8
				C30.5,565.9,30.1,565.6,30.1,565.2z"/>
		</g>
		<g>
			<path class="st0" d="M29.8,601.2l-5.3-34.1c-0.1-0.5,0.3-1,0.8-1.1l11-1.7c0.5-0.1,1,0.3,1.1,0.8l5.3,34.1c0.1,0.5-0.3,1-0.8,1.1
				l-11,1.7C30.4,602,29.9,601.7,29.8,601.2z"/>
		</g>
		<path class="st1" d="M36.9,599.7l-0.7-4.7l5.7-0.9h0l-0.2-1.4h0l-5.7,0.9l-0.8-4.9l5.7-0.9h0l-0.2-1.4h0l-5.7,0.9l-0.8-4.9
			l5.7-0.9h0l-0.2-1.4l0,0l-5.7,0.9l-0.8-4.9l5.7-0.9h0l-0.2-1.4l0,0l-5.7,0.9l-0.8-4.9L38,569h0l-0.2-1.4l0,0l-5.7,0.9l-0.5-3.5
			l0,0l-1.4,0.2l0,0l0.5,3.5l-5.7,0.9h0l0.2,1.4l0,0l5.7-0.9l0.8,4.9l-5.7,0.9h0l0.2,1.4l0,0l5.7-0.9l0.8,4.9l-5.7,0.9h0l0.2,1.4h0
			l5.7-0.9l0.8,4.9l-5.7,0.9l0,0l0.2,1.4h0l5.7-0.9l0.8,4.9l-5.7,0.9l0,0l0.2,1.4h0l5.7-0.9l0.7,4.7c0.1,0.4,0.4,0.6,0.8,0.6
			C36.7,600.5,37,600.1,36.9,599.7z"/>
		<g>
			<path class="st2" d="M42.7,599.1l-0.2-1.5l-12.9,2l0.2,1.5c0.1,0.5,0.6,0.9,1.1,0.8l11-1.7C42.4,600.1,42.8,599.7,42.7,599.1z"/>
		</g>
		<g>
			<path class="st0" d="M25.8,538.2l-1.1-7.1c-0.1-0.4,0.2-0.7,0.6-0.8c0.4-0.1,0.7,0.2,0.8,0.6l1.1,7.1c0.1,0.4-0.2,0.7-0.6,0.8
				C26.3,538.8,25.9,538.6,25.8,538.2z"/>
		</g>
		<g>
			<path class="st0" d="M26.4,494.9l5.3,34.1c0.1,0.5-0.3,1-0.8,1.1l-11,1.7c-0.5,0.1-1-0.3-1.1-0.8l-5.3-34.1
				c-0.1-0.5,0.3-1,0.8-1.1l11-1.7C25.8,494,26.3,494.4,26.4,494.9z"/>
		</g>
		<path class="st1" d="M26.1,530.8l-0.5-3.5l5.7-0.9h0l-0.2-1.4h0l-5.7,0.9l-0.8-4.9l5.7-0.9h0l-0.2-1.4h0l-5.7,0.9l-0.8-4.9
			l5.7-0.9l0,0l-0.2-1.4h0l-5.7,0.9l-0.8-4.9l5.7-0.9h0l-0.2-1.4h0l-5.7,0.9l-0.8-4.9l5.7-0.9h0l-0.2-1.4h0l-5.7,0.9l-0.7-4.7
			c-0.1-0.4-0.4-0.6-0.8-0.6c-0.4,0.1-0.6,0.4-0.6,0.8L20,501l-5.7,0.9h0l0.2,1.4h0l5.7-0.9l0.8,4.9l-5.7,0.9h0l0.2,1.4h0l5.7-0.9
			l0.8,4.9l-5.7,0.9h0l0.2,1.4h0l5.7-0.9l0.8,4.9l-5.7,0.9h0l0.2,1.4h0l5.7-0.9l0.8,4.9l-5.7,0.9h0l0.2,1.4h0l5.7-0.9l0.5,3.5
			L26.1,530.8z"/>
		<g>
			<path class="st2" d="M13.5,496.9l0.2,1.5l12.9-2l-0.2-1.5c-0.1-0.5-0.6-0.9-1.1-0.8l-11,1.7C13.8,495.9,13.4,496.4,13.5,496.9z"
				/>
		</g>
		<g>
			<path class="st3" d="M11.1,560.6l-3-19.3c-0.3-1.7,0.9-3.3,2.6-3.6l25-3.9c1.7-0.3,3.3,0.9,3.6,2.6l3,19.3
				c0.3,1.7-0.9,3.3-2.6,3.6l-25,3.9C13,563.4,11.4,562.3,11.1,560.6z"/>
		</g>
		<g>
			
				<rect x="9.4" y="547.8" transform="matrix(0.988 -0.1546 0.1546 0.988 -84.4796 10.4832)" class="st1" width="31.6" height="1.4"/>
		</g>
		<g>
			
				<rect x="15.2" y="542.7" transform="matrix(0.1546 0.988 -0.988 0.1546 565.1907 435.5612)" class="st2" width="25.8" height="10.8"/>
		</g>
		<g>
			<path class="st0" d="M7.3,555.4l-1.2-8c-0.3-1.6,0.9-3.1,2.5-3.4h0l2.2,13.8h0C9,558.1,7.5,557,7.3,555.4z"/>
		</g>
		<g>
			<path class="st1" d="M37.1,552.7l-1.9-11.9c-0.1-0.4,0.2-0.7,0.6-0.8c0.4-0.1,0.7,0.2,0.8,0.6l1.9,11.9c0.1,0.4-0.2,0.7-0.6,0.8
				C37.5,553.3,37.2,553.1,37.1,552.7z"/>
		</g>
		<g>
			<path class="st0" d="M43.1,541.6l1.2,8c0.3,1.6-0.9,3.1-2.5,3.4h0l-2.2-13.8l0,0C41.3,538.9,42.8,540,43.1,541.6z"/>
		</g>
		<g>
			<g>
				<g>
					<g>
						
							<ellipse transform="matrix(0.988 -0.1546 0.1546 0.988 -83.5585 14.3639)" class="st3" cx="50.6" cy="544.5" rx="4.2" ry="17.3"/>
					</g>
				</g>
			</g>
			<g>
				<g>
					<path class="st0" d="M46.4,545.2c-1.5-9.4-0.8-17.4,1.5-17.7c-3.9,0.6-6.6,8.9-5.1,18.3c1.5,9.4,6.6,16.5,10.5,15.9
						C50.9,562,47.9,554.6,46.4,545.2z"/>
				</g>
			</g>
		</g>
		<g>
			<path class="st1" d="M48.7,544.8c-0.1-0.4,0.2-0.7,0.6-0.8l8.7-1.4c0.4-0.1,0.7,0.2,0.8,0.6c0.1,0.4-0.2,0.7-0.6,0.8l-8.7,1.4
				C49.1,545.5,48.8,545.2,48.7,544.8z"/>
		</g>
		<g>
			
				<ellipse transform="matrix(0.5893 -0.8079 0.8079 0.5893 -414.9405 270.3272)" class="st4" cx="58.4" cy="543.3" rx="2.1" ry="2.1"/>
		</g>
	</g>
	<g>
		<g>
			<path class="st0" d="M222.7,954.7l-3.2-2.5c-0.2-0.1-0.2-0.4-0.1-0.6c0.1-0.2,0.4-0.2,0.6-0.1l3.2,2.5c0.2,0.1,0.2,0.4,0.1,0.6
				S222.9,954.9,222.7,954.7z"/>
		</g>
		<g>
			<path class="st0" d="M236.5,969.4l-15.3-11.8c-0.2-0.2-0.3-0.5-0.1-0.7l3.8-4.9c0.2-0.2,0.5-0.3,0.7-0.1l15.3,11.8
				c0.2,0.2,0.3,0.5,0.1,0.7l-3.8,4.9C237,969.6,236.7,969.6,236.5,969.4z"/>
		</g>
		<path class="st1" d="M238.8,966.1l-2.1-1.6l2-2.6h0l-0.6-0.5l0,0l-2,2.6l-2.2-1.7l2-2.6h0l-0.6-0.5l0,0l-2,2.6l-2.2-1.7l2-2.6h0
			l-0.6-0.5l0,0l-2,2.6l-2.2-1.7l2-2.6h0l-0.6-0.5l0,0l-2,2.6l-2.2-1.7l2-2.6h0l-0.6-0.5l0,0l-2,2.6l-1.6-1.2l0,0l-0.5,0.6l0,0
			l1.6,1.2l-2,2.6l0,0l0.6,0.5h0l2-2.6l2.2,1.7l-2,2.6l0,0l0.6,0.5h0l2-2.6l2.2,1.7l-2,2.6l0,0l0.6,0.5h0l2-2.6l2.2,1.7l-2,2.6l0,0
			l0.6,0.5h0l2-2.6l2.2,1.7l-2,2.6l0,0l0.6,0.5h0l2-2.6l2.1,1.6c0.2,0.1,0.4,0.1,0.6-0.1S239,966.2,238.8,966.1z"/>
		<g>
			<path class="st2" d="M240.9,963.6l-0.7-0.5l-4.4,5.8l0.7,0.5c0.2,0.2,0.6,0.1,0.7-0.1l3.8-4.9
				C241.2,964.1,241.1,963.8,240.9,963.6z"/>
		</g>
		<g>
			<path class="st0" d="M210.5,945.4l-3.2-2.5c-0.2-0.1-0.2-0.4-0.1-0.6s0.4-0.2,0.6-0.1l3.2,2.5c0.2,0.1,0.2,0.4,0.1,0.6
				S210.7,945.5,210.5,945.4z"/>
		</g>
		<g>
			<path class="st0" d="M194,927.7l15.3,11.8c0.2,0.2,0.3,0.5,0.1,0.7l-3.8,4.9c-0.2,0.2-0.5,0.3-0.7,0.1l-15.3-11.8
				c-0.2-0.2-0.3-0.5-0.1-0.7l3.8-4.9C193.4,927.5,193.7,927.5,194,927.7z"/>
		</g>
		<path class="st1" d="M207.8,942.3l-1.6-1.2l2-2.6l0,0l-0.6-0.5h0l-2,2.6l-2.2-1.7l2-2.6h0l-0.6-0.5l0,0l-2,2.6l-2.2-1.7l2-2.6h0
			l-0.6-0.5l0,0l-2,2.6l-2.2-1.7l2-2.6h0l-0.6-0.5l0,0l-2,2.6l-2.2-1.7l2-2.6h0l-0.6-0.5l0,0l-2,2.6l-2.1-1.6
			c-0.2-0.1-0.4-0.1-0.6,0.1s-0.1,0.4,0.1,0.6l2.1,1.6l-2,2.6l0,0l0.6,0.5h0l2-2.6l2.2,1.7l-2,2.6l0,0l0.6,0.5h0l2-2.6l2.2,1.7
			l-2,2.6l0,0l0.6,0.5h0l2-2.6l2.2,1.7l-2,2.6l0,0l0.6,0.5h0l2-2.6l2.2,1.7l-2,2.6l0,0l0.6,0.5h0l2-2.6l1.6,1.2L207.8,942.3z"/>
		<g>
			<path class="st2" d="M189.5,933.4l0.7,0.5l4.4-5.8l-0.7-0.5c-0.2-0.2-0.6-0.1-0.7,0.1l-3.8,4.9
				C189.3,932.9,189.3,933.3,189.5,933.4z"/>
		</g>
		<g>
			<path class="st3" d="M213.2,960.2l-8.7-6.7c-0.8-0.6-0.9-1.7-0.3-2.5l8.6-11.3c0.6-0.8,1.7-0.9,2.5-0.3l8.7,6.7
				c0.8,0.6,0.9,1.7,0.3,2.5l-8.6,11.2C215,960.6,213.9,960.8,213.2,960.2z"/>
		</g>
		<g>
			
				<rect x="205.4" y="949.5" transform="matrix(0.6084 -0.7937 0.7937 0.6084 -669.9603 542.0018)" class="st1" width="17.7" height="0.8"/>
		</g>
		<g>
			
				<rect x="208" y="945.5" transform="matrix(0.7937 0.6084 -0.6084 0.7937 621.4749 64.7947)" class="st2" width="14.4" height="6"/>
		</g>
		<g>
			<path class="st0" d="M209.6,959.6l-3.6-2.7c-0.7-0.6-0.9-1.6-0.3-2.3l0,0l6.2,4.8l0,0C211.4,960,210.3,960.1,209.6,959.6z"/>
		</g>
		<g>
			<path class="st1" d="M220.7,946.9l-5.3-4.1c-0.2-0.1-0.2-0.4-0.1-0.6s0.4-0.2,0.6-0.1l5.3,4.1c0.2,0.1,0.2,0.4,0.1,0.6
				C221.1,947,220.9,947.1,220.7,946.9z"/>
		</g>
		<g>
			<path class="st0" d="M218.8,940.1l3.6,2.7c0.7,0.6,0.9,1.6,0.3,2.3l0,0l-6.2-4.8l0,0C217,939.7,218.1,939.6,218.8,940.1z"/>
		</g>
		<g>
			<g>
				<g>
					<g>
						
							<ellipse transform="matrix(0.6084 -0.7937 0.7937 0.6084 -657.4426 544.4848)" class="st3" cx="223" cy="938.4" rx="2.4" ry="9.7"/>
					</g>
				</g>
			</g>
			<g>
				<g>
					<path class="st0" d="M221.5,940.3c-4.2-3.3-7-6.7-6.2-7.8c-1.3,1.8,0.8,6.1,5,9.4c4.2,3.3,9,4.1,10.4,2.4
						C229.9,945.4,225.8,943.6,221.5,940.3z"/>
				</g>
			</g>
		</g>
		<g>
			<path class="st1" d="M222.3,939.3c-0.2-0.1-0.2-0.4-0.1-0.6l3-3.9c0.1-0.2,0.4-0.2,0.6-0.1c0.2,0.1,0.2,0.4,0.1,0.6l-3,3.9
				C222.8,939.4,222.5,939.4,222.3,939.3z"/>
		</g>
		<g>
			<circle class="st4" cx="225.7" cy="934.9" r="1.2"/>
		</g>
	</g>
	<g>
		<g>
			<path class="st0" d="M53,753l-2.5-3.2c-0.1-0.2-0.1-0.4,0.1-0.6c0.2-0.1,0.4-0.1,0.6,0.1l2.5,3.2c0.1,0.2,0.1,0.4-0.1,0.6
				C53.4,753.2,53.2,753.2,53,753z"/>
		</g>
		<g>
			<path class="st0" d="M62.5,770.8l-11.8-15.3c-0.2-0.2-0.1-0.6,0.1-0.7l4.9-3.8c0.2-0.2,0.6-0.1,0.7,0.1l11.8,15.3
				c0.2,0.2,0.1,0.6-0.1,0.7l-4.9,3.8C63,771.1,62.7,771,62.5,770.8z"/>
		</g>
		<path class="st1" d="M65.6,768.2l-1.6-2.1l2.6-2h0l-0.5-0.6l0,0l-2.6,2l-1.7-2.2l2.6-2h0l-0.5-0.6h0l-2.6,2l-1.7-2.2l2.6-2l0,0
			l-0.5-0.6l0,0l-2.6,2l-1.7-2.2l2.6-2h0l-0.5-0.6l0,0l-2.6,2l-1.7-2.2l2.6-2l0,0l-0.5-0.6h0l-2.6,2l-1.2-1.6l0,0L53,753l0,0
			l1.2,1.6l-2.6,2h0l0.5,0.6h0l2.6-2l1.7,2.2l-2.6,2l0,0l0.5,0.6l0,0l2.6-2l1.7,2.2l-2.6,2h0l0.5,0.6h0l2.6-2l1.7,2.2l-2.6,2l0,0
			l0.5,0.6h0l2.6-2l1.7,2.2l-2.6,2l0,0l0.5,0.6l0,0l2.6-2l1.6,2.1c0.1,0.2,0.4,0.2,0.6,0.1C65.7,768.6,65.8,768.4,65.6,768.2z"/>
		<g>
			<path class="st2" d="M68.3,766.4l-0.5-0.7l-5.8,4.4l0.5,0.7c0.2,0.2,0.5,0.3,0.7,0.1l4.9-3.8C68.5,766.9,68.5,766.6,68.3,766.4z"
				/>
		</g>
		<g>
			<path class="st0" d="M43.7,740.9l-2.5-3.2c-0.1-0.2-0.1-0.4,0.1-0.6c0.2-0.1,0.4-0.1,0.6,0.1l2.5,3.2c0.1,0.2,0.1,0.4-0.1,0.6
				S43.8,741,43.7,740.9z"/>
		</g>
		<g>
			<path class="st0" d="M32.4,719.4l11.8,15.3c0.2,0.2,0.1,0.6-0.1,0.7l-4.9,3.8c-0.2,0.2-0.6,0.1-0.7-0.1l-11.8-15.3
				c-0.2-0.2-0.1-0.6,0.1-0.7l4.9-3.8C31.9,719.1,32.2,719.2,32.4,719.4z"/>
		</g>
		<path class="st1" d="M41.9,737.2l-1.2-1.6l2.6-2l0,0l-0.5-0.6l0,0l-2.6,2l-1.7-2.2l2.6-2h0l-0.5-0.6h0l-2.6,2l-1.7-2.2l2.6-2l0,0
			l-0.5-0.6h0l-2.6,2l-1.7-2.2l2.6-2l0,0l-0.5-0.6l0,0l-2.6,2l-1.7-2.2l2.6-2h0l-0.5-0.6h0l-2.6,2l-1.6-2.1
			c-0.1-0.2-0.4-0.2-0.6-0.1c-0.2,0.1-0.2,0.4-0.1,0.6l1.6,2.1l-2.6,2l0,0l0.5,0.6h0l2.6-2l1.7,2.2l-2.6,2h0l0.5,0.6l0,0l2.6-2
			l1.7,2.2l-2.6,2h0l0.5,0.6h0l2.6-2l1.7,2.2l-2.6,2l0,0l0.5,0.6l0,0l2.6-2l1.7,2.2l-2.6,2h0l0.5,0.6l0,0l2.6-2l1.2,1.6L41.9,737.2z
			"/>
		<g>
			<path class="st2" d="M26.6,723.8l0.5,0.7l5.8-4.4l-0.5-0.7c-0.2-0.2-0.5-0.3-0.7-0.1l-4.9,3.8C26.4,723.3,26.4,723.6,26.6,723.8z
				"/>
		</g>
		<g>
			<path class="st3" d="M42.4,755.8l-6.6-8.7c-0.6-0.8-0.4-1.9,0.3-2.5l11.3-8.6c0.8-0.6,1.9-0.4,2.5,0.3l6.6,8.7
				c0.6,0.8,0.4,1.9-0.3,2.5l-11.3,8.6C44.1,756.7,43,756.6,42.4,755.8z"/>
		</g>
		<g>
			
				<rect x="37.3" y="745.7" transform="matrix(0.794 -0.6079 0.6079 0.794 -444.0467 181.7228)" class="st1" width="17.7" height="0.8"/>
		</g>
		<g>
			
				<rect x="40.2" y="742.1" transform="matrix(0.6079 0.794 -0.794 0.6079 610.2345 254.4928)" class="st2" width="14.4" height="6"/>
		</g>
		<g>
			<path class="st0" d="M39.2,754.3l-2.7-3.6c-0.6-0.7-0.4-1.8,0.3-2.3l0,0l4.8,6.2l0,0C40.8,755.2,39.7,755,39.2,754.3z"/>
		</g>
		<g>
			<path class="st1" d="M53.1,745l-4.1-5.3c-0.1-0.2-0.1-0.4,0.1-0.6c0.2-0.1,0.4-0.1,0.6,0.1l4.1,5.3c0.1,0.2,0.1,0.4-0.1,0.6
				C53.5,745.2,53.3,745.2,53.1,745z"/>
		</g>
		<g>
			<path class="st0" d="M53.1,737.9l2.7,3.6c0.6,0.7,0.4,1.8-0.3,2.3l0,0l-4.8-6.2h0C51.5,737.1,52.5,737.2,53.1,737.9z"/>
		</g>
		<g>
			<g>
				<g>
					<g>
						
							<ellipse transform="matrix(0.794 -0.6079 0.6079 0.794 -436.3608 186.8788)" class="st3" cx="57.6" cy="737.4" rx="2.4" ry="9.7"/>
					</g>
				</g>
			</g>
			<g>
				<g>
					<path class="st0" d="M55.7,738.8c-3.3-4.2-5-8.3-4-9.1c-1.8,1.3-0.9,6.1,2.4,10.4c3.3,4.2,7.6,6.3,9.4,5
						C62.4,745.8,58.9,743,55.7,738.8z"/>
				</g>
			</g>
		</g>
		<g>
			<path class="st1" d="M56.7,738c-0.1-0.2-0.1-0.4,0.1-0.6l3.9-3c0.2-0.1,0.4-0.1,0.6,0.1s0.1,0.4-0.1,0.6l-3.9,3
				C57.1,738.2,56.9,738.2,56.7,738z"/>
		</g>
		<g>
			<circle class="st4" cx="61.1" cy="734.7" r="1.2"/>
		</g>
	</g>
	<g>
		<g>
			<path class="st0" d="M38.8,242.7l2.5-3.2c0.1-0.2,0.4-0.2,0.6-0.1c0.2,0.1,0.2,0.4,0.1,0.6l-2.5,3.2c-0.1,0.2-0.4,0.2-0.6,0.1
				C38.7,243.1,38.6,242.9,38.8,242.7z"/>
		</g>
		<g>
			<path class="st0" d="M24.1,256.5l11.8-15.3c0.2-0.2,0.5-0.3,0.7-0.1l4.9,3.8c0.2,0.2,0.3,0.5,0.1,0.7l-11.8,15.3
				c-0.2,0.2-0.5,0.3-0.7,0.1l-4.9-3.8C23.9,257,23.9,256.7,24.1,256.5z"/>
		</g>
		<path class="st1" d="M27.4,258.8l1.6-2.1l2.6,2l0,0l0.5-0.6h0l-2.6-2l1.7-2.2l2.6,2l0,0l0.5-0.6l0,0l-2.6-2l1.7-2.2l2.6,2l0,0
			l0.5-0.6l0,0l-2.6-2l1.7-2.2l2.6,2l0,0l0.5-0.6l0,0l-2.6-2l1.7-2.2l2.6,2l0,0l0.5-0.6l0,0l-2.6-2l1.2-1.6l0,0l-0.6-0.5l0,0
			l-1.2,1.6l-2.6-2l0,0l-0.5,0.6l0,0l2.6,2l-1.7,2.2l-2.6-2l0,0l-0.5,0.6l0,0l2.6,2l-1.7,2.2l-2.6-2l0,0l-0.5,0.6l0,0l2.6,2
			l-1.7,2.2l-2.6-2l0,0l-0.5,0.6l0,0l2.6,2l-1.7,2.2l-2.6-2l0,0l-0.5,0.6l0,0l2.6,2l-1.6,2.1c-0.1,0.2-0.1,0.4,0.1,0.6
			C27,259,27.3,259,27.4,258.8z"/>
		<g>
			<path class="st2" d="M29.9,260.9l0.5-0.7l-5.8-4.4l-0.5,0.7c-0.2,0.2-0.1,0.6,0.1,0.7l4.9,3.8C29.4,261.2,29.7,261.1,29.9,260.9z
				"/>
		</g>
		<g>
			<path class="st0" d="M48.1,230.5l2.5-3.2c0.1-0.2,0.4-0.2,0.6-0.1c0.2,0.1,0.2,0.4,0.1,0.6l-2.5,3.2c-0.1,0.2-0.4,0.2-0.6,0.1
				C48,230.9,48,230.7,48.1,230.5z"/>
		</g>
		<g>
			<path class="st0" d="M65.8,214l-11.8,15.3c-0.2,0.2-0.5,0.3-0.7,0.1l-4.9-3.8c-0.2-0.2-0.3-0.5-0.1-0.7l11.8-15.3
				c0.2-0.2,0.5-0.3,0.7-0.1l4.9,3.8C66,213.4,66,213.7,65.8,214z"/>
		</g>
		<path class="st1" d="M51.2,227.8l1.2-1.6l2.6,2l0,0l0.5-0.6l0,0l-2.6-2l1.7-2.2l2.6,2l0,0l0.5-0.6l0,0l-2.6-2l1.7-2.2l2.6,2l0,0
			l0.5-0.6l0,0l-2.6-2l1.7-2.2l2.6,2l0,0l0.5-0.6l0,0l-2.6-2l1.7-2.2l2.6,2l0,0l0.5-0.6l0,0l-2.6-2l1.6-2.1c0.1-0.2,0.1-0.4-0.1-0.6
			c-0.2-0.1-0.4-0.1-0.6,0.1l-1.6,2.1l-2.6-2l0,0l-0.5,0.6l0,0l2.6,2l-1.7,2.2l-2.6-2l0,0l-0.5,0.6l0,0l2.6,2l-1.7,2.2l-2.6-2l0,0
			l-0.5,0.6l0,0l2.6,2l-1.7,2.2l-2.6-2l0,0l-0.5,0.6l0,0l2.6,2l-1.7,2.2l-2.6-2l0,0l-0.5,0.6l0,0l2.6,2l-1.2,1.6L51.2,227.8z"/>
		<g>
			<path class="st2" d="M60.1,209.5l-0.5,0.7l5.8,4.4l0.5-0.7c0.2-0.2,0.1-0.6-0.1-0.7l-4.9-3.8C60.6,209.3,60.2,209.3,60.1,209.5z"
				/>
		</g>
		<g>
			<path class="st3" d="M33.3,233.2l6.7-8.7c0.6-0.8,1.7-0.9,2.5-0.3l11.3,8.6c0.8,0.6,0.9,1.7,0.3,2.5l-6.7,8.7
				c-0.6,0.8-1.7,0.9-2.5,0.3l-11.3-8.6C32.9,235,32.7,233.9,33.3,233.2z"/>
		</g>
		<g>
			
				<rect x="43.3" y="225.4" transform="matrix(0.6084 -0.7937 0.7937 0.6084 -168.7932 126.3704)" class="st1" width="0.8" height="17.7"/>
		</g>
		<g>
			
				<rect x="37.7" y="232.2" transform="matrix(-0.6084 0.7937 -0.7937 -0.6084 259.0099 342.6447)" class="st2" width="14.4" height="6"/>
		</g>
		<g>
			<path class="st0" d="M33.9,229.6l2.7-3.6c0.6-0.7,1.6-0.9,2.3-0.3h0l-4.8,6.2l0,0C33.5,231.4,33.4,230.3,33.9,229.6z"/>
		</g>
		<g>
			<path class="st1" d="M46.6,240.7l4.1-5.3c0.1-0.2,0.4-0.2,0.6-0.1c0.2,0.1,0.2,0.4,0.1,0.6l-4.1,5.3c-0.1,0.2-0.4,0.2-0.6,0.1
				S46.4,240.9,46.6,240.7z"/>
		</g>
		<g>
			<path class="st0" d="M53.4,238.8l-2.7,3.6c-0.6,0.7-1.6,0.9-2.3,0.3l0,0l4.8-6.2h0C53.8,237,53.9,238.1,53.4,238.8z"/>
		</g>
		<g>
			<g>
				<g>
					<g>
						
							<ellipse transform="matrix(0.6084 -0.7937 0.7937 0.6084 -171.2817 138.8836)" class="st3" cx="55.1" cy="243" rx="9.7" ry="2.4"/>
					</g>
				</g>
			</g>
			<g>
				<g>
					<path class="st0" d="M53.2,241.5c3.3-4.2,6.7-7,7.8-6.2c-1.8-1.3-6.1,0.8-9.4,5c-3.3,4.2-4.1,9-2.4,10.4
						C48.1,249.9,49.9,245.8,53.2,241.5z"/>
				</g>
			</g>
		</g>
		<g>
			<path class="st1" d="M54.2,242.3c0.1-0.2,0.4-0.2,0.6-0.1l3.9,3c0.2,0.1,0.2,0.4,0.1,0.6c-0.1,0.2-0.4,0.2-0.6,0.1l-3.9-3
				C54.1,242.8,54.1,242.5,54.2,242.3z"/>
		</g>
		<g>
			<circle class="st4" cx="58.6" cy="245.7" r="1.2"/>
		</g>
	</g>
	<g>
		<g>
			<path class="st0" d="M240.5,73l3.2-2.5c0.2-0.1,0.4-0.1,0.6,0.1s0.1,0.4-0.1,0.6l-3.2,2.5c-0.2,0.1-0.4,0.1-0.6-0.1
				C240.3,73.4,240.3,73.2,240.5,73z"/>
		</g>
		<g>
			<path class="st0" d="M222.7,82.5l15.3-11.8c0.2-0.2,0.6-0.1,0.7,0.1l3.8,4.9c0.2,0.2,0.1,0.6-0.1,0.7l-15.3,11.8
				c-0.2,0.2-0.6,0.1-0.7-0.1l-3.8-4.9C222.4,83,222.5,82.7,222.7,82.5z"/>
		</g>
		<path class="st1" d="M225.3,85.6l2.1-1.6l2,2.6l0,0l0.6-0.5l0,0l-2-2.6l2.2-1.7l2,2.6l0,0l0.6-0.5l0,0l-2-2.6l2.2-1.7l2,2.6l0,0
			l0.6-0.5l0,0l-2-2.6l2.2-1.7l2,2.6l0,0l0.6-0.5l0,0l-2-2.6l2.2-1.7l2,2.6l0,0l0.6-0.5l0,0l-2-2.6l1.6-1.2l0,0l-0.5-0.6l0,0
			l-1.6,1.2l-2-2.6l0,0l-0.6,0.5l0,0l2,2.6l-2.2,1.7l-2-2.6l0,0l-0.6,0.5l0,0l2,2.6l-2.2,1.7l-2-2.6l0,0l-0.6,0.5l0,0l2,2.6
			l-2.2,1.7l-2-2.6l0,0l-0.6,0.5l0,0l2,2.6l-2.2,1.7l-2-2.6l0,0l-0.6,0.5l0,0l2,2.6l-2.1,1.6c-0.2,0.1-0.2,0.4-0.1,0.6
			C224.9,85.7,225.1,85.8,225.3,85.6z"/>
		<g>
			<path class="st2" d="M227.1,88.3l0.7-0.5l-4.4-5.8l-0.7,0.5c-0.2,0.2-0.3,0.5-0.1,0.7l3.8,4.9C226.6,88.5,226.9,88.5,227.1,88.3z
				"/>
		</g>
		<g>
			<path class="st0" d="M252.6,63.7l3.2-2.5c0.2-0.1,0.4-0.1,0.6,0.1s0.1,0.4-0.1,0.6l-3.2,2.5c-0.2,0.1-0.4,0.1-0.6-0.1
				S252.5,63.8,252.6,63.7z"/>
		</g>
		<g>
			<path class="st0" d="M274.1,52.4l-15.3,11.8c-0.2,0.2-0.6,0.1-0.7-0.1l-3.8-4.9c-0.2-0.2-0.1-0.6,0.1-0.7l15.3-11.8
				c0.2-0.2,0.6-0.1,0.7,0.1l3.8,4.9C274.4,51.9,274.3,52.2,274.1,52.4z"/>
		</g>
		<path class="st1" d="M256.3,61.9l1.6-1.2l2,2.6l0,0l0.6-0.5l0,0l-2-2.6l2.2-1.7l2,2.6l0,0l0.6-0.5v0l-2-2.6l2.2-1.7l2,2.6l0,0
			l0.6-0.5l0,0l-2-2.6l2.2-1.7l2,2.6l0,0l0.6-0.5l0,0l-2-2.6l2.2-1.7l2,2.6l0,0l0.6-0.5v0l-2-2.6l2.1-1.6c0.2-0.1,0.2-0.4,0.1-0.6
			s-0.4-0.2-0.6-0.1l-2.1,1.6l-2-2.6l0,0l-0.6,0.5v0l2,2.6l-2.2,1.7l-2-2.6l0,0l-0.6,0.5v0l2,2.6l-2.2,1.7l-2-2.6v0l-0.6,0.5l0,0
			l2,2.6l-2.2,1.7l-2-2.6l0,0l-0.6,0.5l0,0l2,2.6l-2.2,1.7l-2-2.6l0,0l-0.6,0.5l0,0l2,2.6l-1.6,1.2L256.3,61.9z"/>
		<g>
			<path class="st2" d="M269.7,46.6l-0.7,0.5l4.4,5.8l0.7-0.5c0.2-0.2,0.3-0.5,0.1-0.7l-3.8-4.9C270.2,46.4,269.9,46.4,269.7,46.6z"
				/>
		</g>
		<g>
			<path class="st3" d="M237.7,62.4l8.7-6.6c0.8-0.6,1.9-0.4,2.5,0.3l8.6,11.3c0.6,0.8,0.4,1.9-0.3,2.5l-8.7,6.6
				c-0.8,0.6-1.9,0.4-2.5-0.3l-8.6-11.3C236.8,64.1,236.9,63,237.7,62.4z"/>
		</g>
		<g>
			<rect x="247" y="57.3" transform="matrix(0.794 -0.6079 0.6079 0.794 10.754 164.0098)" class="st1" width="0.8" height="17.7"/>
		</g>
		<g>
			
				<rect x="241.2" y="64.4" transform="matrix(-0.794 0.6079 -0.6079 -0.794 486.6419 -29.9871)" class="st2" width="14.4" height="6"/>
		</g>
		<g>
			<path class="st0" d="M239.2,59.2l3.6-2.7c0.7-0.6,1.8-0.4,2.3,0.3l0,0l-6.2,4.8l0,0C238.3,60.8,238.5,59.7,239.2,59.2z"/>
		</g>
		<g>
			<path class="st1" d="M248.5,73.1l5.3-4.1c0.2-0.1,0.4-0.1,0.6,0.1c0.1,0.2,0.1,0.4-0.1,0.6l-5.3,4.1c-0.2,0.1-0.4,0.1-0.6-0.1
				C248.3,73.5,248.3,73.3,248.5,73.1z"/>
		</g>
		<g>
			<path class="st0" d="M255.6,73.1l-3.6,2.7c-0.7,0.6-1.8,0.4-2.3-0.3l0,0l6.2-4.8l0,0C256.4,71.5,256.3,72.6,255.6,73.1z"/>
		</g>
		<g>
			<g>
				<g>
					<g>
						
							<ellipse transform="matrix(0.794 -0.6079 0.6079 0.794 5.5939 171.6899)" class="st3" cx="256.1" cy="77.6" rx="9.7" ry="2.4"/>
					</g>
				</g>
			</g>
			<g>
				<g>
					<path class="st0" d="M254.7,75.7c4.2-3.3,8.3-5,9.1-4c-1.3-1.8-6.1-0.9-10.4,2.4c-4.2,3.3-6.3,7.6-5,9.4
						C247.7,82.4,250.5,79,254.7,75.7z"/>
				</g>
			</g>
		</g>
		<g>
			<path class="st1" d="M255.5,76.7c0.2-0.1,0.4-0.1,0.6,0.1l3,3.9c0.1,0.2,0.1,0.4-0.1,0.6c-0.2,0.1-0.4,0.1-0.6-0.1l-3-3.9
				C255.3,77.1,255.3,76.9,255.5,76.7z"/>
		</g>
		<g>
			<circle class="st4" cx="258.9" cy="81.1" r="1.2"/>
		</g>
	</g>
	<circle class="st5" cx="500" cy="500" r="353.9"/>
</g>
</svg>
