<?xml version="1.0" encoding="utf-8"?>
<!-- Generator: Adobe Illustrator 27.3.1, SVG Export Plug-In . SVG Version: 6.00 Build 0)  -->
<svg version="1.1" xmlns="http://www.w3.org/2000/svg" xmlns:xlink="http://www.w3.org/1999/xlink" x="0px" y="0px"
	 viewBox="0 0 767.5 393.3" style="enable-background:new 0 0 767.5 393.3;" xml:space="preserve">
<style type="text/css">
	.st0{fill:#3E4546;}
	.st1{fill:#90A6B4;}
	.st2{fill:#BC3E30;}
	.st3{fill:#EDF5F7;}
	.st4{fill:#DC544F;}
</style>
<g id="BG">
</g>
<g id="Object">
	<g>
		<g>
			<path class="st0" d="M260.3,148.9l51.6,0.6c2.8,0,5,2.3,4.9,5.1c0,2.8-2.3,5-5.1,4.9l-51.6-0.6c-2.8,0-5-2.3-4.9-5.1
				C255.3,151.1,257.5,148.9,260.3,148.9z"/>
		</g>
		<g>
			<path class="st0" d="M7.8,104.4l246.2,2.9c3.8,0,6.8,3.1,6.7,6.9l-0.9,79.3c0,3.8-3.1,6.8-6.9,6.7L6.7,197.4
				c-3.8,0-6.8-3.1-6.7-6.9l0.9-79.3C1,107.4,4.1,104.4,7.8,104.4z"/>
		</g>
		<path class="st1" d="M9.3,155.9l33.9,0.4l-0.5,41.5l0,0l10,0.1l0,0l0.5-41.5l35.5,0.4l-0.5,41.5l0,0l10,0.1l0,0l0.5-41.5l35.5,0.4
			l-0.5,41.5v0l10,0.1l0,0l0.5-41.5l35.5,0.4l-0.5,41.5l0,0l10,0.1l0,0l0.5-41.5l35.5,0.4l-0.5,41.5l0,0l10,0.1l0,0l0.5-41.5l25,0.3
			l0,0l0.1-10l0,0l-25-0.3l0.5-41.5v0l-10-0.1l0,0l-0.5,41.5l-35.5-0.4l0.5-41.5v0l-10-0.1l0,0l-0.5,41.5l-35.5-0.4l0.5-41.5l0,0
			l-10-0.1l0,0l-0.5,41.5L98.8,147l0.5-41.5l0,0l-10-0.1l0,0l-0.5,41.5l-35.5-0.4l0.5-41.5l0,0l-10-0.1l0,0l-0.5,41.5l-33.9-0.4
			c-2.8,0-5,2.2-5.1,4.9C4.3,153.6,6.6,155.9,9.3,155.9z"/>
		<g>
			<path class="st2" d="M6.7,197.4l11,0.1l1.1-92.9l-11-0.1c-3.8,0-6.8,3-6.9,6.7L0,190.5C0,194.3,3,197.3,6.7,197.4z"/>
		</g>
		<g>
			<path class="st0" d="M455.8,151.3l51.6,0.6c2.8,0,5,2.3,4.9,5.1c0,2.8-2.3,5-5.1,4.9l-51.6-0.6c-2.8,0-5-2.3-4.9-5.1
				C450.7,153.4,453,151.2,455.8,151.3z"/>
		</g>
		<g>
			<path class="st0" d="M759.7,206.3l-246.2-2.9c-3.8,0-6.8-3.1-6.7-6.9l0.9-79.3c0-3.8,3.1-6.8,6.9-6.7l246.2,2.9
				c3.8,0,6.8,3.1,6.7,6.9l-0.9,79.3C766.5,203.4,763.4,206.4,759.7,206.3z"/>
		</g>
		<path class="st1" d="M507.2,161.9l25,0.3l-0.5,41.5l0,0l10,0.1l0,0l0.5-41.5l35.5,0.4l-0.5,41.5l0,0l10,0.1l0,0l0.5-41.5l35.5,0.4
			l-0.5,41.5l0,0l10,0.1l0,0l0.5-41.5l35.5,0.4l-0.5,41.5l0,0l10,0.1l0,0l0.5-41.5l35.5,0.4l-0.5,41.5v0l10,0.1l0,0l0.5-41.5
			l33.9,0.4c2.8,0,5-2.2,5.1-4.9c0-2.8-2.2-5-4.9-5.1l-33.9-0.4l0.5-41.5l0,0l-10-0.1l0,0l-0.5,41.5l-35.5-0.4l0.5-41.5l0,0l-10-0.1
			v0l-0.5,41.5l-35.5-0.4l0.5-41.5l0,0l-10-0.1v0l-0.5,41.5l-35.5-0.4l0.5-41.5l0,0l-10-0.1l0,0l-0.5,41.5l-35.5-0.4l0.5-41.5v0
			l-10-0.1l0,0l-0.5,41.5l-25-0.3L507.2,161.9z"/>
		<g>
			<path class="st2" d="M760.8,113.4l-11-0.1l-1.1,92.9l11,0.1c3.8,0,6.8-3,6.9-6.7l0.9-79.3C767.5,116.5,764.5,113.5,760.8,113.4z"
				/>
		</g>
		<g>
			<path class="st3" d="M315.7,20.9l139.2,1.7c12.3,0.1,22.2,10.3,22.1,22.6l-2.1,180.5c-0.1,12.3-10.3,22.2-22.6,22.1l-139.2-1.7
				c-12.3-0.1-22.2-10.3-22.1-22.6l2.1-180.5C293.3,30.6,303.4,20.7,315.7,20.9z"/>
		</g>
		<g>
			
				<rect x="271.4" y="129.3" transform="matrix(1.189445e-02 -0.9999 0.9999 1.189445e-02 245.159 516.6622)" class="st1" width="225.2" height="10"/>
		</g>
		<g>
			
				<rect x="291.8" y="117" transform="matrix(-0.9999 -1.190152e-02 1.190152e-02 -0.9999 765.6248 315.3444)" class="st2" width="183.9" height="76.7"/>
		</g>
		<g>
			<path class="st0" d="M348.3,0l74.7,0.9c7,0.1,12.6,5.8,12.5,12.8l-0.1,8.6l-100-1.2l0.1-8.6C335.6,5.5,341.3-0.1,348.3,0z"/>
		</g>
		<g>
			<path class="st1" d="M340.2,213.3l85.7,1c2.8,0,5,2.3,4.9,5.1c0,2.8-2.3,5-5.1,4.9l-85.7-1c-2.8,0-5-2.3-4.9-5.1
				C335.2,215.5,337.4,213.2,340.2,213.3z"/>
		</g>
		<g>
			<path class="st0" d="M419.7,268.6l-74.7-0.9c-7-0.1-12.6-5.8-12.5-12.8l0.1-8.6l100,1.2l-0.1,8.6
				C432.5,263.1,426.7,268.7,419.7,268.6z"/>
		</g>
		<g>
			<g>
				<g>
					<g>
						
							<ellipse transform="matrix(1.190152e-02 -0.9999 0.9999 1.190152e-02 59.297 695.7395)" class="st3" cx="381.7" cy="317.9" rx="30.3" ry="123.4"/>
					</g>
				</g>
			</g>
			<g>
				<g>
					<path class="st0" d="M382,287.5c68.1,0.8,123.2,15,123,31.8c0.3-28.2-54.6-57-122.7-57.8c-68.1-0.8-123.7,26.7-124,54.8
						C258.5,299.7,313.9,286.7,382,287.5z"/>
				</g>
			</g>
		</g>
		<g>
			<path class="st1" d="M381.8,304.2c2.8,0,5,2.3,4.9,5.1L386,372c0,2.8-2.3,5-5.1,4.9c-2.8,0-5-2.3-4.9-5.1l0.7-62.8
				C376.8,306.4,379.1,304.2,381.8,304.2z"/>
		</g>
		<g>
			
				<ellipse transform="matrix(0.7155 -0.6986 0.6986 0.7155 -153.1923 372.7282)" class="st4" cx="381" cy="374.4" rx="15.1" ry="15.1"/>
		</g>
	</g>
</g>
</svg>
