<?xml version="1.0" encoding="utf-8"?>
<!-- Generator: Adobe Illustrator 27.3.1, SVG Export Plug-In . SVG Version: 6.00 Build 0)  -->
<svg version="1.1" id="Layer_1" xmlns="http://www.w3.org/2000/svg" xmlns:xlink="http://www.w3.org/1999/xlink" x="0px" y="0px"
	 viewBox="0 0 60.4 143.3" style="enable-background:new 0 0 60.4 143.3;" xml:space="preserve">
<style type="text/css">
	.st0{fill:#ED1C24;}
	.st1{opacity:0.6;fill:#F1E10A;}
	.st2{opacity:0.6;fill:#F3E235;}
	.st3{fill:#EAC076;}
	.st4{fill:#E7F6FD;}
	.st5{fill:#939698;}
	.st6{fill:#575A5B;}
	.st7{fill:#626467;}
	.st8{fill:url(#SVGID_1_);}
	.st9{fill:#3A3C3F;}
	.st10{opacity:0.6;fill:#B3B5B8;}
	.st11{fill:url(#SVGID_00000090979879261726927440000013056350666685448347_);}
	.st12{fill:#9D9FA1;}
	.st13{opacity:0.5;fill:#9D9FA1;}
	.st14{fill:#C2C4C6;}
	.st15{fill:#3E4042;}
	.st16{fill:#76797B;}
	.st17{opacity:0.4;fill:#FFFFFF;}
	.st18{fill:#61626B;}
	.st19{fill:url(#SVGID_00000131335692379252254090000008294922901922656428_);}
	.st20{fill:url(#SVGID_00000176015382395181950670000014216330398215120287_);}
	.st21{fill:url(#SVGID_00000134940169652508225990000004307801412562325894_);}
	.st22{fill:url(#SVGID_00000139276340502094916130000016640690897102677939_);}
	.st23{fill:#AAACAE;}
	.st24{opacity:0.4;fill:#EFEFF0;}
	.st25{fill:url(#SVGID_00000072242158706674345480000018158508198587278748_);}
	.st26{fill:url(#SVGID_00000160178223255330078120000015068744977197483402_);}
	.st27{fill:#657483;}
	.st28{fill:url(#SVGID_00000098922947051613655420000017830251719567799712_);}
	.st29{fill:url(#SVGID_00000072247756565558618450000005804439419213727165_);}
	.st30{fill:url(#SVGID_00000175303045190430721770000002180806651594330519_);}
	.st31{fill:#FFFFFF;}
	.st32{fill:url(#SVGID_00000178926204047447801130000006873689986872176556_);}
	.st33{fill:url(#SVGID_00000135656355790459867290000014408141353773643708_);}
	.st34{fill:url(#SVGID_00000016785042673073789050000016286329361248224412_);}
	.st35{fill:url(#SVGID_00000122703800391978289100000011917009822930711993_);}
	.st36{fill:url(#SVGID_00000087403634627709779020000001417117984465943963_);}
	.st37{fill:url(#SVGID_00000049214706954254114480000001729184683030635192_);}
	.st38{fill:#C2BFC0;}
	.st39{fill:#303134;}
	.st40{fill:#A9ABAE;}
	.st41{fill:url(#SVGID_00000155842332776338195630000010038893180449180590_);}
	.st42{fill:#5A5B5D;}
</style>
<g>
	<g>
		<path class="st0" d="M22.1,137.1c0-0.2,0.1-0.4,0.1-0.7c0.1-0.4,0.2-0.8,0.3-1.2c0.1-0.7,0.8-4.1,1-5.2c0.2-1.3,0.5-2.7,0.8-4
			c0.1-0.6,0.7-3.2,0.7-3.2c0.1,1-0.2,2-0.3,3c0-0.1,0.1-0.2,0.1-0.4c0.6-2.7,0.9-5.6,1.5-8.3c0,0,0,1.3-0.1,2
			c0.1-0.5,0.2-1.1,0.3-1.6c0.1-0.5,0.3-1.6,0.3-1.5c-0.1,1-0.3,2-0.4,3c0.2-0.8,0.4-1.7,0.6-2.5c0.3-1.6,0.7-3.2,1.1-4.7
			c0.3-1.3,0.5-2.7,0.5-4c0-1.3-0.5-2.5-1.3-3.1c-2.1-1.7-5.4-0.6-6.4,2.7c-0.3,1.1-0.7,3.5-0.7,4.6c0,1,0.1,3.3,0.2,4.3
			c0,0.4,0,0.8,0.1,1.1c0.1,1.2,0.2,2.5,0.4,3.7c0-1.3,0-3.9,0-3.8c0.1,0.5,0.1,1.1,0.1,1.7c0,0.6,0.1,1.3,0.1,1.9
			c0,0.6,0.1,1.2,0.1,1.8c0,0.5,0,1.1,0.1,1.6c0.1-1.4,0.4-5,0.4-5c0,0.3,0,0.6,0,0.9c0,1,0,2,0,3c0,1.3,0.1,2.5,0.1,3.8
			c0,1.9,0,3.8,0.1,5.7c0.1-1.9,0.5-5.7,0.5-5.6c0,2.3,0,4.6-0.1,6.9C22.3,134.9,22.1,136,22.1,137.1z"/>
		<path class="st1" d="M24.9,104.4c0.5,0,1,0,1.4,0.2c0.4,0.2,0.8,0.5,1.1,1c0.3,0.5,0.6,1.2,0.7,1.9c0.1,0.4,0.1,0.7,0.1,1.1
			c0,0.3,0,0.6,0,0.9c0,0,0,0,0,0c0-0.3,0.1-0.7,0.1-1c0-0.4,0-0.7-0.1-1.1c-0.1-0.7-0.4-1.4-0.7-2
			C26.9,104.4,25.9,104.3,24.9,104.4C24.9,104.4,24.9,104.4,24.9,104.4z"/>
		<path class="st1" d="M21.9,106c-0.1,0.2-0.3,0.5-0.4,0.8c-0.5,1-0.8,2.2-0.9,3.4c0,0,0,0,0,0c0.2-1.1,0.5-2.2,1-3.2
			c0.2-0.5,0.5-0.9,0.8-1.3c0.2-0.2,0.3-0.4,0.5-0.6C22.5,105.3,22.2,105.6,21.9,106z"/>
		<path class="st1" d="M28.7,112.9c0.1-0.4,0.3-0.9,0.4-1.3c0.1-0.4,0.2-0.9,0.3-1.3c0.1-0.9,0.2-1.8,0.1-2.6
			c-0.1-0.9-0.2-1.7-0.6-2.4c-0.3-0.7-0.8-1.2-1.3-1.6c0,0,0,0,0,0.1c1,0.8,1.6,2.5,1.7,4.1c0.1,0.8,0,1.7-0.1,2.5
			C29.1,111.2,28.9,112,28.7,112.9C28.7,112.9,28.7,112.9,28.7,112.9z"/>
		<path class="st1" d="M23.4,103.7c0.3-0.1,0.7-0.2,1-0.3c0.3-0.1,0.6-0.1,0.9-0.1c0.1,0,0.2,0,0.4,0c0.2,0,0.5,0.1,0.7,0.1
			c0.1,0.1,0.3,0.1,0.4,0.2c-0.4-0.4-0.9-0.7-1.4-0.7c-0.6-0.1-1.2,0.1-1.7,0.3c-0.6,0.2-1.1,0.7-1.6,1.3c-0.1,0.1-0.2,0.3-0.3,0.4
			C22.2,104.4,22.8,103.9,23.4,103.7z"/>
		<path class="st1" d="M19.8,111.9c0-0.2,0-0.5,0-0.7c0-0.3,0-0.5,0.1-0.8c0.1-0.5,0.1-1,0.2-1.5c0.2-1,0.4-1.9,0.7-2.8
			c0,0,0-0.1,0-0.1c-0.2,0.4-0.4,0.8-0.6,1.3c-0.1,0.5-0.2,1-0.3,1.5c-0.1,0.5-0.1,1.1-0.2,1.6c0,0.3,0,0.5,0,0.8
			C19.7,111.5,19.7,111.7,19.8,111.9C19.7,111.9,19.8,111.9,19.8,111.9z"/>
		<path class="st1" d="M27.2,116.9c0.1-0.5,0.3-0.9,0.4-1.4c0.2-0.5,0.3-1.1,0.5-1.6c0.3-1.1,0.6-2.2,0.8-3.4c0-0.1,0-0.1-0.1,0
			c-0.2,0.5-0.3,1.1-0.4,1.6c-0.1,0.6-0.3,1.1-0.4,1.7c-0.1,0.6-0.3,1.1-0.4,1.7C27.4,115.9,27.2,116.4,27.2,116.9
			C27.1,116.9,27.2,116.9,27.2,116.9z"/>
		<path class="st1" d="M20.4,117.6c-0.1-1.9-0.1-3.8-0.2-5.7c0-0.1-0.1,0-0.1,0.1c-0.1,0.9,0,1.9,0,2.8
			C20.1,115.7,20.2,116.7,20.4,117.6C20.3,117.6,20.4,117.6,20.4,117.6z"/>
		<path class="st1" d="M21.4,127.6c0-0.8-0.1-1.6-0.1-2.4c0-0.8-0.2-1.6-0.3-2.4c-0.1-0.5-0.1-0.9-0.2-1.4c0,0.7,0.1,1.5,0.1,2.2
			c0.1,0.5,0.1,1.1,0.2,1.6C21.2,126.1,21.3,126.9,21.4,127.6C21.3,127.7,21.4,127.6,21.4,127.6z"/>
		<path class="st1" d="M21.4,137c0.1-1.6,0.1-3.2,0.1-4.8c0-0.8,0-1.6-0.1-2.3c0-0.7-0.1-1.5-0.2-2.2c0-0.1-0.1,0-0.1,0.1
			C21.3,130.8,21.3,133.9,21.4,137C21.3,137,21.3,137,21.4,137z"/>
		<path class="st1" d="M23.4,132.2c-0.1,0.5-0.2,1.1-0.3,1.6c0,0.3-0.1,0.7-0.2,1c-0.1,0.6-0.1,1.2-0.2,1.8c0-0.1,0.1-0.3,0.1-0.4
			c0.2-0.7,0.3-1.4,0.4-2.1c0.1-0.7,0.3-1.4,0.4-2.1c0.1-0.5,0.1-1,0.2-1.5C23.7,131,23.5,131.6,23.4,132.2z"/>
		<path class="st1" d="M24.1,131c0.1-0.4,0.2-0.8,0.3-1.1c0.1-0.4,0.2-0.9,0.3-1.3c0.2-0.9,0.4-1.8,0.6-2.7c0.2-0.9,0.4-1.8,0.6-2.7
			c0.2-0.9,0.3-1.8,0.4-2.7c0,0,0,0,0,0c-0.2,0.9-0.4,1.8-0.6,2.7c-0.2,0.9-0.4,1.9-0.6,2.8c-0.2,0.9-0.4,1.8-0.6,2.7
			c-0.1,0.4-0.2,0.9-0.2,1.3C24.2,130.3,24.1,130.6,24.1,131C24.1,131.1,24.1,131.1,24.1,131z"/>
		<path class="st1" d="M25.7,124.7c0-0.2,0.1-0.4,0.2-0.6c0.1-0.2,0.1-0.4,0.2-0.6c0.1-0.4,0.3-0.9,0.4-1.3c0.3-0.9,0.5-1.9,0.8-2.8
			c0.5-1.8,1-3.7,1.4-5.6c0-0.1,0-0.1,0,0c-0.5,1.9-1,3.7-1.5,5.6c-0.2,0.9-0.5,1.9-0.7,2.8c-0.1,0.5-0.3,0.9-0.4,1.4
			C25.8,123.9,25.7,124.3,25.7,124.7C25.7,124.7,25.7,124.7,25.7,124.7z"/>
		<path class="st1" d="M21.3,141.2c0-0.4,0-0.8-0.1-1.2c0-0.4-0.1-0.9-0.1-1.3c0-0.9-0.1-1.8-0.1-2.8c0-0.9,0-1.8-0.1-2.8
			c0-0.9,0.1-1.8,0.1-2.8c0,0,0,0,0,0c0,0.9,0.1,1.8,0.1,2.7c0,0.9,0,1.9,0,2.8c0,0.9,0,1.8,0,2.7c0,0.4,0,0.9,0,1.3
			C21.3,140.5,21.3,140.8,21.3,141.2C21.3,141.3,21.3,141.3,21.3,141.2z"/>
		<path class="st1" d="M20.9,128c0-0.2,0-0.4-0.1-0.6c0-0.2,0-0.4-0.1-0.6c-0.1-0.5-0.1-0.9-0.2-1.4c-0.1-1-0.2-1.9-0.3-2.9
			c-0.2-1.9-0.3-3.8-0.4-5.7c0-0.1,0,0,0,0c0.2,1.9,0.3,3.8,0.5,5.7c0.1,1,0.2,1.9,0.2,2.9c0,0.4,0.1,0.9,0.1,1.5
			C20.9,127.3,20.9,127.7,20.9,128C20.9,128.1,20.9,128.1,20.9,128z"/>
		<path class="st1" d="M22.4,102.8c-0.7,0.5-1.3,1.2-1.8,2c-0.5,0.9-0.9,2.1-1.2,3.2c-0.3,1.2-0.2,2.6-0.2,3.8
			c0,1.3,0.2,2.6,0.2,3.9c0,0,0,0,0,0c0-1-0.1-2.1-0.1-3.1c-0.1-1.3,0-2.6,0.2-3.9C20,106.4,21,104.3,22.4,102.8
			C22.5,102.9,22.5,102.8,22.4,102.8z"/>
		<path class="st1" d="M29.8,106C29.8,106,29.8,106,29.8,106c-0.4-1.4-1.2-2.7-2.2-3.3c-0.4-0.3-1-0.5-1.5-0.5
			c-0.5-0.1-1.2,0-1.7,0.2c0,0,0,0.1,0,0.1c1.1-0.3,2.3-0.1,3.2,0.6c1,0.8,1.7,1.9,2.1,3.5c0.4,1.5,0.3,3.1,0.1,4.7
			c-0.2,1.7-0.5,3.3-0.9,4.9c0,0,0,0,0,0c0.4-1.8,0.8-3.5,1-5.4C30.1,109,30.2,107.4,29.8,106z"/>
		<path class="st2" d="M27,113c0,0.2,0,0.5,0,0.7c0,0.6-0.2,1.2-0.2,1.8c0.1-0.4,0.3-0.7,0.4-1.1c0.4-2,1-4.1,1-6.2
			c0-1.1-0.1-2.2-0.6-3c-0.5-0.8-1.1-1.1-1.8-1.3c-1.3-0.3-2.8,0.5-3.7,2c-0.5,0.7-0.9,1.9-1.1,2.8c-0.1,0.5-0.2,1.1-0.2,1.7
			c-0.1,0.6-0.1,1.2,0,1.7c0,0.1,0.1,0,0.1-0.1c0.1-0.5,0.2-1,0.4-1.5c0.1-0.4,0.3-0.9,0.4-1.3c-0.1,0.3-0.2,0.6-0.3,0.9
			c-0.1,0.5-0.2,1-0.3,1.5c-0.1,1-0.2,2.1-0.1,3c0,0.1,0.1,0,0.1-0.1c0.1-0.4,0.2-0.9,0.2-1.3c0.1-0.4,0.2-1,0.4-1.4
			c-0.1,0.5-0.2,1.1-0.3,1.6c-0.1,0.8-0.1,1.5-0.1,2.3c0,0.8,0,1.6,0,2.3c0,0.4,0,1.1,0.1,1.5c0,0.1,0.1,0,0.1-0.1
			c0.1-0.4,0.2-1,0.2-1.4c0.1-0.8,0.3-1.6,0.5-2.4c0-0.1,0-0.1,0.1-0.2c0,0.1,0,0.2,0,0.3c0,1.1,0,2.2,0,3.2c0,1.2,0.1,2.5,0.1,3.7
			c0,0.6,0.1,1.2,0.1,1.8c0,0.3,0,0.8,0.1,1.1c0,0.1,0.1,0,0.1-0.1c0.1-0.3,0.1-0.5,0.2-0.8c0-0.4,0.2-0.9,0.2-1.3
			c0.2-1,0.4-1.9,0.6-2.9c0.1-0.4,0.1-0.8,0.2-1.2c0,0.3,0,0.6,0,1c0,0.4-0.1,1,0,1.5c0,0,0,0,0.1,0c0.2-0.2,0.2-0.7,0.3-0.9
			c0.1-0.5,0.2-1,0.3-1.5c-0.1,0.9-0.2,1.8-0.2,2.7c0.1-0.4,0.2-0.7,0.3-1.1c0.1-0.5,0.2-1,0.3-1.5c0.1-0.5,0.2-0.9,0.3-1.4
			c0,0.4-0.1,0.8-0.1,1.1c0,0.5-0.1,0.9-0.1,1.4c0.2-0.9,0.5-1.8,0.7-2.7c0.2-0.7,0.4-1.4,0.5-2.1c0.2-0.9,0.4-1.7,0.5-2.7
			C26.9,113.1,26.9,113,27,113z"/>
		<path class="st3" d="M27.6,108.1c0.1-1.2-0.3-2.2-0.9-2.9c-0.2-0.2-0.3-0.3-0.5-0.4c0,0,0.1,0,0.1,0c0,0,0,0,0,0
			c-0.2-0.1-0.4-0.2-0.6-0.2c-0.3,0-0.7,0-1,0c-0.2,0-0.4,0.1-0.6,0.2c-0.2,0.1-0.4,0.2-0.6,0.3c-0.7,0.7-1.3,1.5-1.7,2.5
			c-0.1,0.4-0.2,0.8-0.2,1.2c0.2-0.7,0.7-1.3,1.2-1.8c-0.3,0.4-0.6,1-0.8,1.5c0,0,0,0.1-0.1,0.1c-0.3,0.8-0.3,1.8-0.3,2.7
			c0.2-0.6,0.3-1.1,0.6-1.7c0.3-0.6,0.7-1.5,1.1-1.9c-0.1,0.2-0.2,0.3-0.2,0.5c-0.1,0.3-0.3,0.6-0.4,1c-0.3,0.8-0.4,1.6-0.4,2.5
			c0,0,0,0.1,0,0.1c0,1.3,0.1,2.6,0.3,3.9c0,0,0,0,0-0.1c0.1-0.5,0.1-1,0.2-1.6c0.1-0.5,0.3-1,0.4-1.4c0-0.1,0.1-0.3,0.1-0.3
			c0,0.3-0.1,0.6-0.1,0.8c-0.1,0.6-0.1,1.1-0.2,1.7c0,1,0,2.1,0.1,3.1c0,0.3,0,1.6,0.2,1.7c0,0,0.1,0,0.1,0c0.2-0.2,0.3-0.8,0.4-1.2
			c0.3-0.9,0.5-1.8,0.8-2.6c0.2-0.5,0.3-1.1,0.4-1.6c0,0,0,0.1,0,0.1c0,0.4,0,0.8,0,1.1c0,0.4-0.1,0.8,0,1.2c0,0,0,0.1,0,0
			c0.1-0.2,0.2-0.5,0.3-0.7c0.1-0.4,0.2-0.7,0.2-1.1c0.2-0.8,0.4-1.7,0.6-2.5c0.1-0.7,0.2-1.3,0.3-2c0.1,0.6,0.1,1.2,0.2,1.7
			c0.1-0.2,0.2-0.4,0.3-0.6c0.1-0.3,0.2-0.6,0.3-0.9C27.5,109.7,27.6,108.9,27.6,108.1z"/>
		<path class="st4" d="M26.9,105.8c-0.4-0.6-0.9-0.9-1.5-1c-0.1,0-0.2,0-0.3,0c-0.1,0-0.2,0-0.3,0c-0.3,0-0.7,0.1-1,0.3
			c-0.1,0.1-0.2,0.1-0.3,0.2c-0.2,0.1-0.4,0.3-0.5,0.5c0.6-0.5,1.3-0.8,1.9-0.8c0.6,0.1,1.2,0.3,1.7,0.9c0.3,0.3,0.5,0.7,0.7,1.1
			c0,0,0,0,0,0C27.2,106.7,27.1,106.2,26.9,105.8C27,105.8,26.9,105.8,26.9,105.8z"/>
	</g>
	<g>
		<path class="st0" d="M32,136.9c0-0.2,0.1-0.4,0.1-0.7c0.1-0.4,0.2-0.8,0.3-1.2c0.1-0.7,0.8-4.1,1-5.2c0.2-1.3,0.5-2.7,0.8-4
			c0.1-0.6,0.7-3.2,0.7-3.2c0.1,1-0.2,2-0.3,3c0-0.1,0.1-0.2,0.1-0.4c0.6-2.7,0.9-5.6,1.5-8.3c0,0,0,1.3-0.1,2
			c0.1-0.5,0.2-1.1,0.3-1.6c0.1-0.5,0.3-1.6,0.3-1.5c-0.1,1-0.3,2-0.4,3c0.2-0.8,0.4-1.7,0.6-2.5c0.3-1.6,0.7-3.2,1.1-4.8
			c0.3-1.3,0.5-2.7,0.5-4c0-1.3-0.5-2.4-1.3-3.1c-2.1-1.7-5.4-0.6-6.4,2.7c-0.3,1.1-0.7,3.5-0.7,4.6c0,1,0.1,3.3,0.2,4.3
			c0,0.4,0,0.8,0.1,1.1c0.1,1.2,0.2,2.5,0.4,3.7c0-1.3,0-3.9,0-3.8c0.1,0.5,0.1,1.1,0.1,1.7c0,0.6,0.1,1.3,0.1,1.9
			c0,0.6,0.1,1.2,0.1,1.8c0,0.5,0,1.1,0.1,1.6c0.1-1.4,0.4-5,0.4-5c0,0.3,0,0.6,0,0.9c0,1,0,2,0,3c0,1.3,0.1,2.5,0.1,3.8
			c0,1.9,0,3.8,0.1,5.7c0.1-1.9,0.5-5.7,0.5-5.6c0,2.3,0,4.6-0.1,6.9C32.2,134.6,32.1,135.8,32,136.9z"/>
		<path class="st1" d="M34.8,104.2c0.5,0,1,0,1.4,0.2c0.4,0.2,0.8,0.5,1.1,1c0.3,0.5,0.6,1.2,0.7,1.9c0.1,0.4,0.1,0.7,0.1,1.1
			c0,0.3,0,0.6,0,0.9c0,0,0,0,0,0c0-0.3,0.1-0.7,0.1-1c0-0.4,0-0.7-0.1-1.1c-0.1-0.7-0.4-1.4-0.7-2C36.8,104.2,35.8,104,34.8,104.2
			C34.8,104.1,34.8,104.2,34.8,104.2z"/>
		<path class="st1" d="M31.8,105.8c-0.1,0.2-0.3,0.5-0.4,0.8c-0.5,1-0.8,2.2-0.9,3.4c0,0,0,0,0,0c0.2-1.1,0.5-2.2,1-3.2
			c0.2-0.5,0.5-0.9,0.8-1.3c0.2-0.2,0.3-0.4,0.5-0.6C32.4,105,32.1,105.4,31.8,105.8z"/>
		<path class="st1" d="M38.6,112.6c0.1-0.4,0.3-0.9,0.4-1.3c0.1-0.4,0.2-0.9,0.3-1.3c0.1-0.9,0.2-1.8,0.1-2.6
			c-0.1-0.9-0.2-1.7-0.6-2.4c-0.3-0.7-0.8-1.2-1.3-1.6c0,0,0,0,0,0.1c1,0.8,1.6,2.5,1.7,4.1c0.1,0.8,0,1.7-0.1,2.5
			C39,110.9,38.8,111.7,38.6,112.6C38.6,112.6,38.6,112.6,38.6,112.6z"/>
		<path class="st1" d="M33.3,103.4c0.3-0.1,0.7-0.2,1-0.3c0.3-0.1,0.6-0.1,0.9-0.1c0.1,0,0.2,0,0.4,0c0.2,0,0.5,0.1,0.7,0.1
			c0.1,0.1,0.3,0.1,0.4,0.2c-0.4-0.4-0.9-0.7-1.4-0.7c-0.6-0.1-1.2,0.1-1.7,0.3c-0.6,0.2-1.1,0.7-1.6,1.3c-0.1,0.1-0.2,0.3-0.3,0.4
			C32.1,104.1,32.7,103.7,33.3,103.4z"/>
		<path class="st1" d="M29.7,111.6c0-0.2,0-0.5,0-0.7c0-0.3,0-0.5,0.1-0.8c0.1-0.5,0.1-1,0.2-1.5c0.2-1,0.4-1.9,0.7-2.8
			c0,0,0-0.1,0-0.1c-0.2,0.4-0.4,0.8-0.6,1.3c-0.1,0.5-0.2,1-0.3,1.5c-0.1,0.5-0.1,1.1-0.2,1.6c0,0.3,0,0.5,0,0.8
			C29.6,111.2,29.6,111.4,29.7,111.6C29.6,111.7,29.7,111.6,29.7,111.6z"/>
		<path class="st1" d="M37.1,116.6c0.1-0.5,0.3-0.9,0.4-1.4c0.2-0.5,0.3-1.1,0.5-1.6c0.3-1.1,0.6-2.2,0.8-3.4c0-0.1,0-0.1-0.1,0
			c-0.2,0.5-0.3,1.1-0.4,1.6c-0.1,0.6-0.3,1.1-0.4,1.7c-0.1,0.6-0.3,1.1-0.4,1.7C37.3,115.6,37.1,116.1,37.1,116.6
			C37,116.6,37.1,116.6,37.1,116.6z"/>
		<path class="st1" d="M30.3,117.3c-0.1-1.9-0.1-3.8-0.2-5.7c0-0.1-0.1,0-0.1,0.1c-0.1,0.9,0,1.9,0,2.8
			C30,115.4,30.1,116.4,30.3,117.3C30.2,117.4,30.3,117.3,30.3,117.3z"/>
		<path class="st1" d="M31.3,127.4c0-0.8-0.1-1.6-0.1-2.4c0-0.8-0.2-1.6-0.3-2.4c-0.1-0.5-0.1-0.9-0.2-1.4c0,0.7,0.1,1.5,0.1,2.2
			c0.1,0.5,0.1,1.1,0.2,1.6C31.1,125.8,31.2,126.6,31.3,127.4C31.2,127.4,31.3,127.4,31.3,127.4z"/>
		<path class="st1" d="M31.3,136.7c0.1-1.6,0.1-3.2,0.1-4.8c0-0.8,0-1.6-0.1-2.3c0-0.7-0.1-1.5-0.2-2.2c0-0.1-0.1,0-0.1,0.1
			C31.2,130.5,31.2,133.6,31.3,136.7C31.2,136.7,31.3,136.7,31.3,136.7z"/>
		<path class="st1" d="M33.3,131.9c-0.1,0.5-0.2,1.1-0.3,1.6c0,0.3-0.1,0.7-0.2,1c-0.1,0.6-0.1,1.2-0.2,1.8c0-0.1,0.1-0.3,0.1-0.4
			c0.2-0.7,0.3-1.4,0.4-2.1c0.1-0.7,0.3-1.4,0.4-2.1c0.1-0.5,0.1-1,0.2-1.5C33.6,130.7,33.4,131.3,33.3,131.9z"/>
		<path class="st1" d="M34,130.8c0.1-0.4,0.2-0.8,0.3-1.1c0.1-0.4,0.2-0.9,0.3-1.3c0.2-0.9,0.4-1.8,0.6-2.7c0.2-0.9,0.4-1.8,0.6-2.7
			c0.2-0.9,0.3-1.8,0.4-2.7c0,0,0,0,0,0c-0.2,0.9-0.4,1.8-0.6,2.7c-0.2,0.9-0.4,1.9-0.6,2.8c-0.2,0.9-0.4,1.8-0.6,2.7
			c-0.1,0.4-0.2,0.9-0.2,1.3C34.1,130,34,130.4,34,130.8C34,130.8,34,130.8,34,130.8z"/>
		<path class="st1" d="M35.6,124.4c0-0.2,0.1-0.4,0.2-0.6c0.1-0.2,0.1-0.4,0.2-0.6c0.1-0.4,0.3-0.9,0.4-1.3c0.3-0.9,0.5-1.9,0.8-2.8
			c0.5-1.8,1-3.7,1.4-5.6c0-0.1,0-0.1,0,0c-0.5,1.9-1,3.7-1.5,5.6c-0.2,0.9-0.5,1.9-0.7,2.8c-0.1,0.5-0.3,0.9-0.4,1.4
			C35.7,123.6,35.6,124,35.6,124.4C35.6,124.4,35.6,124.4,35.6,124.4z"/>
		<path class="st1" d="M31.2,141c0-0.4,0-0.8-0.1-1.2c0-0.4-0.1-0.9-0.1-1.3c0-0.9-0.1-1.8-0.1-2.8c0-0.9,0-1.8-0.1-2.8
			c0-0.9,0.1-1.8,0.1-2.8c0,0,0,0,0,0c0,0.9,0.1,1.8,0.1,2.7c0,0.9,0,1.9,0,2.8c0,0.9,0,1.8,0,2.7c0,0.4,0,0.9,0,1.3
			C31.2,140.2,31.2,140.6,31.2,141C31.2,141,31.2,141,31.2,141z"/>
		<path class="st1" d="M30.8,127.8c0-0.2,0-0.4-0.1-0.6c0-0.2,0-0.4-0.1-0.6c-0.1-0.5-0.1-0.9-0.2-1.4c-0.1-1-0.2-1.9-0.3-2.9
			c-0.2-1.9-0.3-3.8-0.4-5.7c0-0.1,0,0,0,0c0.2,1.9,0.3,3.8,0.5,5.7c0.1,1,0.2,1.9,0.2,2.9c0,0.4,0.1,0.9,0.1,1.5
			C30.8,127,30.8,127.4,30.8,127.8C30.8,127.8,30.8,127.8,30.8,127.8z"/>
		<path class="st1" d="M32.3,102.6c-0.7,0.5-1.3,1.2-1.8,2c-0.5,0.9-0.9,2.1-1.2,3.2c-0.3,1.2-0.2,2.6-0.2,3.8
			c0,1.3,0.2,2.6,0.2,3.9c0,0,0,0,0,0c0-1-0.1-2.1-0.1-3.1c-0.1-1.3,0-2.6,0.2-3.9C29.9,106.1,30.9,104.1,32.3,102.6
			C32.4,102.6,32.4,102.6,32.3,102.6z"/>
		<path class="st1" d="M39.7,105.7C39.7,105.7,39.7,105.7,39.7,105.7c-0.4-1.4-1.2-2.7-2.2-3.3c-0.4-0.3-1-0.5-1.5-0.5
			c-0.5-0.1-1.2,0-1.7,0.2c0,0,0,0.1,0,0.1c1.1-0.3,2.3-0.1,3.2,0.6c1,0.8,1.7,1.9,2.1,3.5c0.4,1.5,0.3,3.1,0.1,4.7
			c-0.2,1.7-0.5,3.3-0.9,4.9c0,0,0,0,0,0c0.4-1.8,0.8-3.5,1-5.4C40,108.8,40.1,107.1,39.7,105.7z"/>
		<path class="st2" d="M36.9,112.7c0,0.2,0,0.5,0,0.7c0,0.6-0.2,1.2-0.2,1.8c0.1-0.4,0.3-0.7,0.4-1.1c0.4-2,1-4.1,1-6.2
			c0-1.1-0.1-2.2-0.6-3c-0.5-0.8-1.1-1.1-1.8-1.3c-1.3-0.3-2.8,0.5-3.7,2c-0.5,0.7-0.9,1.9-1.1,2.8c-0.1,0.5-0.2,1.1-0.2,1.7
			c-0.1,0.6-0.1,1.2,0,1.7c0,0.1,0.1,0,0.1-0.1c0.1-0.5,0.2-1,0.4-1.5c0.1-0.4,0.3-0.9,0.4-1.3c-0.1,0.3-0.2,0.6-0.3,0.9
			c-0.1,0.5-0.2,1-0.3,1.5c-0.1,1-0.2,2.1-0.1,3c0,0.1,0.1,0,0.1-0.1c0.1-0.4,0.2-0.9,0.2-1.3c0.1-0.4,0.2-1,0.4-1.4
			c-0.1,0.5-0.2,1.1-0.3,1.6c-0.1,0.8-0.1,1.5-0.1,2.3c0,0.8,0,1.6,0,2.3c0,0.4,0,1.1,0.1,1.5c0,0.1,0.1,0,0.1-0.1
			c0.1-0.4,0.2-1,0.2-1.4c0.1-0.8,0.3-1.6,0.5-2.4c0-0.1,0-0.1,0.1-0.2c0,0.1,0,0.2,0,0.3c0,1.1,0,2.2,0,3.2c0,1.2,0.1,2.5,0.1,3.7
			c0,0.6,0.1,1.2,0.1,1.8c0,0.3,0,0.8,0.1,1.1c0,0.1,0.1,0,0.1-0.1c0.1-0.3,0.1-0.5,0.2-0.8c0-0.4,0.2-0.9,0.2-1.3
			c0.2-1,0.4-1.9,0.6-2.9c0.1-0.4,0.1-0.8,0.2-1.2c0,0.3,0,0.6,0,1c0,0.4-0.1,1,0,1.5c0,0,0,0,0.1,0c0.2-0.2,0.2-0.7,0.3-0.9
			c0.1-0.5,0.2-1,0.3-1.5c-0.1,0.9-0.2,1.8-0.2,2.7c0.1-0.4,0.2-0.7,0.3-1.1c0.1-0.5,0.2-1,0.3-1.5c0.1-0.5,0.2-0.9,0.3-1.4
			c0,0.4-0.1,0.8-0.1,1.1c0,0.5-0.1,0.9-0.1,1.4c0.2-0.9,0.5-1.8,0.7-2.7c0.2-0.7,0.4-1.4,0.5-2.1c0.2-0.9,0.4-1.7,0.5-2.7
			C36.8,112.8,36.8,112.8,36.9,112.7z"/>
		<path class="st3" d="M37.5,107.8c0.1-1.2-0.3-2.2-0.9-2.9c-0.2-0.2-0.3-0.3-0.5-0.4c0,0,0.1,0,0.1,0c0,0,0,0,0,0
			c-0.2-0.1-0.4-0.2-0.6-0.2c-0.3,0-0.7,0-1,0c-0.2,0-0.4,0.1-0.6,0.2c-0.2,0.1-0.4,0.2-0.6,0.3c-0.7,0.7-1.3,1.5-1.7,2.5
			c-0.1,0.4-0.2,0.8-0.2,1.2c0.2-0.7,0.7-1.3,1.2-1.8c-0.3,0.4-0.6,1-0.8,1.5c0,0,0,0.1-0.1,0.1c-0.3,0.8-0.3,1.8-0.3,2.7
			c0.2-0.6,0.3-1.1,0.6-1.7c0.3-0.6,0.7-1.5,1.1-1.9c-0.1,0.2-0.2,0.3-0.2,0.5c-0.1,0.3-0.3,0.6-0.4,1c-0.3,0.8-0.4,1.6-0.4,2.5
			c0,0,0,0.1,0,0.1c0,1.3,0.1,2.6,0.3,3.9c0,0,0,0,0-0.1c0.1-0.5,0.1-1,0.2-1.6c0.1-0.5,0.3-1,0.4-1.4c0-0.1,0.1-0.3,0.1-0.3
			c0,0.3-0.1,0.6-0.1,0.8c-0.1,0.6-0.1,1.1-0.2,1.7c0,1,0,2.1,0.1,3.1c0,0.3,0,1.6,0.2,1.7c0,0,0.1,0,0.1,0c0.2-0.2,0.3-0.8,0.4-1.2
			c0.3-0.9,0.5-1.8,0.8-2.6c0.2-0.5,0.3-1.1,0.4-1.6c0,0,0,0.1,0,0.1c0,0.4,0,0.8,0,1.1c0,0.4-0.1,0.8,0,1.2c0,0,0,0.1,0,0
			c0.1-0.2,0.2-0.5,0.3-0.7c0.1-0.4,0.2-0.7,0.2-1.1c0.2-0.8,0.4-1.7,0.6-2.5c0.1-0.7,0.2-1.3,0.3-2c0.1,0.6,0.1,1.2,0.2,1.7
			c0.1-0.2,0.2-0.4,0.3-0.6c0.1-0.3,0.2-0.6,0.3-0.9C37.4,109.4,37.5,108.6,37.5,107.8z"/>
		<path class="st4" d="M36.8,105.6c-0.4-0.6-0.9-0.9-1.5-1c-0.1,0-0.2,0-0.3,0c-0.1,0-0.2,0-0.3,0c-0.3,0-0.7,0.1-1,0.3
			c-0.1,0.1-0.2,0.1-0.3,0.2c-0.2,0.1-0.4,0.3-0.5,0.5c0.6-0.5,1.3-0.8,1.9-0.8c0.6,0.1,1.2,0.3,1.7,0.9c0.3,0.3,0.5,0.7,0.7,1.1
			c0,0,0,0,0,0C37.1,106.4,37,106,36.8,105.6C36.9,105.6,36.8,105.6,36.8,105.6z"/>
	</g>
	<g>
		<g>
			<g>
				<g>
					<g>
						<g>
							<polygon class="st5" points="14.9,92.9 17.1,91.5 17.3,73 15.1,72 							"/>
							<polygon class="st6" points="16.6,72.6 16.4,91.9 14.9,92.9 15.1,72 							"/>
						</g>
						<g>
							<polygon class="st5" points="7,92.8 5.5,92 5.6,82.5 7.1,82 							"/>
							<polygon class="st6" points="6.1,82.3 6,92.3 7,92.8 7.1,82 							"/>
						</g>
						<g>
							<polygon class="st5" points="6.7,80.2 5.6,79.9 5.7,75.6 6.7,75.4 							"/>
							<polygon class="st6" points="6,75.5 6,80 6.7,80.2 6.7,75.4 							"/>
						</g>
						<g>
							<g>
								<path class="st7" d="M12.5,100.9l1.1,0c0,0,1,1.5,0.9,3.7c0,0-0.6,0.2-1.5,0.2c-0.9,0-1.5-0.3-1.5-0.3
									C11.5,102.3,12.5,100.9,12.5,100.9z"/>
								<g>
									
										<linearGradient id="SVGID_1_" gradientUnits="userSpaceOnUse" x1="-437.2185" y1="1034.004" x2="-436.4802" y2="1040.1633" gradientTransform="matrix(-0.9998 -1.046180e-02 -1.046180e-02 0.9998 -413.0724 -938.5657)">
										<stop  offset="0.4575" style="stop-color:#E5E0DF"/>
										<stop  offset="1" style="stop-color:#8CA99C"/>
									</linearGradient>
									<path class="st8" d="M12,101.9c0.2-0.6,0.5-1,0.5-1l1.1,0c0,0,0.2,0.4,0.5,1C13.6,102,12.9,102.1,12,101.9z"/>
									<path class="st9" d="M14.4,104.1c0,0.1,0,0.1,0,0.2c-0.2,0.1-0.7,0.2-1.3,0.2c-0.4,0-1-0.1-1.6-0.2c0-0.1,0-0.1,0-0.2
										C13,104.5,14.1,104.2,14.4,104.1z"/>
									<path class="st9" d="M14.4,103.6c0,0.1,0,0.1,0,0.2c-0.2,0.1-0.7,0.2-1.3,0.2c-0.4,0-1-0.1-1.5-0.2c0-0.1,0-0.1,0-0.2
										C13,103.9,14,103.7,14.4,103.6z"/>
									<path class="st9" d="M11.7,102.6c0-0.1,0-0.1,0-0.2c1.1,0.2,1.9,0.1,2.4,0c0,0.1,0,0.1,0,0.2c-0.3,0.1-0.6,0.1-1.1,0.1
										C12.7,102.7,12.3,102.7,11.7,102.6z"/>
									<path class="st9" d="M14.3,103c0,0.1,0,0.1,0,0.2c-0.3,0.1-0.7,0.1-1.3,0.1c-0.4,0-0.9,0-1.5-0.2c0-0.1,0-0.1,0-0.2
										C12.9,103.3,13.9,103.1,14.3,103z"/>
									<path class="st9" d="M11.9,102c0-0.1,0-0.1,0.1-0.2c0.9,0.2,1.6,0.1,2,0c0,0,0,0.1,0.1,0.2c-0.3,0-0.6,0.1-1,0.1
										C12.8,102.2,12.4,102.1,11.9,102z"/>
								</g>
								<path class="st10" d="M12.5,100.9l1.1,0c0,0,1,1.5,0.9,3.7c0,0,0,0-0.1,0c0-0.5-0.1-1-0.2-1.5c-0.1-0.3-0.2-1.1-0.7-1.1
									c-0.5,0-0.4,2.3-0.5,2.8c0,0,0,0,0,0c-0.9,0-1.5-0.3-1.5-0.3C11.5,102.3,12.5,100.9,12.5,100.9z"/>
								<path class="st10" d="M12.5,100.9l0.5,0c-0.6,1.2-0.8,2.5-0.9,3.8c-0.4-0.1-0.6-0.2-0.6-0.2
									C11.5,102.3,12.5,100.9,12.5,100.9z"/>
							</g>
							<g>
								<path class="st7" d="M9,100.8l1.1,0c0,0,1,1.5,0.9,3.6c0,0-0.6,0.2-1.5,0.2c-0.9,0-1.5-0.3-1.5-0.3C8,102.3,9,100.8,9,100.8
									z"/>
								<g>
									
										<linearGradient id="SVGID_00000171717273539280757470000007368695162438389400_" gradientUnits="userSpaceOnUse" x1="-433.797" y1="1034.0111" x2="-433.0611" y2="1040.1504" gradientTransform="matrix(-0.9998 -1.046180e-02 -1.046180e-02 0.9998 -413.0724 -938.5657)">
										<stop  offset="0.4575" style="stop-color:#E5E0DF"/>
										<stop  offset="1" style="stop-color:#8CA99C"/>
									</linearGradient>
									<path style="fill:url(#SVGID_00000171717273539280757470000007368695162438389400_);" d="M8.5,101.8c0.2-0.6,0.5-1,0.5-1
										l1.1,0c0,0,0.2,0.4,0.5,1C10.1,102,9.4,102,8.5,101.8z"/>
									<path class="st9" d="M11,104.1c0,0.1,0,0.1,0,0.2c-0.2,0.1-0.7,0.2-1.3,0.2c-0.4,0-1-0.1-1.6-0.2c0-0.1,0-0.1,0-0.2
										C9.6,104.4,10.6,104.2,11,104.1z"/>
									<path class="st9" d="M11,103.5c0,0.1,0,0.1,0,0.2c-0.3,0.1-0.7,0.2-1.3,0.2c-0.4,0-1-0.1-1.5-0.2c0-0.1,0-0.1,0-0.2
										C9.6,103.8,10.6,103.6,11,103.5z"/>
									<path class="st9" d="M8.3,102.5c0-0.1,0-0.1,0.1-0.2c1.1,0.2,1.9,0.1,2.4,0c0,0.1,0,0.1,0,0.2c-0.3,0.1-0.6,0.1-1.1,0.1
										C9.3,102.7,8.8,102.7,8.3,102.5z"/>
									<path class="st9" d="M10.9,103c0,0.1,0,0.1,0,0.2c-0.3,0.1-0.7,0.1-1.2,0.1c-0.4,0-0.9-0.1-1.5-0.2c0,0,0-0.1,0-0.2
										C9.5,103.2,10.4,103.1,10.9,103z"/>
									<path class="st9" d="M8.5,102c0-0.1,0-0.1,0.1-0.2c0.9,0.2,1.6,0.1,2,0c0,0.1,0,0.1,0.1,0.2c-0.3,0-0.6,0.1-1,0.1
										C9.3,102.1,8.9,102.1,8.5,102z"/>
								</g>
								<path class="st10" d="M9,100.8l1.1,0c0,0,1,1.5,0.9,3.6c0,0,0,0-0.1,0c0-0.5-0.1-1-0.2-1.5c0-0.3-0.2-1.1-0.7-1.1
									c-0.5,0-0.5,2.3-0.5,2.8c0,0,0,0,0,0c-0.9,0-1.5-0.3-1.5-0.3C8,102.3,9,100.8,9,100.8z"/>
								<path class="st10" d="M9,100.8l0.5,0c-0.6,1.2-0.8,2.5-0.9,3.8c-0.4-0.1-0.6-0.2-0.6-0.2C8,102.3,9,100.8,9,100.8z"/>
							</g>
							<polygon class="st12" points="10.8,96.4 10.8,96.4 11.1,96.4 11.4,96.4 11.4,96.5 15.9,97.1 14.5,102.4 11.3,102.3 
								10.7,102.3 7.5,102.3 6.2,97 							"/>
							<path class="st13" d="M9.2,96.6c0.3,1.5,0.6,3.1,0.8,4.6c0.1,0.4,0.1,0.7,0.1,1.1l-2.6,0L6.2,97L9.2,96.6z"/>
							<path class="st13" d="M15.5,97l0.4,0.1l-1.4,5.3l-0.5,0C14.5,100.6,15,98.8,15.5,97z"/>
							<g>
								
									<rect x="-14.8" y="66" transform="matrix(1.031937e-02 -0.9999 0.9999 1.031937e-02 -59.682 81.5241)" class="st14" width="52.2" height="9.7"/>
								<polygon class="st15" points="16,95 15.9,97.1 6.2,97 6.2,95 								"/>
								<polygon class="st15" points="6.6,56.3 6.6,55.5 16.4,55.6 16.4,56.4 								"/>
								<polygon class="st15" points="6.6,58 6.6,57.2 16.3,57.3 16.3,58.1 								"/>
								<path class="st16" d="M11.1,33.1c0.2-0.4,0.5-0.4,0.6-0.4c0.1,0,0.4,0,0.6,0.4c0.3,0.5,3.9,8.8,4.1,11.8l-4.5,0l-0.6,0
									l-4.5,0C7,41.8,10.8,33.6,11.1,33.1z"/>
								<path class="st17" d="M12.1,33.3c0,0,2.8,6.7,3.7,10.5c0,0,0.3,0.8-0.5,0.8l-3.6,0c0,0-1.3,0.2-1.2-0.9
									C10.5,42.5,12.1,33.3,12.1,33.3z"/>
								<path class="st17" d="M10.9,45.3l4.3,0c0,0,0.7-0.2,0.7,1.8l-0.5,45.4c0,0,0,1.7-0.8,2.2l-3.6,0.2c0,0-1.1,0-1-2
									c0-1.3,0.5-46.3,0.5-46.3S10.4,45.2,10.9,45.3z"/>
							</g>
							<path class="st14" d="M14,101.9c0,0.1,0.1,0.2,0.2,0.2c0.1,0,0.2-0.1,0.2-0.2c0-0.1-0.1-0.2-0.2-0.2
								C14.1,101.8,14,101.8,14,101.9z"/>
							<path class="st14" d="M12.7,101.9c0,0.1,0.1,0.2,0.2,0.2c0.1,0,0.2-0.1,0.2-0.2c0-0.1-0.1-0.2-0.2-0.2
								C12.8,101.7,12.7,101.8,12.7,101.9z"/>
							<path class="st14" d="M11.5,101.9c0,0.1,0.1,0.2,0.2,0.2c0.1,0,0.2-0.1,0.2-0.2c0-0.1-0.1-0.2-0.2-0.2
								C11.5,101.7,11.5,101.8,11.5,101.9z"/>
							<path class="st14" d="M10.2,101.9c0,0.1,0.1,0.2,0.2,0.2c0.1,0,0.2-0.1,0.2-0.2c0-0.1-0.1-0.2-0.2-0.2
								C10.3,101.7,10.2,101.8,10.2,101.9z"/>
							<path class="st14" d="M8.9,101.9c0,0.1,0.1,0.2,0.2,0.2c0.1,0,0.2-0.1,0.2-0.2c0-0.1-0.1-0.2-0.2-0.2
								C9,101.7,8.9,101.8,8.9,101.9z"/>
							<path class="st14" d="M7.7,101.9c0,0.1,0.1,0.2,0.2,0.2c0.1,0,0.2-0.1,0.2-0.2c0-0.1-0.1-0.2-0.2-0.2
								C7.8,101.7,7.7,101.8,7.7,101.9z"/>
						</g>
						
							<rect x="7.6" y="74.3" transform="matrix(6.592971e-03 -1 1 6.592971e-03 -67.1917 83.1319)" class="st9" width="1.3" height="2.2"/>
						
							<rect x="7.9" y="75.6" transform="matrix(1.451328e-02 -0.9999 0.9999 1.451328e-02 -68.5676 83.8092)" class="st9" width="0.7" height="2.2"/>
						
							<rect x="7.8" y="82.7" transform="matrix(9.489537e-03 -1 1 9.489537e-03 -75.6919 91.1356)" class="st9" width="0.8" height="2.2"/>
						<polygon class="st9" points="7,87.8 7,84.4 9.3,84.5 9.2,87.8 						"/>
						
							<rect x="7" y="88" transform="matrix(1.032535e-02 -0.9999 0.9999 1.032535e-02 -81.1331 96.3374)" class="st9" width="2.1" height="2.2"/>
						<polygon class="st9" points="9.2,93.2 9.2,94.1 6.9,94.1 6.9,93.2 						"/>
					</g>
					<g>
						<path class="st18" d="M15.9,48.3c0,0.1,0.1,0.1,0.1,0.1c0.1,0,0.1-0.1,0.1-0.1c0-0.1,0-0.1-0.1-0.1C16,48.2,16,48.3,15.9,48.3
							z"/>
						<path class="st18" d="M14.5,48.3c0,0.1,0.1,0.1,0.1,0.1c0.1,0,0.1-0.1,0.1-0.1c0-0.1-0.1-0.1-0.1-0.1
							C14.5,48.2,14.5,48.3,14.5,48.3z"/>
						<path class="st18" d="M13,48.3c0,0.1,0,0.1,0.1,0.1c0.1,0,0.1-0.1,0.1-0.1c0-0.1-0.1-0.1-0.1-0.1C13,48.2,13,48.2,13,48.3z"/>
						<path class="st18" d="M11.5,48.3c0,0.1,0.1,0.1,0.1,0.1c0.1,0,0.1-0.1,0.1-0.1c0-0.1-0.1-0.1-0.1-0.1
							C11.5,48.2,11.5,48.2,11.5,48.3z"/>
						<path class="st18" d="M10,48.3c0,0.1,0.1,0.1,0.1,0.1c0.1,0,0.1-0.1,0.1-0.1c0-0.1-0.1-0.1-0.1-0.1C10,48.2,10,48.2,10,48.3z"
							/>
						<path class="st18" d="M8.5,48.3c0,0.1,0.1,0.1,0.1,0.1c0.1,0,0.1-0.1,0.1-0.1c0-0.1-0.1-0.1-0.1-0.1
							C8.5,48.1,8.5,48.2,8.5,48.3z"/>
						<path class="st18" d="M7,48.3c0,0.1,0.1,0.1,0.1,0.1c0.1,0,0.1-0.1,0.1-0.1c0-0.1-0.1-0.1-0.1-0.1C7,48.1,7,48.2,7,48.3z"/>
					</g>
					<g>
						<path class="st18" d="M15.7,74.2c0,0.1,0.1,0.1,0.1,0.1c0.1,0,0.1-0.1,0.1-0.1c0-0.1-0.1-0.1-0.1-0.1
							C15.7,74.1,15.7,74.1,15.7,74.2z"/>
						<path class="st18" d="M14.2,74.2c0,0.1,0.1,0.1,0.1,0.1c0.1,0,0.1,0,0.1-0.1c0-0.1,0-0.1-0.1-0.1
							C14.2,74.1,14.2,74.1,14.2,74.2z"/>
						<path class="st18" d="M12.7,74.2c0,0.1,0,0.1,0.1,0.1c0.1,0,0.1,0,0.1-0.1c0-0.1-0.1-0.1-0.1-0.1C12.7,74,12.7,74.1,12.7,74.2
							z"/>
						<path class="st18" d="M11.2,74.1c0,0.1,0.1,0.1,0.1,0.1c0.1,0,0.1-0.1,0.1-0.1c0-0.1-0.1-0.1-0.1-0.1
							C11.2,74,11.2,74.1,11.2,74.1z"/>
						<path class="st18" d="M9.7,74.1c0,0.1,0.1,0.1,0.1,0.1c0.1,0,0.1-0.1,0.1-0.1c0-0.1-0.1-0.1-0.1-0.1C9.7,74,9.7,74.1,9.7,74.1
							z"/>
						<path class="st18" d="M8.2,74.1c0,0.1,0.1,0.1,0.1,0.1c0.1,0,0.1-0.1,0.1-0.1C8.4,74,8.4,74,8.3,74C8.2,74,8.2,74,8.2,74.1z"
							/>
						<path class="st18" d="M6.7,74.1c0,0.1,0.1,0.1,0.1,0.1c0.1,0,0.1-0.1,0.1-0.1C7,74,6.9,74,6.8,74C6.8,74,6.7,74,6.7,74.1z"/>
					</g>
				</g>
				<g>
					<g>
						<g>
							<polygon class="st5" points="52.8,93.3 55,91.9 55.2,73.4 53,72.4 							"/>
							<polygon class="st6" points="54.5,73 54.3,92.3 52.8,93.3 53,72.4 							"/>
						</g>
						<g>
							<polygon class="st5" points="44.9,93.2 43.4,92.4 43.5,82.9 45,82.4 							"/>
							<polygon class="st6" points="44,82.7 43.9,92.7 44.9,93.2 45,82.4 							"/>
						</g>
						<g>
							<polygon class="st5" points="44.6,80.6 43.5,80.3 43.6,76 44.7,75.8 							"/>
							<polygon class="st6" points="43.9,75.9 43.9,80.4 44.6,80.6 44.7,75.8 							"/>
						</g>
						<g>
							<g>
								<path class="st7" d="M50.4,101.3l1.1,0c0,0,1,1.5,0.9,3.7c0,0-0.6,0.2-1.5,0.2c-0.9,0-1.5-0.2-1.5-0.2
									C49.4,102.7,50.4,101.3,50.4,101.3z"/>
								<g>
									
										<linearGradient id="SVGID_00000072997054974624702710000017405707401929239698_" gradientUnits="userSpaceOnUse" x1="-475.1337" y1="1034.0011" x2="-474.3943" y2="1040.1697" gradientTransform="matrix(-0.9998 -1.046180e-02 -1.046180e-02 0.9998 -413.0724 -938.5657)">
										<stop  offset="0.4575" style="stop-color:#E5E0DF"/>
										<stop  offset="1" style="stop-color:#8CA99C"/>
									</linearGradient>
									<path style="fill:url(#SVGID_00000072997054974624702710000017405707401929239698_);" d="M49.9,102.3c0.2-0.6,0.5-1,0.5-1
										l1.1,0c0,0,0.2,0.4,0.5,1C51.5,102.4,50.8,102.4,49.9,102.3z"/>
									<path class="st9" d="M52.3,104.5c0,0.1,0,0.1,0,0.2c-0.2,0.1-0.7,0.2-1.3,0.2c-0.4,0-1-0.1-1.6-0.2c0-0.1,0-0.1,0-0.2
										C50.9,104.9,52,104.6,52.3,104.5z"/>
									<path class="st9" d="M52.3,104c0,0.1,0,0.1,0,0.2c-0.3,0.1-0.7,0.2-1.3,0.2c-0.4,0-1-0.1-1.5-0.2c0-0.1,0-0.1,0-0.2
										C50.9,104.3,51.9,104.1,52.3,104z"/>
									<path class="st9" d="M49.6,103c0-0.1,0-0.1,0-0.2c1.1,0.2,1.9,0.1,2.4,0c0,0.1,0,0.1,0,0.2c-0.3,0.1-0.6,0.1-1.1,0.1
										C50.6,103.1,50.2,103.1,49.6,103z"/>
									<path class="st9" d="M52.2,103.4c0,0.1,0,0.1,0,0.2c-0.3,0.1-0.7,0.1-1.2,0.1c-0.4,0-0.9-0.1-1.5-0.2c0-0.1,0-0.1,0-0.2
										C50.8,103.7,51.8,103.5,52.2,103.4z"/>
									<path class="st9" d="M49.8,102.4c0,0,0-0.1,0.1-0.2c0.9,0.2,1.6,0.1,2,0c0,0.1,0,0.1,0.1,0.2c-0.3,0-0.6,0.1-1,0.1
										C50.7,102.6,50.3,102.5,49.8,102.4z"/>
								</g>
								<path class="st10" d="M50.4,101.3l1.1,0c0,0,1,1.5,0.9,3.7c0,0,0,0-0.1,0c0-0.5-0.1-1-0.2-1.5c-0.1-0.3-0.2-1.1-0.7-1.1
									c-0.5,0-0.4,2.3-0.5,2.8c0,0,0,0,0,0c-0.9,0-1.5-0.2-1.5-0.2C49.4,102.7,50.4,101.3,50.4,101.3z"/>
								<path class="st10" d="M50.4,101.3l0.5,0c-0.6,1.1-0.8,2.5-0.9,3.8c-0.4-0.1-0.6-0.2-0.6-0.2
									C49.4,102.7,50.4,101.3,50.4,101.3z"/>
							</g>
							<g>
								<path class="st7" d="M46.9,101.2l1.1,0c0,0,1,1.5,0.9,3.7c0,0-0.6,0.2-1.5,0.2c-0.9,0-1.4-0.3-1.4-0.3
									C46,102.7,46.9,101.2,46.9,101.2z"/>
								<g>
									
										<linearGradient id="SVGID_00000116234418086036418250000010648457961971117202_" gradientUnits="userSpaceOnUse" x1="-471.7087" y1="1034.0048" x2="-470.9705" y2="1040.163" gradientTransform="matrix(-0.9998 -1.046180e-02 -1.046180e-02 0.9998 -413.0724 -938.5657)">
										<stop  offset="0.4575" style="stop-color:#E5E0DF"/>
										<stop  offset="1" style="stop-color:#8CA99C"/>
									</linearGradient>
									<path style="fill:url(#SVGID_00000116234418086036418250000010648457961971117202_);" d="M46.4,102.2c0.3-0.6,0.5-1,0.5-1
										l1.1,0c0,0,0.3,0.4,0.5,1C48,102.4,47.3,102.4,46.4,102.2z"/>
									<path class="st9" d="M48.9,104.5c0,0.1,0,0.1,0,0.2c-0.2,0.1-0.7,0.2-1.3,0.2c-0.4,0-1-0.1-1.6-0.2c0-0.1,0-0.1,0-0.2
										C47.5,104.8,48.6,104.6,48.9,104.5z"/>
									<path class="st9" d="M48.9,103.9c0,0.1,0,0.1,0,0.2c-0.3,0.1-0.7,0.2-1.3,0.2c-0.4,0-1-0.1-1.5-0.2c0-0.1,0-0.1,0-0.2
										C47.5,104.2,48.5,104,48.9,103.9z"/>
									<path class="st9" d="M46.2,102.9c0-0.1,0-0.1,0-0.2c1.1,0.2,1.9,0.1,2.4,0c0,0.1,0,0.1,0.1,0.2c-0.3,0.1-0.6,0.1-1.1,0.1
										C47.2,103.1,46.7,103.1,46.2,102.9z"/>
									<path class="st9" d="M48.8,103.4c0,0.1,0,0.1,0,0.2c-0.3,0.1-0.7,0.1-1.2,0.1c-0.4,0-0.9-0.1-1.5-0.2c0-0.1,0-0.1,0-0.2
										C47.4,103.6,48.4,103.5,48.8,103.4z"/>
									<path class="st9" d="M46.4,102.4c0-0.1,0-0.1,0.1-0.2c0.9,0.2,1.6,0.1,2,0c0,0,0,0.1,0.1,0.2c-0.3,0-0.6,0.1-1,0.1
										C47.2,102.5,46.8,102.5,46.4,102.4z"/>
								</g>
								<path class="st10" d="M46.9,101.2l1.1,0c0,0,1,1.5,0.9,3.7c0,0,0,0-0.1,0c0-0.5-0.1-1-0.2-1.5c0-0.3-0.2-1.1-0.7-1.1
									c-0.5,0-0.4,2.3-0.5,2.8c0,0,0,0,0,0c-0.9,0-1.4-0.3-1.4-0.3C46,102.7,46.9,101.2,46.9,101.2z"/>
								<path class="st10" d="M46.9,101.2l0.5,0c-0.6,1.2-0.8,2.5-0.9,3.8c-0.4-0.1-0.6-0.2-0.6-0.2C46,102.7,46.9,101.2,46.9,101.2
									z"/>
							</g>
							<polygon class="st12" points="48.7,96.8 48.7,96.8 49,96.8 49.3,96.8 49.3,96.8 53.8,97.5 52.4,102.8 49.2,102.7 48.6,102.7 
								45.4,102.7 44.1,97.4 							"/>
							<path class="st13" d="M47.1,97c0.3,1.5,0.6,3.1,0.8,4.6c0,0.4,0.1,0.7,0.1,1.1l-2.6,0l-1.3-5.3L47.1,97z"/>
							<path class="st13" d="M53.4,97.4l0.4,0.1l-1.4,5.3l-0.5,0C52.4,101,52.9,99.2,53.4,97.4z"/>
							<g>
								
									<rect x="23.2" y="66.4" transform="matrix(1.032290e-02 -0.9999 0.9999 1.032290e-02 -22.5626 119.8219)" class="st14" width="52.2" height="9.7"/>
								
									<rect x="48" y="91.5" transform="matrix(9.411317e-03 -1 1 9.411317e-03 -47.8696 144.4804)" class="st15" width="2" height="9.7"/>
								
									<rect x="49" y="51.5" transform="matrix(7.468200e-03 -1 1 7.468200e-03 -7.294 105.3089)" class="st15" width="0.8" height="9.7"/>
								<polygon class="st15" points="44.5,58.4 44.5,57.6 54.3,57.7 54.2,58.5 								"/>
								<path class="st16" d="M49,33.5c0.2-0.4,0.5-0.4,0.6-0.4c0.1,0,0.4,0,0.6,0.4c0.3,0.5,3.9,8.8,4.1,11.9l-4.6,0l-0.6,0l-4.5,0
									C44.9,42.2,48.7,34,49,33.5z"/>
								<path class="st17" d="M50,33.7c0,0,2.8,6.7,3.7,10.5c0,0,0.3,0.8-0.5,0.8l-3.6,0c0,0-1.3,0.2-1.2-0.9
									C48.4,42.9,50,33.7,50,33.7z"/>
								<path class="st17" d="M48.8,45.6l4.2,0c0,0,0.7-0.2,0.7,1.8l-0.5,45.4c0,0,0,1.7-0.8,2.2l-3.6,0.2c0,0-1.1,0-1-2
									c0-1.3,0.5-46.3,0.5-46.3S48.3,45.6,48.8,45.6z"/>
							</g>
							<path class="st14" d="M51.9,102.3c0,0.1,0.1,0.2,0.2,0.2c0.1,0,0.2-0.1,0.2-0.2c0-0.1-0.1-0.2-0.2-0.2
								C52,102.1,51.9,102.2,51.9,102.3z"/>
							<path class="st14" d="M50.6,102.3c0,0.1,0.1,0.2,0.2,0.2c0.1,0,0.2-0.1,0.2-0.2c0-0.1-0.1-0.2-0.2-0.2
								C50.7,102.1,50.6,102.2,50.6,102.3z"/>
							<path class="st14" d="M49.4,102.3c0,0.1,0.1,0.2,0.2,0.2c0.1,0,0.2-0.1,0.2-0.2c0-0.1-0.1-0.2-0.2-0.2
								C49.4,102.1,49.4,102.2,49.4,102.3z"/>
							<path class="st14" d="M48.1,102.3c0,0.1,0.1,0.2,0.2,0.2c0.1,0,0.2-0.1,0.2-0.2c0-0.1-0.1-0.2-0.2-0.2
								C48.2,102.1,48.1,102.2,48.1,102.3z"/>
							<path class="st14" d="M46.8,102.3c0,0.1,0.1,0.2,0.2,0.2c0.1,0,0.2-0.1,0.2-0.2c0-0.1-0.1-0.2-0.2-0.2
								C46.9,102.1,46.9,102.2,46.8,102.3z"/>
							<path class="st14" d="M45.6,102.3c0,0.1,0.1,0.2,0.2,0.2c0.1,0,0.2-0.1,0.2-0.2c0-0.1-0.1-0.2-0.2-0.2
								C45.7,102.1,45.6,102.2,45.6,102.3z"/>
						</g>
						
							<rect x="45.5" y="74.7" transform="matrix(7.949211e-03 -1 1 7.949211e-03 -29.992 121.3228)" class="st9" width="1.3" height="2.2"/>
						<polygon class="st9" points="45,77.4 45,76.7 47.3,76.7 47.2,77.4 						"/>
						<polygon class="st9" points="44.9,84.5 45,83.8 47.2,83.8 47.2,84.6 						"/>
						<polygon class="st9" points="44.9,88.2 44.9,84.8 47.2,84.9 47.1,88.2 						"/>
						
							<rect x="44.9" y="88.4" transform="matrix(1.197885e-02 -0.9999 0.9999 1.197885e-02 -44.0904 134.481)" class="st9" width="2.1" height="2.2"/>
						<polygon class="st9" points="47.1,93.6 47.1,94.5 44.8,94.5 44.8,93.6 						"/>
					</g>
					<g>
						<path class="st18" d="M53.9,48.7c0,0.1,0.1,0.1,0.1,0.1c0.1,0,0.1-0.1,0.1-0.1c0-0.1-0.1-0.1-0.1-0.1
							C53.9,48.6,53.9,48.7,53.9,48.7z"/>
						<path class="st18" d="M52.4,48.7c0,0.1,0.1,0.1,0.1,0.1c0.1,0,0.1-0.1,0.1-0.1c0-0.1-0.1-0.1-0.1-0.1
							C52.4,48.6,52.4,48.7,52.4,48.7z"/>
						<path class="st18" d="M50.9,48.7c0,0.1,0.1,0.1,0.1,0.1c0.1,0,0.1,0,0.1-0.1c0-0.1-0.1-0.1-0.1-0.1
							C50.9,48.6,50.9,48.6,50.9,48.7z"/>
						<path class="st18" d="M49.4,48.7c0,0.1,0.1,0.1,0.1,0.1c0.1,0,0.1-0.1,0.1-0.1c0-0.1-0.1-0.1-0.1-0.1
							C49.4,48.6,49.4,48.6,49.4,48.7z"/>
						<path class="st18" d="M47.9,48.7c0,0.1,0.1,0.1,0.1,0.1c0.1,0,0.1-0.1,0.1-0.1c0-0.1-0.1-0.1-0.1-0.1
							C47.9,48.6,47.9,48.6,47.9,48.7z"/>
						<path class="st18" d="M46.4,48.7c0,0.1,0,0.1,0.1,0.1c0.1,0,0.1-0.1,0.1-0.1c0-0.1-0.1-0.1-0.1-0.1
							C46.4,48.5,46.4,48.6,46.4,48.7z"/>
						<path class="st18" d="M44.9,48.6c0,0.1,0.1,0.1,0.1,0.1c0.1,0,0.1-0.1,0.1-0.1c0-0.1-0.1-0.1-0.1-0.1
							C44.9,48.5,44.9,48.6,44.9,48.6z"/>
					</g>
					<g>
						<path class="st18" d="M53.6,74.6c0,0.1,0,0.1,0.1,0.1c0.1,0,0.1-0.1,0.1-0.1c0-0.1-0.1-0.1-0.1-0.1
							C53.6,74.5,53.6,74.5,53.6,74.6z"/>
						<path class="st18" d="M52.1,74.6c0,0.1,0,0.1,0.1,0.1c0.1,0,0.1-0.1,0.1-0.1c0-0.1-0.1-0.1-0.1-0.1
							C52.1,74.5,52.1,74.5,52.1,74.6z"/>
						<path class="st18" d="M50.6,74.6c0,0.1,0.1,0.1,0.1,0.1c0.1,0,0.1-0.1,0.1-0.1c0-0.1-0.1-0.1-0.1-0.1
							C50.6,74.4,50.6,74.5,50.6,74.6z"/>
						<path class="st18" d="M49.1,74.5c0,0.1,0.1,0.1,0.1,0.1c0.1,0,0.1-0.1,0.1-0.1c0-0.1,0-0.1-0.1-0.1
							C49.2,74.4,49.1,74.5,49.1,74.5z"/>
						<path class="st18" d="M47.6,74.5c0,0.1,0.1,0.1,0.1,0.1c0.1,0,0.1-0.1,0.1-0.1c0-0.1-0.1-0.1-0.1-0.1
							C47.7,74.4,47.6,74.5,47.6,74.5z"/>
						<path class="st18" d="M46.1,74.5c0,0.1,0.1,0.1,0.1,0.1c0.1,0,0.1-0.1,0.1-0.1c0-0.1-0.1-0.1-0.1-0.1
							C46.2,74.4,46.1,74.4,46.1,74.5z"/>
						<path class="st18" d="M44.6,74.5c0,0.1,0,0.1,0.1,0.1c0.1,0,0.1-0.1,0.1-0.1c0-0.1-0.1-0.1-0.1-0.1
							C44.7,74.4,44.6,74.4,44.6,74.5z"/>
					</g>
				</g>
				<g>
					
						<linearGradient id="SVGID_00000100363750049604419800000002810065655397705398_" gradientUnits="userSpaceOnUse" x1="-454.1112" y1="947.2252" x2="-454.1112" y2="989.5122" gradientTransform="matrix(-0.9998 -1.046180e-02 -1.046180e-02 0.9998 -413.0724 -938.5657)">
						<stop  offset="0.6933" style="stop-color:#E5E0DF"/>
						<stop  offset="1" style="stop-color:#727876"/>
					</linearGradient>
					<polygon style="fill:url(#SVGID_00000100363750049604419800000002810065655397705398_);" points="17.8,94.4 42.6,94.7 
						43.3,31.1 18.5,30.8 					"/>
					
						<linearGradient id="SVGID_00000047753585872361582550000004270164076278449065_" gradientUnits="userSpaceOnUse" x1="-457.7892" y1="996.7233" x2="-440.576" y2="996.7233" gradientTransform="matrix(-0.9998 -1.046180e-02 -1.046180e-02 0.9998 -413.0724 -938.5657)">
						<stop  offset="0.6933" style="stop-color:#E5E0DF"/>
						<stop  offset="1" style="stop-color:#727876"/>
					</linearGradient>
					<polygon style="fill:url(#SVGID_00000047753585872361582550000004270164076278449065_);" points="30,30.9 29.4,94.5 17.8,94.4 
						18.5,30.8 					"/>
					
						<rect x="29.9" y="23.5" transform="matrix(1.010041e-02 -0.9999 0.9999 1.010041e-02 -5.3838 66.3447)" class="st15" width="1.8" height="24.8"/>
					<path class="st23" d="M29.6,1c0.6-1,1.3-1,1.6-1c0.3,0,1,0.1,1.6,1.1c0.8,1.3,10,22.5,10.5,30.2l-11.6-0.1l-1.6,0L18.5,31
						C19.1,23.3,28.7,2.3,29.6,1z"/>
					<path class="st23" d="M29.6,1c0.6-1,1.3-1,1.6-1c0.3,0,1,0.1,1.6,1.1c0.8,1.3,10,22.5,10.5,30.2l-11.6-0.1l-1.6,0L18.5,31
						C19.1,23.3,28.7,2.3,29.6,1z"/>
					<path class="st16" d="M29.4,20c-0.4,3.7-0.7,7.4-0.9,11.1l-10-0.1c0.6-7.7,10.3-28.8,11.1-30c0.5-0.8,1-1,1.4-1
						C30.1,6.7,30,13.4,29.4,20z"/>
					<path class="st24" d="M32.1,1.7c0,0,7.1,17,9.4,26.7c0,0,0.7,2.1-1.3,2l-2.5,0L32.1,1.7z"/>
					<path class="st24" d="M30.9,32.1l9,0.1c0,0,1.8-0.2,1.7,2.2l-0.2,18.2c-0.8-0.7-1.3-1.9-1.7-2.9c-0.5-1.5-0.9-3-1.5-4.6
						c-1-3-2.5-5.9-4.8-8.2c-0.7-0.8-1.6-1.7-2.6-1.9L30.9,32.1z"/>
				</g>
			</g>
			<g>
				<g>
					<path class="st18" d="M42.4,31.8c0,0.1,0.1,0.2,0.2,0.2c0.1,0,0.2-0.1,0.2-0.2c0-0.1-0.1-0.2-0.2-0.2
						C42.5,31.6,42.4,31.7,42.4,31.8z"/>
					<path class="st18" d="M39.8,31.8c0,0.1,0.1,0.2,0.2,0.2c0.1,0,0.2-0.1,0.2-0.2c0-0.1-0.1-0.2-0.2-0.2
						C39.9,31.6,39.8,31.7,39.8,31.8z"/>
					<path class="st18" d="M37.1,31.8c0,0.1,0.1,0.2,0.2,0.2c0.1,0,0.2-0.1,0.2-0.2c0-0.1-0.1-0.2-0.2-0.2
						C37.2,31.6,37.1,31.6,37.1,31.8z"/>
					<path class="st18" d="M34.5,31.7c0,0.1,0.1,0.2,0.2,0.2c0.1,0,0.2-0.1,0.2-0.2c0-0.1-0.1-0.2-0.2-0.2
						C34.6,31.5,34.5,31.6,34.5,31.7z"/>
					<path class="st18" d="M31.9,31.7c0,0.1,0.1,0.2,0.2,0.2c0.1,0,0.2-0.1,0.2-0.2c0-0.1-0.1-0.2-0.2-0.2
						C32,31.5,31.9,31.6,31.9,31.7z"/>
					<path class="st18" d="M29.2,31.7c0,0.1,0.1,0.2,0.2,0.2c0.1,0,0.2-0.1,0.2-0.2c0-0.1-0.1-0.2-0.2-0.2
						C29.3,31.5,29.2,31.6,29.2,31.7z"/>
					<path class="st18" d="M26.6,31.7c0,0.1,0.1,0.2,0.2,0.2c0.1,0,0.2-0.1,0.2-0.2c0-0.1-0.1-0.2-0.2-0.2
						C26.7,31.4,26.6,31.5,26.6,31.7z"/>
				</g>
				<g>
					<path class="st18" d="M23.9,31.6c0,0.1,0.1,0.2,0.2,0.2c0.1,0,0.2-0.1,0.2-0.2c0-0.1-0.1-0.2-0.2-0.2
						C24,31.4,23.9,31.5,23.9,31.6z"/>
					<path class="st18" d="M21.3,31.6c0,0.1,0.1,0.2,0.2,0.2c0.1,0,0.2-0.1,0.2-0.2c0-0.1-0.1-0.2-0.2-0.2
						C21.4,31.4,21.3,31.5,21.3,31.6z"/>
					<path class="st18" d="M18.7,31.6c0,0.1,0.1,0.2,0.2,0.2c0.1,0,0.2-0.1,0.2-0.2c0-0.1-0.1-0.2-0.2-0.2
						C18.8,31.4,18.7,31.5,18.7,31.6z"/>
				</g>
			</g>
		</g>
		<g>
			<g>
				<g>
					
						<linearGradient id="SVGID_00000150783936917110619630000016910342713920425909_" gradientUnits="userSpaceOnUse" x1="-450.4567" y1="1027.3412" x2="-448.5384" y2="1043.3436" gradientTransform="matrix(-0.9998 -1.046180e-02 -1.046180e-02 0.9998 -413.0724 -938.5657)">
						<stop  offset="0.4575" style="stop-color:#E5E0DF"/>
						<stop  offset="1" style="stop-color:#8CA99C"/>
					</linearGradient>
					<path style="fill:url(#SVGID_00000150783936917110619630000016910342713920425909_);" d="M23.8,95.9l2.7,0c0,0,2.5,3.8,2.3,9.5
						c0,0-1.5,0.6-3.8,0.6c-2.3,0-3.8-0.6-3.8-0.6C21.2,99.6,23.8,95.9,23.8,95.9z"/>
					<g>
						
							<linearGradient id="SVGID_00000051358513577747688000000011111871020793418931_" gradientUnits="userSpaceOnUse" x1="-449.7522" y1="1027.2601" x2="-447.8364" y2="1043.2421" gradientTransform="matrix(-0.9998 -1.046180e-02 -1.046180e-02 0.9998 -413.0724 -938.5657)">
							<stop  offset="0.4575" style="stop-color:#E5E0DF"/>
							<stop  offset="1" style="stop-color:#8CA99C"/>
						</linearGradient>
						<path style="fill:url(#SVGID_00000051358513577747688000000011111871020793418931_);" d="M22.5,98.5c0.6-1.7,1.3-2.6,1.3-2.6
							l2.7,0c0,0,0.7,1,1.3,2.7C26.6,98.8,24.8,99,22.5,98.5z"/>
						<path class="st27" d="M28.9,104.3c0,0.2,0,0.3,0,0.5c-0.6,0.2-1.8,0.5-3.5,0.4c-1.2,0-2.5-0.2-4.1-0.6c0-0.2,0-0.3,0-0.5
							C25.2,105.2,28,104.6,28.9,104.3z"/>
						<path class="st27" d="M28.8,102.9c0,0.1,0,0.3,0,0.5c-0.7,0.2-1.8,0.4-3.4,0.4c-1.1,0-2.5-0.2-4-0.5c0-0.2,0-0.3,0.1-0.4
							C25.1,103.7,27.8,103.2,28.8,102.9z"/>
						<path class="st27" d="M21.9,100.3c0-0.1,0.1-0.3,0.1-0.4c2.9,0.6,5,0.4,6.2,0.1c0.1,0.1,0.1,0.3,0.1,0.4
							c-0.7,0.2-1.7,0.3-3,0.3C24.4,100.8,23.2,100.6,21.9,100.3z"/>
						<path class="st27" d="M28.6,101.4c0,0.1,0.1,0.3,0.1,0.5c-0.7,0.2-1.8,0.4-3.2,0.4c-1.1,0-2.4-0.1-3.8-0.5
							c0-0.1,0.1-0.3,0.1-0.4C25,102.1,27.5,101.7,28.6,101.4z"/>
						<path class="st27" d="M22.3,98.9c0-0.2,0.1-0.3,0.2-0.4c2.3,0.4,4.1,0.3,5.3,0.1c0.1,0.1,0.1,0.3,0.2,0.4
							c-0.7,0.1-1.5,0.2-2.5,0.2C24.5,99.3,23.5,99.2,22.3,98.9z"/>
					</g>
					<path class="st10" d="M23.8,95.9l2.7,0c0,0,2.5,3.8,2.3,9.5c0,0-0.1,0-0.3,0.1c0.1-1.3-0.2-2.7-0.4-4c-0.1-0.9-0.5-2.9-1.8-2.8
						c-1.4,0.1-1.2,5.9-1.2,7.3c0,0,0,0,0,0c-2.3,0-3.8-0.6-3.8-0.6C21.2,99.6,23.8,95.9,23.8,95.9z"/>
					<path class="st10" d="M23.8,95.9l1.4,0c-1.5,3-2.1,6.5-2.3,9.9c-1-0.2-1.7-0.5-1.7-0.5C21.2,99.6,23.8,95.9,23.8,95.9z"/>
				</g>
				<g>
					
						<linearGradient id="SVGID_00000118378947657894847790000010975369290356573363_" gradientUnits="userSpaceOnUse" x1="-460.5513" y1="1027.3401" x2="-458.6334" y2="1043.3398" gradientTransform="matrix(-0.9998 -1.046180e-02 -1.046180e-02 0.9998 -413.0724 -938.5657)">
						<stop  offset="0.4575" style="stop-color:#E5E0DF"/>
						<stop  offset="1" style="stop-color:#8CA99C"/>
					</linearGradient>
					<path style="fill:url(#SVGID_00000118378947657894847790000010975369290356573363_);" d="M33.9,96l2.7,0c0,0,2.5,3.8,2.3,9.5
						c0,0-1.5,0.6-3.8,0.6c-2.2,0-3.8-0.6-3.8-0.6C31.3,99.8,33.9,96,33.9,96z"/>
					<g>
						
							<linearGradient id="SVGID_00000123433235453831421680000006802789344920544915_" gradientUnits="userSpaceOnUse" x1="-459.8498" y1="1027.2579" x2="-457.9332" y2="1043.2463" gradientTransform="matrix(-0.9998 -1.046180e-02 -1.046180e-02 0.9998 -413.0724 -938.5657)">
							<stop  offset="0.4575" style="stop-color:#E5E0DF"/>
							<stop  offset="1" style="stop-color:#8CA99C"/>
						</linearGradient>
						<path style="fill:url(#SVGID_00000123433235453831421680000006802789344920544915_);" d="M32.6,98.6c0.6-1.7,1.3-2.6,1.3-2.6
							l2.7,0c0,0,0.6,1,1.3,2.7C36.7,98.9,34.9,99.1,32.6,98.6z"/>
						<path class="st27" d="M39,104.4c0,0.2,0,0.3,0,0.5c-0.6,0.2-1.8,0.5-3.5,0.4c-1.1,0-2.5-0.2-4.1-0.6c0-0.2,0-0.3,0-0.5
							C35.3,105.4,38.1,104.7,39,104.4z"/>
						<path class="st27" d="M38.9,103c0,0.2,0,0.3,0,0.5c-0.7,0.2-1.8,0.4-3.4,0.4c-1.1,0-2.5-0.2-4-0.5c0-0.2,0-0.3,0.1-0.5
							C35.2,103.8,37.9,103.3,38.9,103z"/>
						<path class="st27" d="M32,100.5c0-0.2,0.1-0.3,0.1-0.4c2.9,0.6,5,0.4,6.2,0.1c0,0.1,0.1,0.3,0.1,0.4c-0.7,0.2-1.7,0.3-3,0.3
							C34.5,100.9,33.3,100.7,32,100.5z"/>
						<path class="st27" d="M38.7,101.6c0,0.1,0.1,0.3,0.1,0.4c-0.7,0.2-1.8,0.4-3.2,0.4c-1.1,0-2.4-0.1-3.8-0.5
							c0-0.2,0.1-0.3,0.1-0.4C35.1,102.2,37.6,101.8,38.7,101.6z"/>
						<path class="st27" d="M32.4,99c0.1-0.1,0.1-0.3,0.2-0.4c2.3,0.5,4.1,0.3,5.3,0.1c0.1,0.1,0.1,0.3,0.2,0.4
							c-0.7,0.1-1.5,0.2-2.5,0.2C34.6,99.4,33.6,99.3,32.4,99z"/>
					</g>
					<path class="st10" d="M33.9,96l2.7,0c0,0,2.5,3.8,2.3,9.5c0,0-0.1,0-0.3,0.1c0.1-1.3-0.2-2.7-0.4-4c-0.1-0.9-0.5-2.9-1.8-2.8
						c-1.4,0.1-1.2,5.9-1.2,7.2c0,0,0,0,0,0c-2.2,0-3.8-0.6-3.8-0.6C31.3,99.8,33.9,96,33.9,96z"/>
					<path class="st10" d="M33.9,96l1.4,0c-1.5,3-2.1,6.5-2.3,9.9c-1-0.2-1.7-0.5-1.7-0.5C31.3,99.8,33.9,96,33.9,96z"/>
				</g>
				<g>
					
						<linearGradient id="SVGID_00000099627299264242164380000000619731187009607596_" gradientUnits="userSpaceOnUse" x1="-490.7589" y1="980.7176" x2="-461.5396" y2="1023.9248" gradientTransform="matrix(-0.9998 -1.046180e-02 -1.046180e-02 0.9998 -413.0724 -938.5657)">
						<stop  offset="0.4575" style="stop-color:#E5E0DF"/>
						<stop  offset="1" style="stop-color:#454949"/>
					</linearGradient>
					<path style="fill:url(#SVGID_00000099627299264242164380000000619731187009607596_);" d="M38.2,51.2c0,0,3.1,1.7,3.9,6.4
						c0.8,4.7,2.4,8.6,6.6,11.7c4.2,3.1,12.5,11.4,11.6,25.6c0,0,0.1,0.8-1,0.9c-1.1,0.1-19.5,1.1-19.5,1.1l-3,0L38.2,51.2z"/>
					<path class="st31" d="M38,57.9c0,0,2.5,1.4,3.2,5.3c0.7,3.9,2,7.1,5.5,9.7c3.5,2.6,10.3,9.4,9.6,21.2c0,0,0.1,0.6-0.8,0.7
						c-0.9,0.1-16.2,0.9-16.2,0.9l-2.5,0L38,57.9z"/>
					
						<linearGradient id="SVGID_00000004545057631139909990000011033119834981804731_" gradientUnits="userSpaceOnUse" x1="-475.5389" y1="1005.9633" x2="-450.4013" y2="1017.2891" gradientTransform="matrix(-0.9998 -1.046180e-02 -1.046180e-02 0.9998 -413.0724 -938.5657)">
						<stop  offset="0.4575" style="stop-color:#E5E0DF"/>
						<stop  offset="1" style="stop-color:#454949"/>
					</linearGradient>
					<path style="fill:url(#SVGID_00000004545057631139909990000011033119834981804731_);" d="M38.2,51.2c0,0,1.1,0.6,2.2,2.2
						c0.2,4,1.3,27.1,1.7,33.1c0.3,6.6,4.1,6.9,8.7,7.1c4.6,0.2,7.8-1.1,8-5.2c0.3-4.1-3.9-12.9-4-12.9c3.2,4.4,6.1,10.8,5.5,19.4
						c0,0,0.1,0.8-1,0.9c-1.1,0.1-19.5,1.1-19.5,1.1l-3,0L38.2,51.2z"/>
					<path class="st31" d="M42,58c0,0,0.8,6.2,4.4,9.7c3.6,3.5,8.1,5.3,10,11.5c0,0-1.3-4.5-6.3-7.9C45.1,67.9,42,65.1,42,58z"/>
				</g>
				<g>
					
						<linearGradient id="SVGID_00000126299924839680031340000004117985731460838288_" gradientUnits="userSpaceOnUse" x1="1569.5625" y1="980.1114" x2="1598.7864" y2="1023.3253" gradientTransform="matrix(0.9998 1.046180e-02 -1.046180e-02 0.9998 -1564.9877 -950.0099)">
						<stop  offset="0.4575" style="stop-color:#E5E0DF"/>
						<stop  offset="1" style="stop-color:#454949"/>
					</linearGradient>
					<path style="fill:url(#SVGID_00000126299924839680031340000004117985731460838288_);" d="M23.1,51.1c0,0-3.1,1.6-4,6.3
						c-0.9,4.7-2.6,8.5-6.9,11.6C7.8,71.9-0.6,80,0,94.2c0,0-0.2,0.8,0.9,0.9c1.1,0.1,19.5,1.5,19.5,1.5l3.1,0L23.1,51.1z"/>
					<path class="st31" d="M23.2,57.8c0,0-2.6,1.3-3.4,5.2c-0.8,3.9-2.1,7.1-5.7,9.6c-3.6,2.5-10.5,9.2-10,21c0,0-0.1,0.6,0.8,0.7
						C5.8,94.4,21,95.5,21,95.5l2.5,0L23.2,57.8z"/>
					
						<linearGradient id="SVGID_00000129173227335369699130000013919633029459114129_" gradientUnits="userSpaceOnUse" x1="1584.7875" y1="1005.3604" x2="1609.9303" y2="1016.6885" gradientTransform="matrix(0.9998 1.046180e-02 -1.046180e-02 0.9998 -1564.9877 -950.0099)">
						<stop  offset="0.4575" style="stop-color:#E5E0DF"/>
						<stop  offset="1" style="stop-color:#454949"/>
					</linearGradient>
					<path style="fill:url(#SVGID_00000129173227335369699130000013919633029459114129_);" d="M23.1,51.1c0,0-1.2,0.6-2.3,2.1
						c-0.3,4-1.9,27.1-2.3,33.1c-0.5,6.6-4.3,6.8-8.9,6.9c-4.6,0.1-7.7-1.3-7.9-5.4C1.6,83.6,6,74.9,6,74.9
						C2.6,79.3-0.3,85.6,0,94.2c0,0-0.2,0.8,0.9,0.9c1.1,0.1,19.5,1.5,19.5,1.5l3.1,0L23.1,51.1z"/>
					<path class="st31" d="M19.2,57.7c0,0-0.9,6.2-4.6,9.6C11,70.8,6.5,72.5,4.4,78.6c0,0,1.4-4.4,6.4-7.7
						C15.9,67.6,19,64.8,19.2,57.7z"/>
				</g>
				<g>
					
						<linearGradient id="SVGID_00000151507917789442477240000017612326363499573911_" gradientUnits="userSpaceOnUse" x1="-465.005" y1="1002.2234" x2="-440.8232" y2="1002.2234" gradientTransform="matrix(-0.9998 -1.046180e-02 -1.046180e-02 0.9998 -413.0724 -938.5657)">
						<stop  offset="0.6933" style="stop-color:#E5E0DF"/>
						<stop  offset="1" style="stop-color:#B2B8B4"/>
					</linearGradient>
					<path style="fill:url(#SVGID_00000151507917789442477240000017612326363499573911_);" d="M21.6,56.6C22.6,46.5,26.4,40,29,37.5
						c0.4-0.5,1-0.9,1.7-0.9c0.1,0,0.1,0,0.2,0c0.1,0,0.1,0,0.2,0c0.7,0.1,1.2,0.5,1.6,1c2.5,2.6,6.2,9.1,6.9,19.2
						c0.7,10.3,0,40.1,0,40.1s-0.2,1.7-3.9,2.6c-1.3,0.3-3.1,0.5-5.5,0.6c-2.4-0.1-4.2-0.3-5.5-0.7c-3.7-1-3.9-2.6-3.9-2.6
						S20.7,66.9,21.6,56.6z"/>
				</g>
				
					<linearGradient id="SVGID_00000008107022212400286080000007019438128788390571_" gradientUnits="userSpaceOnUse" x1="-465.7298" y1="1005.8871" x2="-443.5284" y2="1015.8901" gradientTransform="matrix(-0.9998 -1.046180e-02 -1.046180e-02 0.9998 -413.0724 -938.5657)">
					<stop  offset="0.4575" style="stop-color:#E5E0DF"/>
					<stop  offset="1" style="stop-color:#454949"/>
				</linearGradient>
				<path style="fill:url(#SVGID_00000008107022212400286080000007019438128788390571_);" d="M32.8,53.2c0,0,4.9,1.1,5.3,6
					c0.3,4.9-0.4,36.1-0.4,36.1s0.2,2-1.7,2.7c-1.9,0.7-6.4,1.1-6.1-3c0.2-4.1,0.4-38.3,0.4-38.3S30,52.6,32.8,53.2z"/>
				
					<linearGradient id="SVGID_00000074410598488447752310000015814284419075503260_" gradientUnits="userSpaceOnUse" x1="-458.0219" y1="975.96" x2="-452.8848" y2="978.2745" gradientTransform="matrix(-0.9998 -1.046180e-02 -1.046180e-02 0.9998 -413.0724 -938.5657)">
					<stop  offset="0.4575" style="stop-color:#E5E0DF"/>
					<stop  offset="1" style="stop-color:#454949"/>
				</linearGradient>
				<path style="fill:url(#SVGID_00000074410598488447752310000015814284419075503260_);" d="M31.2,37.1c0,0,1.3,0.4,3,3.2
					c1.7,2.8,3.6,7.7,2.4,7.2c0,0-1.4-1.6-5.5-2.2c0,0-0.6-0.1-0.6-1.1C30.5,43.2,30.3,36.8,31.2,37.1z"/>
				<g>
					<path class="st38" d="M21.6,56.6C22.6,46.5,26.4,40,29,37.5c0.4-0.5,1-0.9,1.7-0.9c0.1,0,0.1,0,0.2,0c0.1,0,0.1,0,0.2,0
						c0,0,0,0,0.1,0c-0.4,0.1-2,0.7-3.3,3.9c-1.4,3.7-1.6,5.2-1.6,5.2s0,1,0.8,0.8c0.8-0.2,3.4-0.2,4.7-0.2l-2.1,4.6
						c0,0-3.1,0.3-4.5,3.4c-1.4,3-1.2,41.8-1.2,41.8s0.1,2.2,2.9,2.7c2.8,0.5,10.1,0.9,11.6-2.9c0.6-1.5,0.9-3.4,1.1-5
						c-0.1,3.6-0.1,5.9-0.1,5.9s-0.2,1.7-3.9,2.6c-1.3,0.3-3.1,0.5-5.5,0.6c-2.4-0.1-4.2-0.3-5.5-0.7c-3.7-1-3.9-2.6-3.9-2.6
						S20.7,66.9,21.6,56.6z"/>
				</g>
				<path class="st39" d="M24.2,50c0.3-1.3,1.3-2.1,2.4-2.7c0.6-0.4,1.4-0.6,2.1-0.7c1.7-0.3,3.3-0.3,4.9,0.1c0,0,3.4,0.8,4,3.5
					c0.6,2.7,1.1,6.7,0.7,6.6c-0.4-0.1-0.2-1.9-1-2.8c-1.1-1.3-2.4-2.4-4.2-2.8c-1.8-0.4-3.9-0.4-5.6,0.3c-1,0.4-2,1.1-2.8,1.9
					c-0.1,0.1-0.2,0.3-0.4,0.5c-0.8,0.9-0.7,2.7-1,2.8C23,56.7,23.5,52.7,24.2,50z"/>
				<path class="st39" d="M24.2,50c0.3-1.3,1.3-2.1,2.4-2.7c0.6-0.4,1.4-0.6,2.1-0.7c0.4-0.1,0.9-0.1,1.3-0.2c0,0.4-0.7,3.2,1.2,3.5
					c0.7,0.1,1.4,0.2,2.2,0.5c2.6,1,5,3.2,4.8,6.2c-0.2-0.5-0.2-1.9-0.8-2.6c-1.1-1.3-2.4-2.4-4.2-2.8c-1.8-0.4-3.9-0.4-5.6,0.3
					c-1,0.4-2,1.1-2.8,1.9c-0.1,0.1-0.2,0.3-0.4,0.5c-0.8,0.9-0.7,2.7-1,2.8C23,56.7,23.5,52.7,24.2,50z"/>
				<path class="st40" d="M35.7,48.3c-0.5-0.5-1.2-0.9-2-1.1c-0.9-0.3-1.8-0.5-2.7-0.6c3.2,0.1,4.5,1.1,5.4,2.1
					c0.5,0.6,0.8,1.3,1,1.8C37.1,49.6,36.4,48.9,35.7,48.3z"/>
				<g>
					
						<linearGradient id="SVGID_00000064337871025093238010000010403232797647014078_" gradientUnits="userSpaceOnUse" x1="-470.5661" y1="1020.9985" x2="-446.0862" y2="1020.9985" gradientTransform="matrix(-0.9998 -1.046180e-02 -1.046180e-02 0.9998 -413.0724 -938.5657)">
						<stop  offset="0.4575" style="stop-color:#E5E0DF"/>
						<stop  offset="1" style="stop-color:#454949"/>
					</linearGradient>
					<path style="fill:url(#SVGID_00000064337871025093238010000010403232797647014078_);" d="M39.8,83.2c0,2.4-0.1,4.7-0.1,6.7
						c-3.1,0.9-10.5,2.4-18.9-0.4c0-2,0-4.3,0-6.7C29.3,85.7,36.7,84.1,39.8,83.2z"/>
				</g>
				<path class="st31" d="M28.4,79.4c0.2-1.4,1.8-1.2,1.8-1.2l0.4,0c0,0,1.6-0.1,1.8,1.3c0.2,1.4-1.1,20.6-1.1,20.6s0.2,1.1-0.9,1.4
					l-0.4,0c-1.1-0.3-0.9-1.4-0.9-1.4S28.1,80.8,28.4,79.4z"/>
				<path class="st42" d="M28.4,79.4c0.2-1.4,1.8-1.2,1.8-1.2l0.4,0c0,0,1.6-0.1,1.8,1.3c0.2,1.4-1.1,20.6-1.1,20.6s0.2,1.1-0.9,1.4
					l-0.4,0c-1.1-0.3-0.9-1.4-0.9-1.4S28.1,80.8,28.4,79.4z"/>
				<path class="st31" d="M30.2,79.8c0-1.1,0.7-0.9,0.7-0.9l0.1,0c0,0,0.6-0.1,0.6,1c0,1.1-0.8,20.6-0.8,20.6S29.4,99.3,30.2,79.8z"
					/>
			</g>
			<g>
				<path class="st42" d="M54.7,94.2c0,0.2,0.1,0.3,0.3,0.3c0.2,0,0.3-0.1,0.3-0.3c0-0.2-0.1-0.3-0.3-0.3
					C54.9,93.9,54.7,94.1,54.7,94.2z"/>
				<path class="st42" d="M51.8,94.5c0,0.2,0.1,0.3,0.3,0.3c0.2,0,0.3-0.1,0.3-0.3c0-0.2-0.1-0.3-0.3-0.3
					C52,94.2,51.8,94.3,51.8,94.5z"/>
				<path class="st42" d="M48.9,94.6c0,0.2,0.1,0.3,0.3,0.3c0.2,0,0.3-0.1,0.3-0.3c0-0.2-0.1-0.3-0.3-0.3
					C49,94.3,48.9,94.5,48.9,94.6z"/>
				<path class="st42" d="M46,94.8c0,0.2,0.1,0.3,0.3,0.3c0.2,0,0.3-0.1,0.3-0.3c0-0.2-0.1-0.3-0.3-0.3C46.1,94.5,46,94.6,46,94.8z"
					/>
				<path class="st42" d="M43.1,94.7c0,0.2,0.1,0.3,0.3,0.3c0.2,0,0.3-0.1,0.3-0.3c0-0.2-0.1-0.3-0.3-0.3
					C43.2,94.4,43.1,94.6,43.1,94.7z"/>
				<path class="st42" d="M40.1,95c0,0.2,0.1,0.3,0.3,0.3c0.2,0,0.3-0.1,0.3-0.3c0-0.2-0.1-0.3-0.3-0.3C40.3,94.7,40.1,94.9,40.1,95
					z"/>
			</g>
			<g>
				<path class="st42" d="M5.3,93.7C5.3,93.9,5.2,94,5,94c-0.2,0-0.3-0.1-0.3-0.3c0-0.2,0.1-0.3,0.3-0.3C5.2,93.4,5.3,93.5,5.3,93.7
					z"/>
				<path class="st42" d="M8.2,94c0,0.2-0.1,0.3-0.3,0.3c-0.2,0-0.3-0.1-0.3-0.3c0-0.2,0.1-0.3,0.3-0.3C8.1,93.7,8.3,93.9,8.2,94z"
					/>
				<path class="st42" d="M11.2,94.2c0,0.2-0.1,0.3-0.3,0.3c-0.2,0-0.3-0.1-0.3-0.3c0-0.2,0.1-0.3,0.3-0.3
					C11,93.9,11.2,94.1,11.2,94.2z"/>
				<path class="st42" d="M14.1,94.5c0,0.2-0.1,0.3-0.3,0.3c-0.2,0-0.3-0.1-0.3-0.3c0-0.2,0.1-0.3,0.3-0.3
					C14,94.2,14.1,94.3,14.1,94.5z"/>
				<path class="st42" d="M17,94.5c0,0.2-0.1,0.3-0.3,0.3c-0.2,0-0.3-0.1-0.3-0.3c0-0.2,0.1-0.3,0.3-0.3C16.9,94.2,17,94.3,17,94.5z
					"/>
				<path class="st42" d="M19.9,94.8c0,0.2-0.1,0.3-0.3,0.3c-0.2,0-0.3-0.1-0.3-0.3c0-0.2,0.2-0.3,0.3-0.3
					C19.8,94.5,19.9,94.6,19.9,94.8z"/>
			</g>
		</g>
	</g>
</g>
</svg>
