<svg id="cat" xmlns="http://www.w3.org/2000/svg" xmlns:xlink="http://www.w3.org/1999/xlink" width="167.945" height="199.225" viewBox="0 0 167.945 199.225">
  <defs>
    <clipPath id="clip-path">
      <rect id="Rectangle_62" data-name="Rectangle 62" width="167.945" height="199.225" fill="none"/>
    </clipPath>
  </defs>
  <g id="Group_24" data-name="Group 24" clip-path="url(#clip-path)">
    <path id="Path_190" data-name="Path 190" d="M218.029,303.959a9.842,9.842,0,0,1,0-19.684A36.01,36.01,0,0,0,254,248.306a9.842,9.842,0,0,1,19.684,0,55.716,55.716,0,0,1-55.653,55.653" transform="translate(-107.973 -123.676)" fill="#7d7477"/>
    <path id="Path_191" data-name="Path 191" d="M215.619,303.785a12.079,12.079,0,1,1,0-24.158A33.77,33.77,0,0,0,249.351,245.9a12.079,12.079,0,0,1,24.158,0,57.955,57.955,0,0,1-57.889,57.889m45.811-65.495a7.614,7.614,0,0,0-7.605,7.605A38.249,38.249,0,0,1,215.619,284.1a7.605,7.605,0,0,0,0,15.21A53.476,53.476,0,0,0,269.035,245.9a7.614,7.614,0,0,0-7.605-7.605" transform="translate(-105.563 -121.266)" fill="#282b31"/>
    <path id="Path_192" data-name="Path 192" d="M129.166,208.18H107.711l-3.094-24.457H40.732L37.638,208.18H17.974a11.468,11.468,0,0,0,0,22.935H34.737L27.066,291.75h91.219l-7.672-60.635h18.553a11.468,11.468,0,0,0,0-22.935" transform="translate(-3.375 -95.285)" fill="#7d7477"/>
    <path id="Path_193" data-name="Path 193" d="M118.412,291.576H22.119l7.671-60.635H15.565a13.7,13.7,0,0,1,0-27.409H33.257l3.094-24.457H104.18l3.094,24.457h19.483a13.7,13.7,0,0,1,0,27.409H110.741ZM27.194,287.1h86.144l-7.672-60.635h21.09a9.231,9.231,0,0,0,0-18.462H103.33l-3.094-24.456H40.3L37.2,208.006H15.565a9.231,9.231,0,0,0,0,18.462h19.3Z" transform="translate(-0.965 -92.875)" fill="#282b31"/>
    <path id="Path_194" data-name="Path 194" d="M141.662,329.979a22.9,22.9,0,0,0,.508-4.792V279.275a22.852,22.852,0,0,0-22.852-22.852H118.6a22.851,22.851,0,0,0-22.852,22.852v45.912a22.9,22.9,0,0,0,.507,4.792Z" transform="translate(-49.658 -132.99)" fill="#968e90"/>
    <path id="Path_195" data-name="Path 195" d="M141.061,329.805H92.035l-.377-1.769a25.138,25.138,0,0,1-.557-5.259V276.865a25.118,25.118,0,0,1,25.089-25.089h.718A25.118,25.118,0,0,1,142,276.865v45.912a25.17,25.17,0,0,1-.557,5.259Zm-45.329-4.474h41.631a20.748,20.748,0,0,0,.159-2.555V276.865a20.639,20.639,0,0,0-20.615-20.615h-.718a20.638,20.638,0,0,0-20.615,20.615v45.912a20.651,20.651,0,0,0,.159,2.555" transform="translate(-47.248 -130.58)" fill="#282b31"/>
    <path id="Path_196" data-name="Path 196" d="M139.534,59.277V5.977a1.342,1.342,0,0,0-2.291-.949L118.588,23.684a60.847,60.847,0,0,0-68.949,0L30.983,5.028a1.342,1.342,0,0,0-2.291.949v53.3c-.077,1.072-.131,2.149-.131,3.239,0,27.36,24.871,49.541,55.552,49.541s55.552-22.181,55.552-49.541c0-1.089-.053-2.167-.131-3.239" transform="translate(-14.813 -2.404)" fill="#7d7477"/>
    <path id="Path_197" data-name="Path 197" d="M81.7,111.889c-31.865,0-57.789-23.227-57.789-51.778,0-1.01.042-2.067.131-3.318V3.573A3.569,3.569,0,0,1,26.256.266a3.618,3.618,0,0,1,3.9.779L47.5,18.387A61.69,61.69,0,0,1,81.7,8.334a61.691,61.691,0,0,1,34.205,10.052L133.252,1.043a3.616,3.616,0,0,1,3.9-.774,3.565,3.565,0,0,1,2.2,3.3v53.22c.089,1.251.131,2.308.131,3.318,0,28.551-25.923,51.778-57.789,51.778M28.52,5.734l-.006,51.3c-.085,1.177-.125,2.155-.125,3.076,0,26.084,23.918,47.3,53.315,47.3s53.315-21.22,53.315-47.3c0-.921-.04-1.9-.125-3.076l-.006-.163V5.734L116.427,24.195l-1.539-1.088A57.076,57.076,0,0,0,81.7,12.808a57.077,57.077,0,0,0-33.183,10.3l-1.539,1.089Z" transform="translate(-12.403 0)" fill="#282b31"/>
    <path id="Path_198" data-name="Path 198" d="M143.444,150.4a4.142,4.142,0,0,1-4.142,4.141H134.1a4.141,4.141,0,1,1,0-8.283H139.3a4.142,4.142,0,0,1,4.142,4.142" transform="translate(-67.399 -75.857)" fill="#282b31"/>
    <path id="Path_199" data-name="Path 199" d="M107.384,179.212a3.132,3.132,0,1,1,0-6.263A12.868,12.868,0,0,0,120.238,160.1a3.132,3.132,0,1,1,6.263,0,19.138,19.138,0,0,1-19.117,19.116" transform="translate(-54.069 -81.407)" fill="#282b31"/>
    <path id="Path_200" data-name="Path 200" d="M156.578,179.212A19.138,19.138,0,0,1,137.461,160.1a3.132,3.132,0,1,1,6.263,0,12.868,12.868,0,0,0,12.854,12.853,3.132,3.132,0,0,1,0,6.263" transform="translate(-71.292 -81.407)" fill="#282b31"/>
    <path id="Path_201" data-name="Path 201" d="M69.348,119.8a5.024,5.024,0,1,0-5.024,5.024,5.024,5.024,0,0,0,5.024-5.024" transform="translate(-30.755 -59.525)" fill="#282b31"/>
    <path id="Path_202" data-name="Path 202" d="M217.807,119.8a5.024,5.024,0,1,0-5.024,5.024,5.024,5.024,0,0,0,5.024-5.024" transform="translate(-107.751 -59.525)" fill="#282b31"/>
    <path id="Path_203" data-name="Path 203" d="M31.983,159.441a3.128,3.128,0,0,1-.819-.109l-28.849-7.8a3.132,3.132,0,1,1,1.634-6.046l28.849,7.8a3.132,3.132,0,0,1-.815,6.156" transform="translate(0 -75.399)" fill="#282b31"/>
    <path id="Path_204" data-name="Path 204" d="M13.631,198.327a3.132,3.132,0,0,1-1.655-5.792L37.36,176.764a3.132,3.132,0,0,1,3.3,5.321L15.28,197.856a3.118,3.118,0,0,1-1.65.472" transform="translate(-5.444 -91.432)" fill="#282b31"/>
    <path id="Path_205" data-name="Path 205" d="M218.118,159.441a3.132,3.132,0,0,1-.815-6.156l28.849-7.8a3.132,3.132,0,1,1,1.634,6.046l-28.849,7.8a3.127,3.127,0,0,1-.819.109" transform="translate(-111.5 -75.398)" fill="#282b31"/>
    <path id="Path_206" data-name="Path 206" d="M240.2,198.327a3.117,3.117,0,0,1-1.65-.472L213.17,182.084a3.132,3.132,0,0,1,3.3-5.321l25.384,15.771a3.132,3.132,0,0,1-1.655,5.792" transform="translate(-109.79 -91.431)" fill="#282b31"/>
  </g>
</svg>
