<svg id="chicken" xmlns="http://www.w3.org/2000/svg" xmlns:xlink="http://www.w3.org/1999/xlink" width="137.113" height="223.81" viewBox="0 0 137.113 223.81">
  <defs>
    <clipPath id="clip-path">
      <rect id="Rectangle_64" data-name="Rectangle 64" width="137.113" height="223.81" fill="none"/>
    </clipPath>
  </defs>
  <g id="Group_26" data-name="Group 26" clip-path="url(#clip-path)">
    <path id="Path_222" data-name="Path 222" d="M125.99,269.84H107.079l-4.052-32.019H38.953L34.9,269.84H15.992a11.345,11.345,0,0,0,0,22.689h16.04l-6.786,53.637h91.489l-6.786-53.637H125.99a11.345,11.345,0,0,0,0-22.689" transform="translate(-2.434 -124.57)" fill="#fff"/>
    <path id="Path_223" data-name="Path 223" d="M116.811,345.945H20.3l6.786-53.637H13.557a13.558,13.558,0,0,1,0-27.115h16.96l4.05-32.02h67.976l4.052,32.02h16.961a13.558,13.558,0,0,1,0,27.115H110.025Zm-91.489-4.426h86.469L105,287.882h18.551a9.132,9.132,0,0,0,0-18.264H102.7L98.642,237.6H38.47L34.42,269.618H13.557a9.132,9.132,0,0,0,0,18.264H32.108Z" transform="translate(0 -122.135)" fill="#282b31"/>
    <path id="Path_224" data-name="Path 224" d="M138.4,123.507c0,27.441-24.944,49.688-55.717,49.688s-55.717-22.246-55.717-49.688S51.907,73.82,82.679,73.82,138.4,96.066,138.4,123.507" transform="translate(-14.123 -38.667)" fill="#fff"/>
    <path id="Path_225" data-name="Path 225" d="M80.246,172.973c-31.943,0-57.93-23.282-57.93-51.9s25.987-51.9,57.93-51.9,57.93,23.282,57.93,51.9-25.987,51.9-57.93,51.9m0-99.374c-29.5,0-53.5,21.3-53.5,47.474s24,47.475,53.5,47.475,53.5-21.3,53.5-47.475-24-47.474-53.5-47.474" transform="translate(-11.689 -36.233)" fill="#282b31"/>
    <path id="Path_226" data-name="Path 226" d="M139.931,11.206c-2.528-1.471-7.511,1.8-12.4,6.216-2.115-6.784-5.009-12.813-8.127-12.775-3.036.038-5.715,5.812-7.653,12.419-4.756-4.237-9.539-7.292-12-5.86-5.351,3.116,2.341,26.3,5.459,31.648,2.982,5.12,8.791,12.5,14.627,12.5s11.646-7.377,14.627-12.5c3.117-5.352,10.81-28.532,5.46-31.648" transform="translate(-51.288 -2.434)" fill="#e93634"/>
    <path id="Path_227" data-name="Path 227" d="M117.415,55.13c-8,0-14.681-10.407-16.539-13.6-1.675-2.876-4.432-10.118-6.144-17.26C92.388,14.5,92.873,8.806,96.216,6.859c2.685-1.565,6.614-.344,12.008,3.945C110.738,3.584,113.606.041,116.952,0c3.465,0,6.476,3.659,9.2,11.164,5.621-4.576,9.7-5.913,12.459-4.3,3.342,1.947,3.829,7.643,1.484,17.415-1.713,7.142-4.47,14.384-6.145,17.26-1.857,3.19-8.539,13.6-16.539,13.6m-18.64-44.5a.742.742,0,0,0-.333.057c-.55.321-1.624,3.317.592,12.558,1.546,6.446,4.177,13.511,5.665,16.065,3.3,5.673,8.518,11.4,12.715,11.4s9.412-5.724,12.715-11.4c1.488-2.554,4.119-9.619,5.665-16.065,2.217-9.241,1.144-12.237.593-12.558a.743.743,0,0,0-.333-.057c-.664,0-3.311.432-9.464,6l-2.567,2.323-1.03-3.3c-2.856-9.159-5.339-11.22-5.985-11.22-.621.007-2.973,2.013-5.56,10.828l-.984,3.356-2.611-2.326c-5.892-5.249-8.439-5.657-9.079-5.657" transform="translate(-48.858)" fill="#282b31"/>
    <path id="Path_228" data-name="Path 228" d="M215.948,164.948a4.97,4.97,0,1,0-4.97,4.97,4.97,4.97,0,0,0,4.97-4.97" transform="translate(-107.906 -83.796)" fill="#282b31"/>
    <path id="Path_229" data-name="Path 229" d="M70.99,164.948a4.97,4.97,0,1,0-4.97,4.97,4.97,4.97,0,0,0,4.97-4.97" transform="translate(-31.978 -83.796)" fill="#282b31"/>
    <path id="Path_230" data-name="Path 230" d="M127.1,236.655l16.314-23.326H110.781Z" transform="translate(-58.027 -111.741)" fill="#f1673e"/>
    <path id="Path_231" data-name="Path 231" d="M122.423,238.082l-20.562-29.4h41.123Zm-12.067-24.975,12.067,17.252,12.066-17.252Z" transform="translate(-53.354 -109.306)" fill="#282b31"/>
  </g>
</svg>
