<svg id="cow" xmlns="http://www.w3.org/2000/svg" xmlns:xlink="http://www.w3.org/1999/xlink" width="164.662" height="227.007" viewBox="0 0 164.662 227.007">
  <defs>
    <clipPath id="clip-path">
      <rect id="Rectangle_69" data-name="Rectangle 69" width="164.662" height="227.007" fill="none"/>
    </clipPath>
  </defs>
  <g id="Group_30" data-name="Group 30" clip-path="url(#clip-path)">
    <path id="Path_292" data-name="Path 292" d="M150.375,205.29H113.356a13.381,13.381,0,0,0-3.5.478c-.006-.16-.025-.316-.025-.478a14.526,14.526,0,0,1,14.526-14.525c.236,0,.466.025.7.036l-2.22-17.55h-75l-2.806,22.178A11.736,11.736,0,0,1,50.4,205.29H20.3a13.416,13.416,0,0,0,0,26.832H40.387l-5.379,42.511a15.656,15.656,0,0,1,4.953,25.445h98.922l-3-23.684a16.368,16.368,0,0,1-3.915-30.94l-1.687-13.332h20.089a13.416,13.416,0,0,0,0-26.832" transform="translate(-3.006 -75.688)" fill="#fff"/>
    <path id="Path_293" data-name="Path 293" d="M139.822,300.666H31.636l4.439-4.463a13.039,13.039,0,0,0-4.125-21.193l-1.816-.775,5.254-41.524H18.266a16.033,16.033,0,0,1,0-32.066h27.1a9.141,9.141,0,0,0-3.8-5.05L40.2,194.7l3.3-26.1h79.618l2.9,22.929-3.412-.167c-.091-.006-.182-.015-.275-.015a11.929,11.929,0,0,0-11.622,9.305c.206-.01.413-.014.619-.014h37.019a16.033,16.033,0,0,1,0,32.066h-17.12l1.554,12.28-1.729.806a13.751,13.751,0,0,0,3.285,26l1.88.348Zm-96.765-5.234h90.828l-2.4-18.945a18.982,18.982,0,0,1-4.368-34.523l-1.833-14.488h23.057a10.8,10.8,0,0,0,0-21.6H111.326a10.812,10.812,0,0,0-2.817.387l-3.192.86-.105-3.3c-.017-.253-.025-.4-.025-.56a17.168,17.168,0,0,1,14.889-16.995L118.5,173.838H48.112l-2.325,18.369a14.307,14.307,0,0,1,5.2,11.054v2.617H18.266a10.8,10.8,0,0,0,0,21.6H41.325l-5.518,43.609a18.3,18.3,0,0,1,7.249,24.346" transform="translate(-0.976 -73.658)" fill="#282b31"/>
    <path id="Path_294" data-name="Path 294" d="M152.853,336.743V286.389a29.213,29.213,0,0,0-29.213-29.213h-.918a29.213,29.213,0,0,0-29.214,29.213v50.354Z" transform="translate(-40.851 -112.352)" fill="#ee87a3"/>
    <path id="Path_295" data-name="Path 295" d="M153.44,337.329H88.862V284.358a31.866,31.866,0,0,1,31.831-31.829h.918a31.866,31.866,0,0,1,31.829,31.829ZM94.1,332.1h54.111V284.358a26.626,26.626,0,0,0-26.6-26.6h-.918a26.626,26.626,0,0,0-26.6,26.6Z" transform="translate(-38.821 -110.322)" fill="#282b31"/>
    <path id="Path_296" data-name="Path 296" d="M43.157,4.881a.834.834,0,0,0-1.422.59V39.3a.835.835,0,0,0,.486.757.849.849,0,0,0,.347.076.829.829,0,0,0,.546-.2L61.251,24.24a.833.833,0,0,0,.044-1.22Z" transform="translate(-18.233 -2.026)" fill="#f4e1b9"/>
    <path id="Path_297" data-name="Path 297" d="M40.537,40.727a3.45,3.45,0,0,1-3.45-3.45V3.447A3.436,3.436,0,0,1,39.226.256a3.508,3.508,0,0,1,3.751.752l18.138,18.14a3.449,3.449,0,0,1-.187,5.052L42.795,39.886a3.437,3.437,0,0,1-2.258.841M42.321,7.753V33.376L56.059,21.492Z" transform="translate(-16.202 -0.002)" fill="#282b31"/>
    <path id="Path_298" data-name="Path 298" d="M234.785,4.7a.834.834,0,0,0-.909.18L215.74,23.021a.831.831,0,0,0,.043,1.22l18.138,15.691a.826.826,0,0,0,.545.2.851.851,0,0,0,.347-.075.835.835,0,0,0,.485-.757V5.471a.831.831,0,0,0-.514-.77" transform="translate(-94.143 -2.026)" fill="#f4e1b9"/>
    <path id="Path_299" data-name="Path 299" d="M232.437,40.725a3.447,3.447,0,0,1-2.267-.849L212.041,24.193a3.448,3.448,0,0,1-.17-5.06L230,1.005a3.486,3.486,0,0,1,3.771-.743,3.428,3.428,0,0,1,2.119,3.183v33.83a3.448,3.448,0,0,1-3.45,3.45M216.916,21.49l13.737,11.884V7.751Z" transform="translate(-92.113 0)" fill="#282b31"/>
    <path id="Path_300" data-name="Path 300" d="M102.39,172.358c24.137,0,45.195-11.7,56.473-29.082-11.278-17.379-32.336-29.081-56.473-29.081s-45.2,11.7-56.474,29.081c11.278,17.38,32.337,29.082,56.474,29.082" transform="translate(-20.059 -49.888)" fill="#ee87a3"/>
    <path id="Path_301" data-name="Path 301" d="M99.97,172.945c-24.072,0-46.551-11.6-58.669-30.275l-.924-1.424.925-1.425c12.117-18.673,34.6-30.273,58.668-30.273s46.55,11.6,58.666,30.273l.925,1.425-.924,1.424c-12.118,18.674-34.6,30.275-58.668,30.275m-53.322-31.7c11.368,16.366,31.627,26.465,53.322,26.465s41.953-10.1,53.321-26.465c-11.368-16.366-31.627-26.464-53.321-26.464s-41.954,10.1-53.322,26.464" transform="translate(-17.639 -47.859)" fill="#282b31"/>
    <path id="Path_302" data-name="Path 302" d="M154.59,27.079H134.645a9.433,9.433,0,0,0-4.092.938A69.172,69.172,0,0,0,84.36,10.911,69.173,69.173,0,0,0,38.166,28.017a9.429,9.429,0,0,0-4.092-.938H14.13a9.485,9.485,0,0,0,0,18.97H24.46a52.615,52.615,0,0,0,3.426,52.105C39.164,80.775,60.223,69.073,84.36,69.073s45.195,11.7,56.472,29.081a52.615,52.615,0,0,0,3.426-52.105H154.59a9.485,9.485,0,0,0,0-18.97" transform="translate(-2.03 -4.767)" fill="#fff"/>
    <path id="Path_303" data-name="Path 303" d="M138.8,100.932l-2.195-3.382c-11.164-17.2-31.962-27.889-54.278-27.889S39.215,80.346,28.052,97.55l-2.195,3.382-2.2-3.382a56,56,0,0,1-9.169-30.506,54.788,54.788,0,0,1,3.926-20.408H12.1a12.1,12.1,0,0,1,0-24.2H32.046a11.921,11.921,0,0,1,3.564.542A71.751,71.751,0,0,1,82.33,6.265a71.751,71.751,0,0,1,46.721,16.709,11.928,11.928,0,0,1,3.565-.542H152.56a12.1,12.1,0,0,1,0,24.2h-6.319a54.788,54.788,0,0,1,3.925,20.408A55.992,55.992,0,0,1,141,97.55ZM12.1,27.666a6.868,6.868,0,0,0,0,13.736H26.6l-1.818,3.757a49.863,49.863,0,0,0-5.059,21.885,50.428,50.428,0,0,0,6.3,24.272c12.54-16.68,33.72-26.888,56.3-26.888s43.762,10.208,56.3,26.888a50.428,50.428,0,0,0,6.3-24.272,49.864,49.864,0,0,0-5.059-21.885L138.056,41.4h14.5a6.868,6.868,0,1,0,0-13.736H132.616a6.8,6.8,0,0,0-2.96.681l-1.574.755-1.3-1.164C114.932,17.337,99.147,11.5,82.33,11.5s-32.6,5.839-44.449,16.44L36.58,29.1l-1.575-.755a6.8,6.8,0,0,0-2.96-.681Z" transform="translate(0 -2.737)" fill="#282b31"/>
    <path id="Path_304" data-name="Path 304" d="M220,88.151a5.878,5.878,0,1,0-5.877,5.877A5.878,5.878,0,0,0,220,88.151" transform="translate(-90.974 -35.943)" fill="#282b31"/>
    <path id="Path_305" data-name="Path 305" d="M75.039,88.151a5.878,5.878,0,1,0-5.877,5.877,5.878,5.878,0,0,0,5.877-5.877" transform="translate(-27.647 -35.943)" fill="#282b31"/>
    <path id="Path_306" data-name="Path 306" d="M120.246,169.761a4.5,4.5,0,1,0-4.5,4.5,4.5,4.5,0,0,0,4.5-4.5" transform="translate(-48.599 -72.198)" fill="#282b31"/>
    <path id="Path_307" data-name="Path 307" d="M174.177,169.761a4.5,4.5,0,1,0-4.5,4.5,4.5,4.5,0,0,0,4.5-4.5" transform="translate(-72.16 -72.198)" fill="#282b31"/>
    <path id="Path_308" data-name="Path 308" d="M189.7,218.877a14.533,14.533,0,0,0,18.815,13.88l-3.589-28.369c-.234-.011-.464-.036-.7-.036A14.526,14.526,0,0,0,189.7,218.877" transform="translate(-82.874 -89.275)" fill="#282b31"/>
    <path id="Path_309" data-name="Path 309" d="M202.2,233.989a17.142,17.142,0,1,1,0-34.283c.214,0,.423.012.633.026l2.388.117,4.141,32.73-2.1.648a17.16,17.16,0,0,1-5.061.761m-1.6-28.944a11.909,11.909,0,0,0,2.99,23.63Z" transform="translate(-80.844 -87.245)" fill="#282b31"/>
    <path id="Path_310" data-name="Path 310" d="M54.332,353.284l-3.219,25.445h8.172a15.656,15.656,0,0,0-4.953-25.445" transform="translate(-22.33 -154.339)" fill="#282b31"/>
    <path id="Path_311" data-name="Path 311" d="M58.07,378.422H45.842l4.026-31.831,3.19,1.363a18.274,18.274,0,0,1,5.779,29.7Zm-6.291-5.234h4.057a13.041,13.041,0,0,0-1.712-18.536Z" transform="translate(-20.027 -151.415)" fill="#282b31"/>
    <path id="Path_312" data-name="Path 312" d="M212.192,316.31a16.381,16.381,0,0,0,13.39,16.1l-3.915-30.94a16.373,16.373,0,0,0-9.475,14.841" transform="translate(-92.7 -131.702)" fill="#282b31"/>
    <path id="Path_313" data-name="Path 313" d="M226.6,332.617l-3.522-.652a18.985,18.985,0,0,1-4.546-35.884l3.253-1.517Zm-9.037-29.73a13.74,13.74,0,0,0,2.878,22.739Z" transform="translate(-90.67 -128.685)" fill="#282b31"/>
    <path id="Path_314" data-name="Path 314" d="M77.932,222.5a11.737,11.737,0,0,0-5.369-9.861l-2.657,21A11.753,11.753,0,0,0,77.932,222.5" transform="translate(-30.54 -92.894)" fill="#282b31"/>
    <path id="Path_315" data-name="Path 315" d="M64.368,233.978l3.7-29.271,3.5,2.27a14.36,14.36,0,0,1-3.25,25.679Zm7.658-18.838-1.23,9.718a9.135,9.135,0,0,0,1.23-9.718" transform="translate(-28.12 -89.43)" fill="#282b31"/>
  </g>
</svg>
