<svg id="fox" xmlns="http://www.w3.org/2000/svg" xmlns:xlink="http://www.w3.org/1999/xlink" width="165.145" height="195.037" viewBox="0 0 165.145 195.037">
  <defs>
    <clipPath id="clip-path">
      <rect id="Rectangle_61" data-name="Rectangle 61" width="165.145" height="195.037" fill="none"/>
    </clipPath>
  </defs>
  <g id="Group_23" data-name="Group 23" clip-path="url(#clip-path)">
    <path id="Path_173" data-name="Path 173" d="M213.093,308.947a21.956,21.956,0,0,0,29.865,32.192,80.163,80.163,0,0,0,9.625-11.81l-26.991-29.095a80.252,80.252,0,0,0-12.5,8.713" transform="translate(-108.704 -158.377)" fill="#f1673e"/>
    <path id="Path_174" data-name="Path 174" d="M225.592,346.079h0a24.152,24.152,0,0,1-16.431-41.857,82.019,82.019,0,0,1,12.876-8.994l1.522-.9,29.4,31.688-1.01,1.452a81.983,81.983,0,0,1-9.933,12.165,24.073,24.073,0,0,1-16.42,6.446m-2.839-46.162a73.215,73.215,0,0,0-10.606,7.525,19.76,19.76,0,0,0,26.879,28.973,73.073,73.073,0,0,0,8.3-10.013Z" transform="translate(-106.265 -155.262)" fill="#282b31"/>
    <path id="Path_175" data-name="Path 175" d="M292.531,268.882s-30.9,6.4-45.145,14.814l26.991,29.095c9.454-13.575,18.154-43.909,18.154-43.909" transform="translate(-130.499 -141.838)" fill="#fff"/>
    <path id="Path_176" data-name="Path 176" d="M270.756,313.059l-30.7-33.091,2.346-1.386c14.393-8.5,44.539-14.808,45.816-15.072l3.557-.738-1,3.493c-.359,1.253-8.91,30.841-18.463,44.558Zm-23.712-32.017,23.163,24.969c6.687-10.94,12.856-29.618,15.272-37.4-7.938,1.826-27.025,6.578-38.436,12.427" transform="translate(-126.633 -138.614)" fill="#282b31"/>
    <path id="Path_177" data-name="Path 177" d="M125.044,207.728h-20.18l-3.037-24.006H39.119l-3.037,24.006H15.9a11.256,11.256,0,1,0,0,22.512H33.235L25.7,289.757h89.537l-7.529-59.517h17.331a11.256,11.256,0,0,0,0-22.512" transform="translate(-2.451 -96.915)" fill="#f1673e"/>
    <path id="Path_178" data-name="Path 178" d="M115.281,289.5H20.763l7.53-59.517H13.451a13.452,13.452,0,0,1,0-26.9H31.7l3.037-24.006h66.579l3.037,24.006h18.244a13.452,13.452,0,0,1,0,26.9H107.752ZM25.744,285.11H110.3l-7.53-59.517h19.822a9.061,9.061,0,0,0,0-18.121H100.477L97.44,183.466H38.6l-3.037,24.005H13.451a9.061,9.061,0,0,0,0,18.121H33.273Z" transform="translate(0 -94.464)" fill="#282b31"/>
    <path id="Path_179" data-name="Path 179" d="M136.8,4.735a1.317,1.317,0,0,0-1.436.285l-18.4,18.4a59.761,59.761,0,0,0-67.5.006l-18.4-18.4a1.318,1.318,0,0,0-2.249.932v53.46a1.317,1.317,0,0,0,2.18,1l1.545-1.336c25.121,4.342,44.1,24.038,44.1,47.709,0,1.033-.048,2.054-.119,3.071a61.621,61.621,0,0,0,6.706.379c1.448,0,2.878-.066,4.3-.164-.082-1.087-.138-2.18-.138-3.286,0-24.309,20.012-44.425,46.141-48.025l1.91,1.652a1.317,1.317,0,0,0,2.18-1V5.952a1.317,1.317,0,0,0-.813-1.217" transform="translate(-15.199 -2.444)" fill="#f1673e"/>
    <path id="Path_180" data-name="Path 180" d="M80.77,109.982a64.239,64.239,0,0,1-6.944-.392l-2.1-.23.147-2.106c.078-1.109.114-2.036.114-2.917,0-21.85-17.289-40.78-41.261-45.361l-.75.648a3.566,3.566,0,0,1-3.761.537,3.521,3.521,0,0,1-2.05-3.194V3.506A3.5,3.5,0,0,1,26.335.261a3.555,3.555,0,0,1,3.831.764L47.281,18.141a60.568,60.568,0,0,1,33.489-9.8,60.563,60.563,0,0,1,33.476,9.8L131.358,1.023A3.55,3.55,0,0,1,135.19.262a3.5,3.5,0,0,1,2.164,3.244v53.46a3.522,3.522,0,0,1-2.05,3.194,3.561,3.561,0,0,1-3.762-.537l-1.15-1A54.275,54.275,0,0,0,99.777,74.087a43.42,43.42,0,0,0-12.652,30.249c0,.929.043,1.921.132,3.121l.165,2.2-2.2.153c-1.641.114-3.1.169-4.449.169m-4.406-4.564c1.5.116,2.958.173,4.406.173.631,0,1.289-.013,1.984-.041-.012-.418-.019-.82-.019-1.214A47.791,47.791,0,0,1,96.626,71.028a58.8,58.8,0,0,1,34.145-16.892l.984-.135,1.209,1.046V5.627l-18.2,18.2-1.51-1.064A56.034,56.034,0,0,0,80.77,12.728,56.04,56.04,0,0,0,48.277,22.774l-1.511,1.064L28.557,5.627V55.046l.877-.76,1.025.177c26.607,4.6,45.919,25.574,45.919,49.873,0,.353-.005.711-.016,1.081" transform="translate(-12.748 0)" fill="#282b31"/>
    <path id="Path_181" data-name="Path 181" d="M28.679,118.71c-.071,1.016-.119,2.038-.119,3.07,0,24.829,20.872,45.3,47.822,48.248.071-1.017.119-2.038.119-3.071,0-24.829-20.873-45.3-47.822-48.247" transform="translate(-15.066 -62.621)" fill="#fff"/>
    <path id="Path_182" data-name="Path 182" d="M75.962,169.745l-2.27-.249c-28.378-3.106-49.778-24.787-49.778-50.431,0-.986.04-2.01.125-3.224l.159-2.277,2.269.249c28.378,3.106,49.779,24.786,49.779,50.43,0,.986-.04,2.01-.125,3.224ZM28.31,118.479c0,.2-.005.394-.005.587,0,22.7,18.559,42.02,43.545,45.765q0-.3.005-.587c0-22.7-18.559-42.02-43.545-45.764" transform="translate(-12.614 -59.907)" fill="#282b31"/>
    <path id="Path_183" data-name="Path 183" d="M203.136,121.54c0-1.105-.057-2.2-.138-3.285-28.1,1.956-50.23,22.9-50.23,48.462,0,1.106.057,2.2.138,3.286,28.1-1.956,50.23-22.9,50.23-48.463" transform="translate(-80.587 -62.381)" fill="#fff"/>
    <path id="Path_184" data-name="Path 184" d="M148.429,169.731l-.163-2.178c-.1-1.313-.144-2.409-.144-3.45,0-26.363,22.961-48.613,52.273-50.653l2.179-.152.163,2.178c.1,1.313.144,2.409.144,3.45,0,26.363-22.961,48.613-52.273,50.653Zm50.048-51.7c-25.95,2.808-45.964,22.672-45.964,46.075,0,.292,0,.589.013.9,25.95-2.808,45.964-22.673,45.964-46.075,0-.292,0-.59-.013-.9" transform="translate(-78.136 -59.766)" fill="#282b31"/>
    <path id="Path_185" data-name="Path 185" d="M140.4,214.211a7.9,7.9,0,0,1-7.9,7.9h-7.9a7.9,7.9,0,1,1,0-15.809h7.9a7.9,7.9,0,0,1,7.9,7.9" transform="translate(-61.553 -108.829)" fill="#282b31"/>
    <path id="Path_186" data-name="Path 186" d="M61.591,154.334a4.931,4.931,0,1,0-4.931,4.931,4.932,4.932,0,0,0,4.931-4.931" transform="translate(-27.287 -78.812)" fill="#282b31"/>
    <path id="Path_187" data-name="Path 187" d="M220.823,154.334a4.931,4.931,0,1,0-4.931,4.931,4.932,4.932,0,0,0,4.931-4.931" transform="translate(-111.284 -78.812)" fill="#282b31"/>
    <path id="Path_188" data-name="Path 188" d="M138.88,333.606V291.358a24.51,24.51,0,0,0-24.511-24.511H113.6a24.511,24.511,0,0,0-24.512,24.511v42.248Z" transform="translate(-46.995 -140.765)" fill="#fff"/>
    <path id="Path_189" data-name="Path 189" d="M138.624,333.35H84.441V288.907A26.737,26.737,0,0,1,111.148,262.2h.769a26.737,26.737,0,0,1,26.707,26.707Zm-49.792-4.391h45.4V288.907a22.34,22.34,0,0,0-22.315-22.315h-.769a22.341,22.341,0,0,0-22.316,22.315Z" transform="translate(-44.544 -138.313)" fill="#282b31"/>
  </g>
</svg>
