<svg id="frog" xmlns="http://www.w3.org/2000/svg" xmlns:xlink="http://www.w3.org/1999/xlink" width="132.228" height="199.225" viewBox="0 0 132.228 199.225">
  <defs>
    <clipPath id="clip-path">
      <rect id="Rectangle_63" data-name="Rectangle 63" width="132.228" height="199.225" fill="none"/>
    </clipPath>
  </defs>
  <g id="Group_25" data-name="Group 25" clip-path="url(#clip-path)">
    <path id="Path_207" data-name="Path 207" d="M121.667,232.532H103.429l-3.907-30.879H37.731l-3.907,30.879H15.588a10.94,10.94,0,1,0,0,21.881H31.057l-6.545,51.726h88.229L106.2,254.412h15.47a10.94,10.94,0,0,0,0-21.881" transform="translate(-2.513 -109.047)" fill="#448b5e"/>
    <path id="Path_208" data-name="Path 208" d="M112.649,305.759H19.578l6.545-51.726H13.075a13.074,13.074,0,1,1,0-26.149H29.43l3.907-30.879H98.89l3.907,30.879h16.356a13.074,13.074,0,0,1,0,26.149H106.1ZM24.42,301.491h83.387l-6.545-51.726h17.891a8.807,8.807,0,0,0,0-17.613H99.035l-3.907-30.879H37.1l-3.907,30.879H13.075a8.807,8.807,0,1,0,0,17.613h17.89Z" transform="translate(0 -106.533)" fill="#282b31"/>
    <path id="Path_209" data-name="Path 209" d="M134.359,25.467a20.822,20.822,0,0,0-41.2-4.263,60.152,60.152,0,0,0-25.806,0A20.821,20.821,0,1,0,34.716,42.3a43.967,43.967,0,0,0-8.193,25.424c0,26.463,24.056,47.917,53.731,47.917s53.732-21.454,53.732-47.917A43.965,43.965,0,0,0,125.791,42.3a20.787,20.787,0,0,0,8.568-16.83" transform="translate(-14.14 -2.513)" fill="#448b5e"/>
    <path id="Path_210" data-name="Path 210" d="M77.741,115.259c-30.8,0-55.865-22.453-55.865-50.051A45.987,45.987,0,0,1,29.338,40.22,22.953,22.953,0,1,1,66.4,16.2a62.537,62.537,0,0,1,22.687,0,22.955,22.955,0,1,1,37.06,24.021,45.99,45.99,0,0,1,7.462,24.988c0,27.6-25.061,50.051-55.866,50.051M44.456,4.268A18.684,18.684,0,0,0,33.461,38.06l1.7,1.236L33.95,41.012a41.92,41.92,0,0,0-7.805,24.2c0,25.245,23.146,45.783,51.6,45.783s51.6-20.538,51.6-45.783a41.924,41.924,0,0,0-7.806-24.2L120.326,39.3l1.7-1.236A18.685,18.685,0,1,0,92.734,19.126l-.44,2.113-2.107-.463a58.251,58.251,0,0,0-24.891,0l-2.107.463-.44-2.113A18.751,18.751,0,0,0,44.456,4.268" transform="translate(-11.628)" fill="#282b31"/>
    <path id="Path_211" data-name="Path 211" d="M58.354,141.331A12.894,12.894,0,1,0,45.46,154.224a12.894,12.894,0,0,0,12.894-12.893" transform="translate(-17.611 -69.454)" fill="#ee87a3"/>
    <path id="Path_212" data-name="Path 212" d="M42.947,153.844a15.028,15.028,0,1,1,15.028-15.028,15.045,15.045,0,0,1-15.028,15.028m0-25.787a10.76,10.76,0,1,0,10.76,10.759,10.772,10.772,0,0,0-10.76-10.759" transform="translate(-15.098 -66.941)" fill="#282b31"/>
    <path id="Path_213" data-name="Path 213" d="M225,141.331A12.894,12.894,0,1,0,212.1,154.224,12.894,12.894,0,0,0,225,141.331" transform="translate(-107.726 -69.454)" fill="#ee87a3"/>
    <path id="Path_214" data-name="Path 214" d="M209.591,153.844a15.028,15.028,0,1,1,15.028-15.028,15.045,15.045,0,0,1-15.028,15.028m0-25.787a10.76,10.76,0,1,0,10.76,10.759,10.772,10.772,0,0,0-10.76-10.759" transform="translate(-105.213 -66.941)" fill="#282b31"/>
    <path id="Path_215" data-name="Path 215" d="M214.077,34.286a13.331,13.331,0,1,0-13.331,13.331,13.331,13.331,0,0,0,13.331-13.331" transform="translate(-101.347 -11.332)" fill="#fff"/>
    <path id="Path_216" data-name="Path 216" d="M198.234,47.237A15.465,15.465,0,1,1,213.7,31.772a15.483,15.483,0,0,1-15.465,15.465m0-26.662a11.2,11.2,0,1,0,11.2,11.2,11.21,11.21,0,0,0-11.2-11.2" transform="translate(-98.834 -8.818)" fill="#282b31"/>
    <path id="Path_217" data-name="Path 217" d="M69.119,34.286A13.331,13.331,0,1,0,55.788,47.617,13.331,13.331,0,0,0,69.119,34.286" transform="translate(-22.959 -11.332)" fill="#fff"/>
    <path id="Path_218" data-name="Path 218" d="M53.275,47.237A15.465,15.465,0,1,1,68.74,31.772,15.482,15.482,0,0,1,53.275,47.237m0-26.662a11.2,11.2,0,1,0,11.2,11.2,11.21,11.21,0,0,0-11.2-11.2" transform="translate(-20.446 -8.818)" fill="#282b31"/>
    <path id="Path_219" data-name="Path 219" d="M215.594,44.341a4.793,4.793,0,1,0-4.793,4.793,4.793,4.793,0,0,0,4.793-4.793" transform="translate(-111.402 -21.386)" fill="#282b31"/>
    <path id="Path_220" data-name="Path 220" d="M70.634,44.341a4.793,4.793,0,1,0-4.793,4.793,4.793,4.793,0,0,0,4.793-4.793" transform="translate(-33.012 -21.386)" fill="#282b31"/>
    <path id="Path_221" data-name="Path 221" d="M118.717,167.622A28.9,28.9,0,0,1,98.149,159.1a2.988,2.988,0,1,1,4.225-4.225,23.095,23.095,0,0,0,32.683,0,2.988,2.988,0,1,1,4.226,4.225,28.9,28.9,0,0,1-20.567,8.526" transform="translate(-52.603 -83.276)" fill="#282b31"/>
  </g>
</svg>
