<svg xmlns="http://www.w3.org/2000/svg" xmlns:xlink="http://www.w3.org/1999/xlink" width="231.347" height="251.523" viewBox="0 0 231.347 251.523">
  <defs>
    <clipPath id="clip-path">
      <rect id="Rectangle_66" data-name="Rectangle 66" width="143.5" height="206.922" fill="none"/>
    </clipPath>
  </defs>
  <g id="owl" transform="matrix(0.848, 0.53, -0.53, 0.848, 109.652, 0)">
    <g id="Group_27" data-name="Group 27" clip-path="url(#clip-path)">
      <path id="Path_232" data-name="Path 232" d="M131.642,216.529H111.851l-4.239-33.511H40.552l-4.239,33.511H16.52a11.873,11.873,0,0,0,0,23.746H33.308l-7.1,56.136h95.751l-7.1-56.136h16.788a11.873,11.873,0,0,0,0-23.746" transform="translate(-2.331 -91.805)" fill="#c37e4f"/>
      <path id="Path_233" data-name="Path 233" d="M122.252,296.4h-101l7.1-56.136H14.189a14.189,14.189,0,0,1,0-28.378H31.94l4.239-33.511h71.143l4.239,33.511h17.75a14.189,14.189,0,1,1,0,28.378H115.15ZM26.5,291.763H117l-7.1-56.136h19.415a9.557,9.557,0,0,0,0-19.115H107.477L103.238,183H40.263l-4.239,33.511H14.189a9.557,9.557,0,0,0,0,19.115H33.6Z" transform="translate(0 -89.473)" fill="#282b31"/>
      <path id="Path_234" data-name="Path 234" d="M142.657,54.586V6.024a1.389,1.389,0,0,0-2.372-.983l-18.339,18.34a63.857,63.857,0,0,0-73.339,0L30.268,5.041a1.389,1.389,0,0,0-2.372.983V54.591a46.778,46.778,0,0,0-.931,9.213c0,28.719,26.106,52,58.311,52s58.313-23.283,58.313-52a46.79,46.79,0,0,0-.932-9.218" transform="translate(-13.526 -2.324)" fill="#c37e4f"/>
      <path id="Path_235" data-name="Path 235" d="M82.945,115.8c-33.43,0-60.627-24.367-60.627-54.318a49.281,49.281,0,0,1,.93-9.44V3.7A3.693,3.693,0,0,1,25.537.276a3.742,3.742,0,0,1,4.04.806L46.543,18.048a66.31,66.31,0,0,1,72.806,0L136.316,1.08a3.746,3.746,0,0,1,4.043-.8A3.692,3.692,0,0,1,142.642,3.7V52.034a49.231,49.231,0,0,1,.932,9.445c0,29.951-27.2,54.318-60.628,54.318M27.88,5.936V52.5l-.045.225a44.65,44.65,0,0,0-.886,8.758c0,27.4,25.12,49.686,56,49.686s56-22.289,56-49.686a44.706,44.706,0,0,0-.886-8.762l-.045-.456V5.936L119.858,24.089l-1.6-1.155a61.542,61.542,0,0,0-70.627,0l-1.6,1.155Z" transform="translate(-11.195 0)" fill="#282b31"/>
      <path id="Path_236" data-name="Path 236" d="M120.042,78.65A23.631,23.631,0,0,0,97.187,96.284a23.623,23.623,0,1,0,0,11.976,23.624,23.624,0,1,0,22.854-29.61" transform="translate(-25.437 -39.452)" fill="#f4e1b9"/>
      <path id="Path_237" data-name="Path 237" d="M117.711,125.88a25.954,25.954,0,0,1-22.854-13.656,25.938,25.938,0,1,1,0-24.564,25.942,25.942,0,1,1,22.854,38.221M95.686,99.941l1.411,5.4a21.306,21.306,0,1,0,0-10.805ZM72,78.635a21.306,21.306,0,1,0,20.614,26.708l1.412-5.4-1.412-5.4A21.307,21.307,0,0,0,72,78.635" transform="translate(-23.106 -37.121)" fill="#282b31"/>
      <path id="Path_238" data-name="Path 238" d="M95.039,118.121a5.2,5.2,0,1,0-5.2,5.2,5.2,5.2,0,0,0,5.2-5.2" transform="translate(-42.454 -56.642)" fill="#282b31"/>
      <path id="Path_239" data-name="Path 239" d="M192.823,118.121a5.2,5.2,0,1,0-5.2,5.2,5.2,5.2,0,0,0,5.2-5.2" transform="translate(-91.505 -56.642)" fill="#282b31"/>
      <rect id="Rectangle_65" data-name="Rectangle 65" width="20.38" height="20.38" transform="translate(57.34 81.092) rotate(-45.001)" fill="#f1673e"/>
      <path id="Path_240" data-name="Path 240" d="M126.166,162.593,108.48,144.907l17.686-17.686,17.686,17.686ZM115.03,144.907l11.136,11.135L137.3,144.907l-11.136-11.135Z" transform="translate(-54.415 -63.816)" fill="#282b31"/>
      <path id="Path_241" data-name="Path 241" d="M143.8,339.663V295.1a25.854,25.854,0,0,0-25.854-25.854h-.811A25.854,25.854,0,0,0,91.276,295.1v44.564Z" transform="translate(-45.785 -135.057)" fill="#f4e1b9"/>
      <path id="Path_242" data-name="Path 242" d="M143.782,339.648H86.629v-46.88A28.2,28.2,0,0,1,114.8,264.6h.811a28.2,28.2,0,0,1,28.17,28.17Zm-52.521-4.632H139.15V292.768a23.565,23.565,0,0,0-23.538-23.538H114.8a23.566,23.566,0,0,0-23.539,23.538Z" transform="translate(-43.454 -132.726)" fill="#282b31"/>
      <path id="Path_243" data-name="Path 243" d="M121.387,298.952a3.37,3.37,0,0,1-3.371,3.371h-6.351a3.371,3.371,0,0,1,0-6.742h6.351a3.371,3.371,0,0,1,3.371,3.372" transform="translate(-54.322 -148.267)" fill="#c37e4f"/>
      <path id="Path_244" data-name="Path 244" d="M115.685,302.307h-6.351a5.687,5.687,0,0,1,0-11.374h6.351a5.687,5.687,0,0,1,0,11.374m-6.351-6.742a1.055,1.055,0,0,0,0,2.111h6.351a1.055,1.055,0,0,0,0-2.111Z" transform="translate(-51.991 -145.936)" fill="#282b31"/>
      <path id="Path_245" data-name="Path 245" d="M166.461,298.952a3.37,3.37,0,0,1-3.371,3.371H156.74a3.371,3.371,0,0,1,0-6.742h6.351a3.371,3.371,0,0,1,3.371,3.372" transform="translate(-76.932 -148.267)" fill="#c37e4f"/>
      <path id="Path_246" data-name="Path 246" d="M160.76,302.307H154.41a5.687,5.687,0,0,1,0-11.374h6.351a5.687,5.687,0,0,1,0,11.374m-6.351-6.742a1.055,1.055,0,0,0,0,2.111h6.351a1.055,1.055,0,0,0,0-2.111Z" transform="translate(-74.602 -145.936)" fill="#282b31"/>
      <path id="Path_247" data-name="Path 247" d="M121.387,329.735a3.37,3.37,0,0,1-3.371,3.371h-6.351a3.371,3.371,0,0,1,0-6.742h6.351a3.371,3.371,0,0,1,3.371,3.372" transform="translate(-54.322 -163.709)" fill="#c37e4f"/>
      <path id="Path_248" data-name="Path 248" d="M115.685,333.09h-6.351a5.687,5.687,0,0,1,0-11.374h6.351a5.687,5.687,0,0,1,0,11.374m-6.351-6.742a1.055,1.055,0,0,0,0,2.111h6.351a1.055,1.055,0,0,0,0-2.111Z" transform="translate(-51.991 -161.378)" fill="#282b31"/>
      <path id="Path_249" data-name="Path 249" d="M166.461,329.735a3.37,3.37,0,0,1-3.371,3.371H156.74a3.371,3.371,0,0,1,0-6.742h6.351a3.371,3.371,0,0,1,3.371,3.372" transform="translate(-76.932 -163.709)" fill="#c37e4f"/>
      <path id="Path_250" data-name="Path 250" d="M160.76,333.09H154.41a5.687,5.687,0,0,1,0-11.374h6.351a5.687,5.687,0,0,1,0,11.374m-6.351-6.742a1.055,1.055,0,0,0,0,2.111h6.351a1.055,1.055,0,0,0,0-2.111Z" transform="translate(-74.602 -161.378)" fill="#282b31"/>
      <path id="Path_251" data-name="Path 251" d="M121.387,360.519a3.37,3.37,0,0,1-3.371,3.371h-6.351a3.371,3.371,0,0,1,0-6.742h6.351a3.371,3.371,0,0,1,3.371,3.372" transform="translate(-54.322 -179.15)" fill="#c37e4f"/>
      <path id="Path_252" data-name="Path 252" d="M115.685,363.874h-6.351a5.687,5.687,0,0,1,0-11.374h6.351a5.687,5.687,0,0,1,0,11.374m-6.351-6.742a1.055,1.055,0,0,0,0,2.111h6.351a1.055,1.055,0,0,0,0-2.111Z" transform="translate(-51.991 -176.819)" fill="#282b31"/>
      <path id="Path_253" data-name="Path 253" d="M166.461,360.519a3.37,3.37,0,0,1-3.371,3.371H156.74a3.371,3.371,0,0,1,0-6.742h6.351a3.37,3.37,0,0,1,3.371,3.372" transform="translate(-76.932 -179.15)" fill="#c37e4f"/>
      <path id="Path_254" data-name="Path 254" d="M160.76,363.874H154.41a5.687,5.687,0,0,1,0-11.374h6.351a5.687,5.687,0,0,1,0,11.374m-6.351-6.742a1.055,1.055,0,0,0,0,2.111h6.351a1.055,1.055,0,0,0,0-2.111Z" transform="translate(-74.602 -176.819)" fill="#282b31"/>
    </g>
  </g>
</svg>
