<svg xmlns="http://www.w3.org/2000/svg" xmlns:xlink="http://www.w3.org/1999/xlink" width="224.375" height="278.417" viewBox="0 0 224.375 278.417">
  <defs>
    <clipPath id="clip-path">
      <rect id="Rectangle_60" data-name="Rectangle 60" width="133.308" height="245.037" fill="none"/>
    </clipPath>
  </defs>
  <g id="rabbit" transform="translate(0 56.338) rotate(-25)">
    <g id="Group_22" data-name="Group 22" clip-path="url(#clip-path)">
      <path id="Path_152" data-name="Path 152" d="M250.785,463.739A13.986,13.986,0,1,0,236.8,477.725a13.987,13.987,0,0,0,13.986-13.986" transform="translate(-119.743 -241.704)" fill="#fff"/>
      <path id="Path_153" data-name="Path 153" d="M234.3,477.378a16.136,16.136,0,1,1,16.136-16.136A16.154,16.154,0,0,1,234.3,477.378m0-27.973a11.837,11.837,0,1,0,11.837,11.837A11.851,11.851,0,0,0,234.3,449.405" transform="translate(-117.246 -239.207)" fill="#282b31"/>
      <path id="Path_154" data-name="Path 154" d="M122.519,324.152h-18.9l-2.973-23.5H39.257l-2.973,23.5H15.667a11.02,11.02,0,0,0,0,22.04H33.495l-7.371,58.269h87.66l-7.371-58.269h16.107a11.02,11.02,0,1,0,0-22.04" transform="translate(-2.497 -161.573)" fill="#fff"/>
      <path id="Path_155" data-name="Path 155" d="M113.725,404.113H21.187l7.371-58.269H13.17a13.17,13.17,0,1,1,0-26.34H31.892L34.865,296h65.183l2.973,23.5h17a13.17,13.17,0,1,1,0,26.34H106.353Zm-87.66-4.3h82.782l-7.371-58.269h18.546a8.871,8.871,0,1,0,0-17.742H99.231l-2.973-23.5h-57.6l-2.973,23.5H13.17a8.871,8.871,0,0,0,0,17.742H33.437Z" transform="translate(0 -159.076)" fill="#282b31"/>
      <path id="Path_156" data-name="Path 156" d="M126.692,71.582c4.287-12.854,14.379-63.635,4.891-66.8-8.946-2.985-31.9,43.5-36.191,56.359a34.92,34.92,0,0,0-1.8,9.739,59.305,59.305,0,0,0-43.526,0,34.937,34.937,0,0,0-1.8-9.739C43.981,48.288,21.024,1.8,12.078,4.783c-9.489,3.164.6,53.945,4.891,66.8,2.3,6.9,6.391,12.424,11.021,15.616a43.926,43.926,0,0,0-9.544,27.152c0,26.292,23.9,47.607,53.385,47.607s53.385-21.315,53.385-47.607A43.926,43.926,0,0,0,115.671,87.2c4.63-3.192,8.719-8.715,11.021-15.616" transform="translate(-4.374 -2.497)" fill="#fff"/>
      <path id="Path_157" data-name="Path 157" d="M69.319,161.611c-30.622,0-55.534-22.321-55.534-49.757a45.763,45.763,0,0,1,8.7-26.732A34.253,34.253,0,0,1,12.418,69.765c-2.283-6.844-5.878-23.106-7.7-37.442C1.352,5.94,5.485,1.381,8.886.247A4.886,4.886,0,0,1,10.437,0C22.411,0,44.531,48.176,47.8,57.965a37.654,37.654,0,0,1,1.679,7.415,61.61,61.61,0,0,1,39.689,0,37.719,37.719,0,0,1,1.678-7.415C94.107,48.176,116.228,0,128.2,0a4.881,4.881,0,0,1,1.551.248c3.4,1.134,7.535,5.693,4.173,32.077-1.827,14.335-5.421,30.6-7.7,37.442a34.253,34.253,0,0,1-10.065,15.356,45.76,45.76,0,0,1,8.7,26.732c0,27.436-24.912,49.757-55.534,49.757M10.437,4.3a.6.6,0,0,0-.191.027c-.187.062-4.535,1.82-1.268,27.455,1.794,14.078,5.3,29.972,7.518,36.625,2.062,6.184,5.78,11.479,10.2,14.527l1.877,1.294-1.4,1.8a41.727,41.727,0,0,0-9.089,25.83c0,25.066,22.984,45.458,51.235,45.458s51.235-20.393,51.235-45.458a41.727,41.727,0,0,0-9.089-25.83l-1.4-1.8,1.878-1.294c4.421-3.048,8.14-8.343,10.2-14.527,2.219-6.653,5.724-22.547,7.518-36.625,3.266-25.636-1.082-27.393-1.268-27.455A.6.6,0,0,0,128.2,4.3c-.515,0-5.394.631-17.787,22.488-6.962,12.277-13.463,26.45-15.494,32.539a32.65,32.65,0,0,0-1.69,9.137l-.111,3.048-2.833-1.13a57.153,57.153,0,0,0-41.933,0L45.52,71.51l-.111-3.048a32.65,32.65,0,0,0-1.69-9.137c-2.031-6.089-8.532-20.262-15.493-32.539C15.832,4.929,10.953,4.3,10.437,4.3" transform="translate(-1.863 0.001)" fill="#282b31"/>
      <path id="Path_158" data-name="Path 158" d="M47.249,71.112C44.1,61.663,27.9,27.264,22.236,29.155c-6.011,2,2.032,39.123,5.182,48.572s10.146,15.627,15.623,13.8,7.36-10.966,4.208-20.415" transform="translate(-10.783 -15.628)" fill="#ee87a3"/>
      <path id="Path_159" data-name="Path 159" d="M38.538,91.5h0c-6.161,0-12.6-6.411-15.665-15.59a207.639,207.639,0,0,1-6.112-27.43c-2.988-19.357-.52-22.924,2.288-23.861a3.642,3.642,0,0,1,1.156-.185c1.585,0,5.3,0,15.282,18.7a200.987,200.987,0,0,1,11.295,24.8c3.581,10.736,1.136,20.9-5.567,23.134a8.451,8.451,0,0,1-2.677.43m-18.1-62.683c-.438.853-1.717,4.867.781,20.309A199.312,199.312,0,0,0,26.952,74.55c2.741,8.216,8.015,12.65,11.586,12.65a4.159,4.159,0,0,0,1.317-.209c3.8-1.269,5.855-8.682,2.849-17.7C38.737,57.4,24.9,30.7,20.435,28.817" transform="translate(-8.277 -13.131)" fill="#282b31"/>
      <path id="Path_160" data-name="Path 160" d="M211.042,71.112c3.151-9.449,19.345-43.848,25.013-41.957,6.011,2-2.032,39.123-5.182,48.572s-10.146,15.627-15.623,13.8-7.36-10.966-4.208-20.415" transform="translate(-112.596 -15.628)" fill="#ee87a3"/>
      <path id="Path_161" data-name="Path 161" d="M214.739,91.5a8.451,8.451,0,0,1-2.677-.43c-6.7-2.237-9.149-12.4-5.567-23.134a200.968,200.968,0,0,1,11.294-24.8c9.983-18.705,13.7-18.705,15.282-18.705a3.644,3.644,0,0,1,1.156.185c2.808.937,5.276,4.5,2.288,23.862A207.633,207.633,0,0,1,230.4,75.91c-3.062,9.179-9.5,15.59-15.665,15.59m18.1-62.7c-4.376,1.729-18.283,28.56-22.262,40.492-3.007,9.013-.955,16.427,2.849,17.7a4.161,4.161,0,0,0,1.317.21c3.571,0,8.846-4.434,11.587-12.651a199.266,199.266,0,0,0,5.736-25.424c2.512-15.525,1.205-19.5.774-20.323" transform="translate(-110.089 -13.131)" fill="#282b31"/>
      <path id="Path_162" data-name="Path 162" d="M82.3,255.533a9.552,9.552,0,1,0-9.551,9.552,9.551,9.551,0,0,0,9.551-9.552" transform="translate(-33.963 -132.195)" fill="#f4b0c1"/>
      <path id="Path_163" data-name="Path 163" d="M70.252,264.738a11.7,11.7,0,1,1,11.7-11.7,11.715,11.715,0,0,1-11.7,11.7m0-19.1a7.4,7.4,0,1,0,7.4,7.4,7.411,7.411,0,0,0-7.4-7.4" transform="translate(-31.466 -129.697)" fill="#282b31"/>
      <path id="Path_164" data-name="Path 164" d="M206.255,255.533a9.552,9.552,0,1,0-9.552,9.552,9.552,9.552,0,0,0,9.552-9.552" transform="translate(-100.578 -132.195)" fill="#f4b0c1"/>
      <path id="Path_165" data-name="Path 165" d="M194.207,264.738a11.7,11.7,0,1,1,11.7-11.7,11.715,11.715,0,0,1-11.7,11.7m0-19.1a7.4,7.4,0,1,0,7.4,7.4,7.41,7.41,0,0,0-7.4-7.4" transform="translate(-98.081 -129.697)" fill="#282b31"/>
      <path id="Path_166" data-name="Path 166" d="M94.782,216.169A4.828,4.828,0,1,0,89.954,221a4.828,4.828,0,0,0,4.828-4.828" transform="translate(-45.748 -113.578)" fill="#282b31"/>
      <path id="Path_167" data-name="Path 167" d="M195.517,216.169A4.828,4.828,0,1,0,190.689,221a4.828,4.828,0,0,0,4.828-4.828" transform="translate(-99.885 -113.578)" fill="#282b31"/>
      <path id="Path_168" data-name="Path 168" d="M142.916,249.962a3.98,3.98,0,0,1-3.98,3.98h-5a3.98,3.98,0,1,1,0-7.96h5a3.98,3.98,0,0,1,3.98,3.98" transform="translate(-69.839 -132.195)" fill="#282b31"/>
      <path id="Path_169" data-name="Path 169" d="M107.26,278.063a3.009,3.009,0,0,1,0-6.019,12.366,12.366,0,0,0,12.352-12.352,3.009,3.009,0,1,1,6.019,0,18.392,18.392,0,0,1-18.371,18.371" transform="translate(-56.026 -137.945)" fill="#282b31"/>
      <path id="Path_170" data-name="Path 170" d="M155.83,278.063a18.392,18.392,0,0,1-18.371-18.371,3.009,3.009,0,1,1,6.019,0,12.366,12.366,0,0,0,12.352,12.352,3.009,3.009,0,1,1,0,6.019" transform="translate(-73.873 -137.945)" fill="#282b31"/>
      <path id="Path_171" data-name="Path 171" d="M141.162,440.33V395.766a28.374,28.374,0,0,0-28.374-28.374H111.9a28.374,28.374,0,0,0-28.374,28.374V440.33Z" transform="translate(-44.886 -197.442)" fill="#f4b0c1"/>
      <path id="Path_172" data-name="Path 172" d="M140.813,439.982H78.874V393.269A30.558,30.558,0,0,1,109.4,362.745h.892a30.558,30.558,0,0,1,30.524,30.524Zm-57.64-4.3h53.341V393.269a26.254,26.254,0,0,0-26.225-26.224H109.4a26.254,26.254,0,0,0-26.224,26.224Z" transform="translate(-42.388 -194.945)" fill="#282b31"/>
    </g>
  </g>
</svg>
