<svg id="top_cutain" xmlns="http://www.w3.org/2000/svg" xmlns:xlink="http://www.w3.org/1999/xlink" width="1335.387" height="176.097" viewBox="0 0 1335.387 176.097">
  <defs>
    <clipPath id="clip-path">
      <rect id="Rectangle_30" data-name="Rectangle 30" width="1335.387" height="176.097" fill="none"/>
    </clipPath>
    <clipPath id="clip-path-2">
      <rect id="Rectangle_29" data-name="Rectangle 29" width="1335.385" height="176.097" fill="none"/>
    </clipPath>
    <clipPath id="clip-path-3">
      <rect id="Rectangle_27" data-name="Rectangle 27" width="1335.387" height="155.243" fill="none"/>
    </clipPath>
    <clipPath id="clip-path-4">
      <rect id="Rectangle_28" data-name="Rectangle 28" width="699.294" height="88.247" fill="none"/>
    </clipPath>
  </defs>
  <g id="Group_19" data-name="Group 19" clip-path="url(#clip-path)">
    <g id="Group_18" data-name="Group 18">
      <g id="Group_17" data-name="Group 17" clip-path="url(#clip-path-2)">
        <g id="Group_13" data-name="Group 13" transform="translate(0 20.854)" opacity="0.2">
          <g id="Group_12" data-name="Group 12">
            <g id="Group_11" data-name="Group 11" clip-path="url(#clip-path-3)">
              <path id="Path_89" data-name="Path 89" d="M890.257,31.164H0V54.957c0,30.408,20.24,59.3,55.446,78.57,41.212,22.554,100.819,36.727,167.119,36.727s125.906-14.172,167.118-36.727A138.25,138.25,0,0,0,410.9,119.319q1.026-.839,2.023-1.692c.349-.3.69-.6,1.034-.9.138-.121.279-.242.416-.363,65.058,43.3,154.538,70.046,253.317,70.046s188.26-26.746,253.318-70.046c.128.113.259.226.388.338.355.312.707.624,1.068.933q1,.855,2.03,1.7a138.22,138.22,0,0,0,21.207,14.2c41.212,22.554,100.819,36.727,167.119,36.727s125.906-14.172,167.117-36.727c35.206-19.268,55.446-48.163,55.446-78.57V31.164Z" transform="translate(0 -31.164)"/>
            </g>
          </g>
        </g>
        <path id="Path_90" data-name="Path 90" d="M0,0V23.793C0,54.2,20.24,83.1,55.446,102.363c41.212,22.554,100.819,36.727,167.118,36.727s125.907-14.172,167.119-36.727C424.888,83.1,445.128,54.2,445.128,23.793V0Z" fill="#e43935"/>
        <path id="Path_91" data-name="Path 91" d="M389.683,46.853C348.471,56.113,288.864,61.93,222.565,61.93S96.658,56.113,55.446,46.853C20.24,38.943,0,27.08,0,14.6v.834c0,13.55,20.24,26.425,55.446,35.011C96.658,60.492,156.265,66.807,222.565,66.807s125.907-6.315,167.118-16.366c35.206-8.585,55.446-21.461,55.446-35.011V14.6c0,12.483-20.24,24.346-55.446,32.256" transform="translate(0 -4.829)" fill="#bf2121"/>
        <path id="Path_92" data-name="Path 92" d="M389.683,68.673c-41.211,13.572-100.819,22.1-167.118,22.1S96.658,82.245,55.446,68.673C20.24,57.079,0,39.692,0,21.4v.9C0,41.741,20.24,60.22,55.446,72.542,96.658,86.967,156.265,96.03,222.565,96.03s125.907-9.064,167.118-23.488c35.206-12.322,55.446-30.8,55.446-50.248v-.9c0,18.3-20.24,35.684-55.446,47.278" transform="translate(0 -7.078)" fill="#bf2121"/>
        <path id="Path_93" data-name="Path 93" d="M389.683,92.369c-41.211,18.255-100.819,29.725-167.118,29.725S96.658,110.624,55.446,92.369C20.24,76.775,0,53.389,0,28.778v.938c0,25.81,20.24,50.336,55.446,66.69,41.211,19.144,100.819,31.174,167.118,31.174s125.907-12.03,167.118-31.174c35.206-16.354,55.446-40.88,55.446-66.69v-.938c0,24.611-20.24,48-55.446,63.591" transform="translate(0 -9.521)" fill="#bf2121"/>
        <path id="Path_94" data-name="Path 94" d="M1330.4,0V23.793c0,30.408,20.24,59.3,55.446,78.57,41.212,22.554,100.819,36.727,167.118,36.727s125.907-14.172,167.118-36.727c35.206-19.268,55.446-48.163,55.446-78.57V0Z" transform="translate(-440.141)" fill="#e43935"/>
        <path id="Path_95" data-name="Path 95" d="M1720.08,46.853c-41.211,9.26-100.819,15.078-167.118,15.078s-125.907-5.818-167.118-15.078C1350.638,38.943,1330.4,27.08,1330.4,14.6v.834c0,13.55,20.24,26.425,55.446,35.011,41.211,10.051,100.819,16.366,167.118,16.366s125.907-6.315,167.118-16.366c35.205-8.585,55.446-21.461,55.446-35.011V14.6c0,12.483-20.24,24.346-55.446,32.256" transform="translate(-440.141 -4.829)" fill="#bf2121"/>
        <path id="Path_96" data-name="Path 96" d="M1720.08,68.673c-41.211,13.572-100.819,22.1-167.118,22.1s-125.907-8.528-167.118-22.1C1350.638,57.079,1330.4,39.692,1330.4,21.4v.9c0,19.447,20.24,37.926,55.446,50.248,41.211,14.425,100.819,23.488,167.118,23.488s125.907-9.064,167.118-23.488c35.205-12.322,55.446-30.8,55.446-50.248v-.9c0,18.3-20.24,35.684-55.446,47.278" transform="translate(-440.141 -7.078)" fill="#bf2121"/>
        <path id="Path_97" data-name="Path 97" d="M1720.08,92.369c-41.211,18.255-100.819,29.725-167.118,29.725s-125.907-11.47-167.118-29.725c-35.205-15.594-55.446-38.98-55.446-63.591v.938c0,25.81,20.24,50.336,55.446,66.69,41.211,19.144,100.819,31.174,167.118,31.174s125.907-12.03,167.118-31.174c35.205-16.354,55.446-40.88,55.446-66.69v-.938c0,24.611-20.24,48-55.446,63.591" transform="translate(-440.141 -9.521)" fill="#bf2121"/>
        <g id="Group_16" data-name="Group 16" transform="translate(318.046 0.001)" opacity="0.31">
          <g id="Group_15" data-name="Group 15">
            <g id="Group_14" data-name="Group 14" clip-path="url(#clip-path-4)">
              <path id="Path_98" data-name="Path 98" d="M602.371,0V23.793c0,23.681-12.275,46.444-34.34,64.455a329.869,329.869,0,0,1-38.474-27.1C507.125,42.728,488.748,22.161,475.287,0Z" transform="translate(-475.287 -0.001)"/>
              <path id="Path_99" data-name="Path 99" d="M1457.481,0c-20.512,33.77-52.451,63.846-92.744,88.247-22.062-18.011-34.337-40.774-34.337-64.455V0Z" transform="translate(-758.188 -0.001)"/>
            </g>
          </g>
        </g>
        <path id="Path_100" data-name="Path 100" d="M495.35,0c51.923,90.8,182.876,155.243,336.222,155.243S1115.87,90.8,1167.793,0Z" transform="translate(-163.879)" fill="#e43935"/>
        <path id="Path_101" data-name="Path 101" d="M831.571,44.643c-153.346,0-284.3-18.532-336.222-44.642C547.272,31.03,678.225,53.053,831.571,53.053S1115.87,31.03,1167.792,0c-51.922,26.11-182.876,44.642-336.222,44.642" transform="translate(-163.878 0)" fill="#bf2121"/>
        <path id="Path_102" data-name="Path 102" d="M831.571,81.272c-153.346,0-284.3-33.737-336.222-81.272,51.923,52.221,182.876,89.285,336.222,89.285S1115.87,52.221,1167.792,0C1115.87,47.534,984.917,81.272,831.571,81.272" transform="translate(-163.878)" fill="#bf2121"/>
        <path id="Path_103" data-name="Path 103" d="M831.571,115.066C678.225,115.066,547.272,67.3,495.349,0c51.923,71.376,182.876,122.034,336.222,122.034S1115.87,71.376,1167.792,0C1115.87,67.3,984.917,115.066,831.571,115.066" transform="translate(-163.878)" fill="#bf2121"/>
      </g>
    </g>
  </g>
</svg>
